<svg width="233" height="217" viewBox="0 0 233 217" fill="none" xmlns="http://www.w3.org/2000/svg">
<path fill-rule="evenodd" clip-rule="evenodd" d="M78.123 45C77.802 46.548 76.802 47.215 75.123 47C74.961 49.027 75.128 51.027 75.623 53C78.076 55.925 79.576 59.258 80.123 63C77.206 58.834 74.539 54.501 72.123 50C72.123 49.333 72.123 48.667 72.123 48C73.839 46.475 75.839 45.475 78.123 45Z" fill="#A22D2C"/>
<path fill-rule="evenodd" clip-rule="evenodd" d="M72.123 48C72.123 48.667 72.123 49.333 72.123 50C71.739 52.429 71.072 54.763 70.123 57C69.401 56.582 68.901 55.916 68.623 55C58.891 62.584 49.391 70.251 40.123 78C38.361 77.857 36.694 78.191 35.123 79C33.892 77.849 33.892 76.683 35.123 75.5C47.616 66.502 59.949 57.335 72.123 48Z" fill="#BEBFBA"/>
<path fill-rule="evenodd" clip-rule="evenodd" d="M193.123 69C191.472 70.419 189.639 71.753 187.623 73C187.29 72.667 186.956 72.333 186.623 72C186.14 72.948 185.974 73.948 186.123 75C182.245 75.766 179.245 77.766 177.123 81C157.62 92.586 137.953 103.919 118.123 115C115.711 114.831 113.544 115.497 111.623 117C109.781 115.285 107.948 113.618 106.123 112C105.668 107.088 103.668 103.088 100.123 100C92.7121 88.185 86.0451 75.851 80.1231 63C79.5761 59.258 78.0761 55.925 75.6231 53C75.1281 51.027 74.9611 49.027 75.1231 47C76.8021 47.215 77.8021 46.548 78.1231 45C103.563 29.774 129.229 14.774 155.123 0C168.562 22.542 181.229 45.542 193.123 69Z" fill="#B21516"/>
<path fill-rule="evenodd" clip-rule="evenodd" d="M170.123 65.9999C169.456 66.3329 168.79 66.6669 168.123 66.9999C165.533 67.4179 163.2 68.4179 161.123 69.9999C160.44 69.6369 159.773 69.3039 159.123 68.9999C156.533 66.6119 154.866 63.6119 154.123 59.9999C154.28 58.6269 154.113 57.2929 153.623 55.9999C152.387 55.1009 151.553 53.9339 151.123 52.4999C152.227 50.7849 153.561 49.2849 155.123 47.9999C156.954 47.4479 158.62 47.4479 160.123 47.9999C162.989 54.4119 166.322 60.4119 170.123 65.9999Z" fill="#8994A2"/>
<path fill-rule="evenodd" clip-rule="evenodd" d="M170.123 65.9998C166.322 60.4118 162.989 54.4118 160.123 47.9998C158.62 47.4478 156.954 47.4478 155.123 47.9998C156.412 45.1778 158.412 44.5108 161.123 45.9998C164.568 51.4928 167.735 57.1598 170.623 62.9998C171.363 64.2488 171.196 65.2488 170.123 65.9998Z" fill="#935746"/>
<path fill-rule="evenodd" clip-rule="evenodd" d="M155.123 48C153.561 49.285 152.227 50.785 151.123 52.5C151.553 53.934 152.387 55.101 153.623 56C154.113 57.293 154.28 58.627 154.123 60C151.981 57.735 150.314 55.068 149.123 52C150.455 49.667 152.455 48.334 155.123 48Z" fill="#A47469"/>
<path fill-rule="evenodd" clip-rule="evenodd" d="M118.123 70.9997C119.298 70.7807 120.298 71.1137 121.123 71.9997C123.55 76.7197 125.883 81.3867 128.123 85.9997C126.829 85.2097 125.662 84.2097 124.623 82.9997C122.698 78.8127 120.531 74.8127 118.123 70.9997Z" fill="#8F5147"/>
<path fill-rule="evenodd" clip-rule="evenodd" d="M168.123 67C165.571 69.443 162.571 71.11 159.123 72C159.123 71 159.123 70 159.123 69C159.773 69.304 160.44 69.637 161.123 70C163.2 68.418 165.533 67.418 168.123 67Z" fill="#A86C5D"/>
<path fill-rule="evenodd" clip-rule="evenodd" d="M193.123 69C193.72 69.235 194.053 69.735 194.123 70.5C192.978 71.902 191.645 73.069 190.123 74C185.976 76.575 181.643 78.909 177.123 81C179.245 77.766 182.245 75.766 186.123 75C185.974 73.948 186.14 72.948 186.623 72C186.956 72.333 187.29 72.667 187.623 73C189.639 71.753 191.472 70.419 193.123 69Z" fill="#A2282B"/>
<path fill-rule="evenodd" clip-rule="evenodd" d="M79.123 75C79.456 75.667 79.79 76.333 80.123 77C80.289 83.342 80.123 89.675 79.623 96C75.956 93.667 72.29 91.333 68.623 89C67.792 82.641 67.959 76.307 69.123 70C72.509 71.693 75.843 73.36 79.123 75Z" fill="#5A463A"/>
<path fill-rule="evenodd" clip-rule="evenodd" d="M114.123 72C113.336 73.604 112.003 74.271 110.123 74C111.146 78.089 112.48 82.089 114.123 86C111.845 83.733 110.012 81.067 108.623 78C108.044 76.572 108.211 75.238 109.123 74C110.553 72.963 112.22 72.296 114.123 72Z" fill="#A17565"/>
<path fill-rule="evenodd" clip-rule="evenodd" d="M70.123 72.9997C71.747 72.8597 72.913 73.5267 73.623 74.9997C74.29 80.3327 74.29 85.6667 73.623 90.9997C72.934 90.1427 72.101 89.4767 71.123 88.9997C70.128 83.7077 69.795 78.3747 70.123 72.9997Z" fill="#6C707B"/>
<path fill-rule="evenodd" clip-rule="evenodd" d="M190.123 74C189.656 76.211 188.656 78.211 187.123 80C184.712 80.861 182.712 82.194 181.123 84C157.464 96.828 134.131 110.161 111.123 124C110.225 123.342 109.225 122.676 108.123 122C109.393 121.212 110.393 120.212 111.123 119C113.655 117.904 115.988 116.571 118.123 115C137.953 103.919 157.62 92.586 177.123 81C181.643 78.909 185.976 76.575 190.123 74Z" fill="#D5CAC6"/>
<path fill-rule="evenodd" clip-rule="evenodd" d="M118.123 70.9995C120.531 74.8125 122.698 78.8125 124.623 82.9995C125.662 84.2095 126.829 85.2095 128.123 85.9995C128.019 88.2025 127.353 90.2025 126.123 91.9995C124.339 92.3925 122.673 93.0585 121.123 93.9995C120.123 93.9995 119.123 93.9995 118.123 93.9995C118.162 91.4105 117.162 89.4105 115.123 87.9995C114.285 87.6575 113.951 86.9915 114.123 85.9995C112.48 82.0885 111.146 78.0885 110.123 73.9995C112.003 74.2705 113.336 73.6035 114.123 71.9995C115.161 69.9805 116.495 69.6465 118.123 70.9995Z" fill="#8A929D"/>
<path fill-rule="evenodd" clip-rule="evenodd" d="M75.123 76.0001C76.445 75.8301 77.612 76.1631 78.623 77.0001C79.122 81.9891 79.289 86.9891 79.123 92.0001C77.79 92.0001 76.456 92.0001 75.123 92.0001C75.123 86.6671 75.123 81.3331 75.123 76.0001Z" fill="#707178"/>
<path fill-rule="evenodd" clip-rule="evenodd" d="M128.123 86C129.236 87.446 129.403 89.113 128.623 91C127.952 91.752 127.119 92.086 126.123 92C127.353 90.203 128.019 88.203 128.123 86Z" fill="#A75954"/>
<path fill-rule="evenodd" clip-rule="evenodd" d="M72.123 50C74.539 54.501 77.206 58.834 80.123 63C86.045 75.851 92.712 88.185 100.123 100C101.615 104.318 103.615 108.318 106.123 112C107.089 114.969 108.756 117.302 111.123 119C110.393 120.212 109.393 121.212 108.123 122C109.225 122.676 110.225 123.342 111.123 124C109.056 126.047 107.223 126.047 105.623 124C98.044 107.652 89.544 91.985 80.123 77C79.79 76.333 79.456 75.667 79.123 75C76.139 69.031 73.139 63.031 70.123 57C71.072 54.763 71.739 52.429 72.123 50Z" fill="#BAB3AD"/>
<path fill-rule="evenodd" clip-rule="evenodd" d="M115.123 88C117.162 89.411 118.162 91.411 118.123 94C119.123 94 120.123 94 121.123 94C120.621 95.585 119.621 96.085 118.123 95.5C116.981 93.05 115.981 90.55 115.123 88Z" fill="#A4695E"/>
<path fill-rule="evenodd" clip-rule="evenodd" d="M109.123 74C108.211 75.238 108.044 76.572 108.623 78C110.012 81.067 111.845 83.733 114.123 86C113.951 86.992 114.285 87.658 115.123 88C115.981 90.55 116.981 93.05 118.123 95.5C119.621 96.085 120.621 95.585 121.123 94C122.673 93.059 124.339 92.393 126.123 92C125.275 93.593 123.942 94.76 122.123 95.5C122.58 95.914 122.914 96.414 123.123 97C120.341 98.452 117.841 98.119 115.623 96C115.263 93.892 114.596 91.892 113.623 90C111.124 85.963 108.624 81.963 106.123 78C105.733 75.518 106.733 74.185 109.123 74Z" fill="#A2251D"/>
<path fill-rule="evenodd" clip-rule="evenodd" d="M190.123 97.0002C193.231 96.8752 195.231 98.2082 196.123 101C193.695 100.288 191.362 99.2882 189.123 98.0002C188.126 104.634 187.793 111.3 188.123 118C187.132 111.187 186.798 104.187 187.123 97.0002C188.123 97.0002 189.123 97.0002 190.123 97.0002Z" fill="#F3FBCF"/>
<path fill-rule="evenodd" clip-rule="evenodd" d="M100.123 100C103.668 103.088 105.668 107.088 106.123 112C103.615 108.318 101.615 104.318 100.123 100Z" fill="#9E2B29"/>
<path fill-rule="evenodd" clip-rule="evenodd" d="M196.123 101C198.123 102.667 200.123 104.333 202.123 106C198.476 104.369 194.809 102.702 191.123 101C190.128 106.628 189.794 112.294 190.123 118C189.456 118 188.79 118 188.123 118C187.793 111.3 188.126 104.634 189.123 98C191.362 99.288 193.695 100.288 196.123 101Z" fill="#8EB242"/>
<path fill-rule="evenodd" clip-rule="evenodd" d="M31.1229 101C31.4559 101 31.7899 101 32.1229 101C32.4559 103 32.7899 105 33.1229 107C35.2999 106.914 37.2999 106.247 39.1229 105C40.1179 110.292 40.4509 115.625 40.1229 121C39.4559 121.333 38.7899 121.667 38.1229 122C37.4559 122.667 36.7899 123.333 36.1229 124C36.7309 118.556 36.0649 113.556 34.1229 109C31.9609 106.858 30.9609 104.191 31.1229 101Z" fill="#7D9D33"/>
<path fill-rule="evenodd" clip-rule="evenodd" d="M70.123 57C73.139 63.031 76.139 69.031 79.123 75C75.843 73.36 72.509 71.693 69.123 70C67.959 76.307 67.792 82.641 68.623 89C72.29 91.333 75.956 93.667 79.623 96C80.123 89.675 80.289 83.342 80.123 77C89.544 91.985 98.044 107.652 105.623 124C107.223 126.047 109.056 126.047 111.123 124C110.507 136.583 111.174 148.916 113.123 161C111.276 162.073 109.276 162.073 107.123 161C107.123 160.333 106.79 160 106.123 160C106.425 155.71 105.759 151.71 104.123 148C103.853 144.142 102.52 140.809 100.123 138C99.841 136.722 99.174 135.722 98.123 135C98.289 130.654 98.122 126.321 97.623 122C93.873 119.541 90.04 117.208 86.123 115C84.79 123 84.79 131 86.123 139C88.157 140.059 90.157 141.059 92.123 142C90.984 144.504 90.317 147.17 90.123 150C83.483 146.346 76.817 142.679 70.123 139C68.8 132.684 67.467 126.351 66.123 120C66.289 114.656 66.122 109.323 65.623 104C61.956 101.667 58.29 99.333 54.623 97C54.456 101 54.29 105 54.123 109C54.132 113.393 54.799 117.393 56.123 121C56.063 123.841 55.397 126.507 54.123 129C48.876 127.26 44.209 124.593 40.123 121C40.451 115.625 40.118 110.292 39.123 105C37.3 106.247 35.3 106.914 33.123 107C32.79 105 32.456 103 32.123 101C33.014 101.761 33.681 102.761 34.123 104C34.948 104.886 35.948 105.219 37.123 105C37.123 104 37.123 103 37.123 102C38.123 102 39.123 102 40.123 102C40.123 94 40.123 86 40.123 78C49.391 70.251 58.891 62.584 68.623 55C68.901 55.916 69.401 56.582 70.123 57Z" fill="#DEDACD"/>
<path fill-rule="evenodd" clip-rule="evenodd" d="M202.123 106C204.123 106.667 206.123 107.333 208.123 108C209.197 109.385 210.53 110.551 212.123 111.5C217.145 114.011 222.145 116.511 227.123 119C228.388 119.979 229.722 120.979 231.123 122C232.075 123.545 232.408 125.212 232.123 127C231.79 127 231.456 127 231.123 127C231.123 126 231.123 125 231.123 124C224.933 127.332 218.6 130.499 212.123 133.5C209.822 136.635 206.822 138.802 203.123 140C202.305 137.393 201.805 134.726 201.623 132C201.315 132.808 200.815 133.475 200.123 134C197.217 131.521 194.217 131.354 191.123 133.5C192.416 133.99 193.75 134.157 195.123 134C195.385 135.478 195.052 136.811 194.123 138C192.781 136.598 191.947 136.931 191.623 139C189.434 136.88 186.934 135.213 184.123 134C183.061 132.925 183.061 131.925 184.123 131C185.514 132.145 186.847 132.145 188.123 131C187.247 130.249 186.247 129.749 185.123 129.5C186.37 128.042 186.37 126.542 185.123 125C187.228 122.908 188.895 120.575 190.123 118C189.794 112.294 190.128 106.628 191.123 101C194.809 102.702 198.476 104.369 202.123 106Z" fill="#87B62B"/>
<path fill-rule="evenodd" clip-rule="evenodd" d="M31.123 101C30.961 104.191 31.961 106.858 34.123 109C34.123 110 34.123 111 34.123 112C34.44 115.072 34.107 118.072 33.123 121C32.456 121.333 31.79 121.667 31.123 122C27.403 120.498 23.737 119.165 20.123 118C21.072 113.843 21.739 109.51 22.123 105C22.795 102.157 24.128 99.6573 26.123 97.5003C28.968 96.8313 30.635 97.9973 31.123 101Z" fill="#7BBA19"/>
<path fill-rule="evenodd" clip-rule="evenodd" d="M66.123 120C65.79 120 65.456 120 65.123 120C65.295 119.008 64.961 118.342 64.123 118C64.123 117.333 64.123 116.667 64.123 116C64.288 112.318 64.122 108.652 63.623 105C61.363 103.827 59.197 102.494 57.123 101C56.127 106.963 55.794 112.963 56.123 119C56.123 119.667 56.456 120 57.123 120C57.123 120.667 56.79 121 56.123 121C54.799 117.393 54.132 113.393 54.123 109C54.29 105 54.456 101 54.623 97C58.29 99.333 61.956 101.667 65.623 104C66.122 109.323 66.289 114.656 66.123 120Z" fill="#5F4938"/>
<path fill-rule="evenodd" clip-rule="evenodd" d="M64.1231 116C60.8351 115.516 58.1681 116.516 56.1231 119C55.7941 112.963 56.1271 106.963 57.1231 101C59.1971 102.494 61.3631 103.827 63.6231 105C64.1221 108.652 64.2881 112.318 64.1231 116Z" fill="#687380"/>
<path fill-rule="evenodd" clip-rule="evenodd" d="M158.123 135C152.812 136.652 148.145 139.319 144.123 143C143.956 132.328 144.123 121.661 144.623 111C148.956 108.333 153.29 105.667 157.623 103C158.123 113.661 158.29 124.328 158.123 135Z" fill="#6A3A18"/>
<path fill-rule="evenodd" clip-rule="evenodd" d="M208.123 108C211.145 108.344 213.811 109.511 216.123 111.5C218.433 111.997 220.766 112.163 223.123 112C224.008 114.561 225.341 116.894 227.123 119C222.145 116.511 217.145 114.011 212.123 111.5C210.53 110.551 209.197 109.385 208.123 108Z" fill="#F1FAE1"/>
<path fill-rule="evenodd" clip-rule="evenodd" d="M64.123 116C64.123 116.667 64.123 117.333 64.123 118C63.358 117.577 62.525 117.243 61.623 117C59.98 117.815 58.48 118.815 57.123 120C56.456 120 56.123 119.667 56.123 119C58.168 116.516 60.835 115.516 64.123 116Z" fill="#738D53"/>
<path fill-rule="evenodd" clip-rule="evenodd" d="M106.123 112C107.948 113.618 109.781 115.285 111.623 117C113.544 115.497 115.711 114.831 118.123 115C115.988 116.571 113.655 117.904 111.123 119C108.756 117.302 107.089 114.969 106.123 112Z" fill="#9C272F"/>
<path fill-rule="evenodd" clip-rule="evenodd" d="M34.1231 112C35.1111 117.14 35.4441 122.474 35.1231 128C28.8671 129.219 23.7001 127.552 19.6231 123C19.1291 121.366 18.9631 119.699 19.1231 118C19.4561 118 19.7901 118 20.1231 118C23.7371 119.165 27.4031 120.498 31.1231 122C31.7901 121.667 32.4561 121.333 33.1231 121C34.1071 118.072 34.4401 115.072 34.1231 112Z" fill="#6DA70D"/>
<path fill-rule="evenodd" clip-rule="evenodd" d="M22.123 105C21.739 109.51 21.072 113.843 20.123 118C19.79 118 19.456 118 19.123 118C16.062 119.313 15.395 121.48 17.123 124.5C16.998 126.127 16.498 127.627 15.623 129C13.795 127.419 11.795 126.085 9.62305 125C9.34505 125.916 8.84505 126.582 8.12305 127C5.88805 126.705 3.88805 127.039 2.12305 128C1.45605 128 0.790047 128 0.123047 128C6.14005 123.899 12.306 119.899 18.623 116C19.487 112.116 20.653 108.449 22.123 105Z" fill="#7CA232"/>
<path fill-rule="evenodd" clip-rule="evenodd" d="M98.123 135C97.456 135 96.79 135 96.123 135C96.289 130.986 96.122 126.986 95.623 123C93.052 122.099 90.719 120.766 88.623 119C87.956 125 87.956 131 88.623 137C90.093 137.767 91.593 138.433 93.123 139C93.36 140.291 93.027 141.291 92.123 142C90.157 141.059 88.157 140.059 86.123 139C84.79 131 84.79 123 86.123 115C90.04 117.208 93.873 119.541 97.623 122C98.122 126.321 98.289 130.654 98.123 135Z" fill="#6C584D"/>
<path fill-rule="evenodd" clip-rule="evenodd" d="M96.1231 135C95.1231 136.333 94.1231 137.667 93.1231 139C91.5931 138.433 90.0931 137.767 88.6231 137C87.9561 131 87.9561 125 88.6231 119C90.7191 120.766 93.0521 122.099 95.6231 123C96.1221 126.986 96.2891 130.986 96.1231 135Z" fill="#657178"/>
<path fill-rule="evenodd" clip-rule="evenodd" d="M40.123 121C44.209 124.593 48.876 127.26 54.123 129C54.123 130.333 54.123 131.667 54.123 133C53.79 133 53.456 133 53.123 133C48.559 130.229 43.559 128.229 38.123 127C38.123 125.333 38.123 123.667 38.123 122C38.79 121.667 39.456 121.333 40.123 121Z" fill="#6C4C2A"/>
<path fill-rule="evenodd" clip-rule="evenodd" d="M38.123 127C43.559 128.229 48.559 130.229 53.123 133C53.36 134.291 53.027 135.291 52.123 136C49.884 133.868 47.217 132.201 44.123 131C41.82 131.376 41.486 132.376 43.123 134C41.79 133.667 40.456 133.333 39.123 133C39.123 132.333 38.79 132 38.123 132C38.123 130.333 38.123 128.667 38.123 127Z" fill="#525746"/>
<path fill-rule="evenodd" clip-rule="evenodd" d="M8.12305 127C12.846 129.544 16.513 133.211 19.123 138C12.964 135.423 7.29705 132.09 2.12305 128C3.88805 127.039 5.88805 126.705 8.12305 127Z" fill="#83B229"/>
<path fill-rule="evenodd" clip-rule="evenodd" d="M38.123 122C38.123 123.667 38.123 125.333 38.123 127C38.123 128.667 38.123 130.333 38.123 132C36.254 129.865 35.587 127.198 36.123 124C36.79 123.333 37.456 122.667 38.123 122Z" fill="#52683A"/>
<path fill-rule="evenodd" clip-rule="evenodd" d="M231.123 127C220.393 134.391 209.393 141.391 198.123 148C195.656 148.255 193.656 149.255 192.123 151C190.68 150.165 189.68 148.832 189.123 147C188.206 146.373 187.206 146.039 186.123 146C184.501 145.378 183.168 144.378 182.123 143C182.894 140.046 183.561 137.046 184.123 134C186.934 135.213 189.434 136.88 191.623 139C191.947 136.931 192.781 136.598 194.123 138C195.052 136.811 195.385 135.478 195.123 134C193.75 134.157 192.416 133.99 191.123 133.5C194.217 131.354 197.217 131.521 200.123 134C200.815 133.475 201.315 132.808 201.623 132C201.805 134.726 202.305 137.393 203.123 140C206.822 138.802 209.822 136.635 212.123 133.5C218.6 130.499 224.933 127.332 231.123 124C231.123 125 231.123 126 231.123 127Z" fill="#709B18"/>
<path fill-rule="evenodd" clip-rule="evenodd" d="M52.1231 136C52.1531 136.997 51.6531 137.664 50.6231 138C47.9471 136.886 45.4471 135.552 43.1231 134C41.4861 132.376 41.8201 131.376 44.1231 131C47.2171 132.201 49.8841 133.868 52.1231 136Z" fill="#4D585C"/>
<path fill-rule="evenodd" clip-rule="evenodd" d="M65.123 120C65.456 120 65.79 120 66.123 120C67.467 126.351 68.8 132.684 70.123 139C70.123 139.333 70.123 139.667 70.123 140C69.219 140.709 68.886 141.709 69.123 143C54.341 145.134 50.675 139.801 58.123 127C56.773 121.016 59.107 118.683 65.123 120Z" fill="#78B519"/>
<path fill-rule="evenodd" clip-rule="evenodd" d="M180.123 128C179.456 130.667 178.79 133.333 178.123 136C176.79 136 175.456 136 174.123 136C174.123 137.333 174.123 138.667 174.123 140C172.308 138.87 170.308 138.204 168.123 138C168.123 136.667 168.123 135.333 168.123 134C171.871 131.608 175.871 129.608 180.123 128Z" fill="#606561"/>
<path fill-rule="evenodd" clip-rule="evenodd" d="M188.123 118C188.79 118 189.456 118 190.123 118C188.895 120.575 187.228 122.908 185.123 125C186.37 126.542 186.37 128.042 185.123 129.5C186.247 129.749 187.247 130.249 188.123 131C186.847 132.145 185.514 132.145 184.123 131C183.061 131.925 183.061 132.925 184.123 134C183.561 137.046 182.894 140.046 182.123 143C179.433 141.954 176.766 140.954 174.123 140C174.123 138.667 174.123 137.333 174.123 136C175.456 136 176.79 136 178.123 136C178.79 133.333 179.456 130.667 180.123 128C182.717 125.012 185.384 122.012 188.123 119C188.123 118.667 188.123 118.333 188.123 118Z" fill="#749323"/>
<path fill-rule="evenodd" clip-rule="evenodd" d="M165.123 132C164.67 132.958 164.004 133.792 163.123 134.5C165.729 134.95 167.062 136.45 167.123 139C164.63 138.631 163.963 139.297 165.123 141C159.289 145.086 152.955 148.419 146.123 151C144.452 150.832 143.119 150.165 142.123 149C143.565 147.68 144.231 146.014 144.123 144C144.123 143.667 144.123 143.333 144.123 143C148.145 139.319 152.812 136.652 158.123 135C160.603 134.258 162.936 133.258 165.123 132Z" fill="#A26E4D"/>
<path fill-rule="evenodd" clip-rule="evenodd" d="M34.123 109C36.065 113.556 36.731 118.556 36.123 124C35.587 127.198 36.254 129.865 38.123 132C38.79 132 39.123 132.333 39.123 133C40.264 134.588 41.764 135.921 43.623 137C44.24 137.949 44.074 138.782 43.123 139.5C44.724 139.773 46.224 140.273 47.623 141C47.57 143.436 47.736 145.769 48.123 148C49.331 145.159 50.664 142.493 52.123 140C52.123 142.667 52.123 145.333 52.123 148C56.533 148.361 60.866 148.861 65.123 149.5C68.263 148.5 69.596 146.333 69.123 143C68.886 141.709 69.219 140.709 70.123 140C70.123 141.667 70.123 143.333 70.123 145C70.123 148 70.123 151 70.123 154C75.087 153.985 79.087 155.819 82.123 159.5C81.79 159.833 81.456 160.167 81.123 160.5C84.101 161.196 87.101 161.696 90.123 162C90.123 159.333 90.123 156.667 90.123 154C90.123 152.667 90.123 151.333 90.123 150C90.317 147.17 90.984 144.504 92.123 142C93.027 141.291 93.36 140.291 93.123 139C94.123 137.667 95.123 136.333 96.123 135C96.79 135 97.456 135 98.123 135C99.174 135.722 99.841 136.722 100.123 138C98.613 136.772 97.113 136.772 95.623 138C94.807 141.83 93.474 145.496 91.623 149C91.126 151.31 90.96 153.643 91.123 156C90.96 158.357 91.126 160.69 91.623 163C93.269 164.279 94.436 165.945 95.123 168C98.483 169.036 101.649 169.703 104.623 170C105.822 166.774 106.322 163.441 106.123 160C106.79 160 107.123 160.333 107.123 161C107.123 163.333 107.123 165.667 107.123 168C107.358 172.303 109.692 173.97 114.123 173C109.88 173.572 105.88 175.072 102.123 177.5C97.752 178.129 93.419 177.963 89.123 177C89.143 175.357 88.476 174.024 87.123 173C87.932 171.429 88.266 169.762 88.123 168C83.777 168.166 79.444 167.999 75.123 167.5C71.641 164.011 67.641 161.345 63.123 159.5C59.306 159.029 55.64 158.029 52.123 156.5C50.762 154.916 50.095 153.082 50.123 151C43.103 148.14 36.436 144.64 30.123 140.5C26.402 139.819 22.736 138.986 19.123 138C16.513 133.211 12.846 129.544 8.12305 127C8.84505 126.582 9.34505 125.916 9.62305 125C11.795 126.085 13.795 127.419 15.623 129C16.498 127.627 16.998 126.127 17.123 124.5C15.395 121.48 16.062 119.313 19.123 118C18.963 119.699 19.129 121.366 19.623 123C23.7 127.552 28.867 129.219 35.123 128C35.444 122.474 35.111 117.14 34.123 112C34.123 111 34.123 110 34.123 109Z" fill="#6A9818"/>
<path fill-rule="evenodd" clip-rule="evenodd" d="M39.123 133C40.456 133.333 41.79 133.667 43.123 134C45.447 135.552 47.947 136.886 50.623 138C51.653 137.664 52.153 136.997 52.123 136C53.027 135.291 53.36 134.291 53.123 133C53.456 133 53.79 133 54.123 133C54.213 135.652 53.547 137.985 52.123 140C50.664 142.493 49.331 145.159 48.123 148C47.736 145.769 47.57 143.436 47.623 141C46.224 140.273 44.724 139.773 43.123 139.5C44.074 138.782 44.24 137.949 43.623 137C41.764 135.921 40.264 134.588 39.123 133Z" fill="#6C932E"/>
<path fill-rule="evenodd" clip-rule="evenodd" d="M64.123 118C64.961 118.342 65.295 119.008 65.123 120C59.107 118.683 56.773 121.016 58.123 127C50.675 139.801 54.341 145.134 69.123 143C69.596 146.333 68.263 148.5 65.123 149.5C60.866 148.861 56.533 148.361 52.123 148C52.123 145.333 52.123 142.667 52.123 140C53.547 137.985 54.213 135.652 54.123 133C54.123 131.667 54.123 130.333 54.123 129C55.397 126.507 56.063 123.841 56.123 121C56.79 121 57.123 120.667 57.123 120C58.48 118.815 59.98 117.815 61.623 117C62.525 117.243 63.358 117.577 64.123 118Z" fill="#6FA515"/>
<path fill-rule="evenodd" clip-rule="evenodd" d="M190.123 97C189.123 97 188.123 97 187.123 97C186.798 104.187 187.132 111.187 188.123 118C188.123 118.333 188.123 118.667 188.123 119C180.286 123.084 172.62 127.417 165.123 132C162.936 133.258 160.603 134.258 158.123 135C158.29 124.328 158.123 113.661 157.623 103C153.29 105.667 148.956 108.333 144.623 111C144.123 121.661 143.956 132.328 144.123 143C144.123 143.333 144.123 143.667 144.123 144C138.839 146.637 133.839 149.637 129.123 153C127.189 153.61 125.522 154.61 124.123 156C120.307 157.409 116.64 159.076 113.123 161C111.174 148.916 110.507 136.583 111.123 124C134.131 110.161 157.464 96.828 181.123 84C185.087 84.901 187.92 83.234 189.623 79C190.258 80.466 191.092 81.8 192.123 83C191.456 83.667 190.79 84.333 190.123 85C191.383 87.555 192.717 90.055 194.123 92.5C192.857 92.809 191.69 93.309 190.623 94C190.29 93.667 189.956 93.333 189.623 93C189.044 94.428 189.211 95.762 190.123 97Z" fill="#F8F2E5"/>
<path fill-rule="evenodd" clip-rule="evenodd" d="M131.123 121C132.113 127.145 132.446 133.478 132.123 140C130.79 140 129.456 140 128.123 140C127.957 134.324 128.124 128.657 128.623 123C129.331 122.119 130.165 121.453 131.123 121Z" fill="#687683"/>
<path fill-rule="evenodd" clip-rule="evenodd" d="M127.123 140C127.456 143 126.123 144.333 123.123 144C122.957 137.658 123.123 131.325 123.623 125C124.634 124.163 125.801 123.83 127.123 124C127.123 129.333 127.123 134.667 127.123 140Z" fill="#6B747B"/>
<path fill-rule="evenodd" clip-rule="evenodd" d="M131.123 119C131.123 119.667 131.123 120.333 131.123 121C130.165 121.453 129.331 122.119 128.623 123C128.124 128.657 127.957 134.324 128.123 140C127.79 140 127.456 140 127.123 140C127.123 134.667 127.123 129.333 127.123 124C125.801 123.83 124.634 124.163 123.623 125C123.123 131.325 122.957 137.658 123.123 144C122.79 144 122.456 144 122.123 144C121.793 136.968 122.126 129.968 123.123 123C125.578 121.203 128.245 119.87 131.123 119Z" fill="#4E4A42"/>
<path fill-rule="evenodd" clip-rule="evenodd" d="M122.123 144C122.456 144 122.79 144 123.123 144C126.123 144.333 127.456 143 127.123 140C127.456 140 127.79 140 128.123 140C129.456 140 130.79 140 132.123 140C132.446 133.478 132.113 127.145 131.123 121C131.123 120.333 131.123 119.667 131.123 119C131.795 118.233 132.628 117.566 133.623 117C134.29 124.667 134.29 132.333 133.623 140C129.956 142.333 126.29 144.667 122.623 147C122.14 146.052 121.974 145.052 122.123 144Z" fill="#65422A"/>
<path fill-rule="evenodd" clip-rule="evenodd" d="M175.123 116C174.123 116 173.123 116 172.123 116C172.123 110 172.123 104 172.123 98.0002C172.444 96.4522 173.444 95.7852 175.123 96.0002C175.123 102.667 175.123 109.333 175.123 116Z" fill="#697480"/>
<path fill-rule="evenodd" clip-rule="evenodd" d="M169.123 98.9997C169.832 98.0957 170.832 97.7627 172.123 97.9997C172.123 104 172.123 110 172.123 116C173.123 116 174.123 116 175.123 116C172.361 118.225 169.361 120.225 166.123 122C164.803 114.177 164.803 106.51 166.123 98.9997C166.123 99.3327 166.123 99.6667 166.123 99.9997C166.123 105.667 166.123 111.333 166.123 117C167.456 117 168.79 117 170.123 117C170.446 110.81 170.113 104.81 169.123 98.9997Z" fill="#6D5C5A"/>
<path fill-rule="evenodd" clip-rule="evenodd" d="M176.123 93C176.183 92.457 176.516 92.124 177.123 92C178.443 99.823 178.443 107.49 177.123 115C177.448 107.481 177.115 100.148 176.123 93Z" fill="#AD9176"/>
<path fill-rule="evenodd" clip-rule="evenodd" d="M169.123 99C170.113 104.81 170.446 110.81 170.123 117C168.79 117 167.456 117 166.123 117C166.123 111.333 166.123 105.667 166.123 100C167.232 99.943 168.232 99.61 169.123 99Z" fill="#677078"/>
<path fill-rule="evenodd" clip-rule="evenodd" d="M176.123 93C177.115 100.148 177.448 107.481 177.123 115C176.781 115.838 176.115 116.172 175.123 116C175.123 109.333 175.123 102.667 175.123 96C173.444 95.785 172.444 96.452 172.123 98C170.832 97.763 169.832 98.096 169.123 99C168.232 99.61 167.232 99.943 166.123 100C166.123 99.667 166.123 99.333 166.123 99C169.117 96.5 172.45 94.5 176.123 93Z" fill="#5B483C"/>
<path fill-rule="evenodd" clip-rule="evenodd" d="M142.123 149C143.119 150.165 144.452 150.832 146.123 151C152.955 148.419 159.289 145.086 165.123 141C166.481 139.874 167.815 139.874 169.123 141C161.581 145.603 153.915 149.936 146.123 154C144.253 152.634 142.253 151.467 140.123 150.5C139.056 148.073 139.723 147.573 142.123 149Z" fill="#82512C"/>
<path fill-rule="evenodd" clip-rule="evenodd" d="M231.123 127C231.456 127 231.79 127 232.123 127C232.123 128.667 232.123 130.333 232.123 132C226.386 132.219 222.386 135.052 220.123 140.5C219.074 140.992 218.074 140.826 217.123 140C216.342 141.229 215.842 142.562 215.623 144C215.474 141.221 214.64 140.721 213.123 142.5C213.456 142.833 213.79 143.167 214.123 143.5C212.57 144.597 211.237 145.93 210.123 147.5C207.959 147.933 205.959 147.433 204.123 146C202.289 147.254 200.289 147.921 198.123 148C209.393 141.391 220.393 134.391 231.123 127Z" fill="#6C5632"/>
<path fill-rule="evenodd" clip-rule="evenodd" d="M188.123 119C185.384 122.012 182.717 125.012 180.123 128C175.871 129.608 171.871 131.608 168.123 134C168.123 135.333 168.123 136.667 168.123 138C170.308 138.204 172.308 138.87 174.123 140C174.123 141.333 174.123 142.667 174.123 144C170.085 144.52 166.751 146.353 164.123 149.5C158.667 152.046 153.334 154.879 148.123 158C146.107 159.194 144.107 159.194 142.123 158C142.112 156.483 141.446 155.316 140.123 154.5C138.239 154.284 136.572 153.617 135.123 152.5C133.078 152.01 131.078 152.177 129.123 153C133.839 149.637 138.839 146.637 144.123 144C144.231 146.014 143.565 147.68 142.123 149C139.723 147.573 139.056 148.073 140.123 150.5C142.253 151.467 144.253 152.634 146.123 154C153.915 149.936 161.581 145.603 169.123 141C167.815 139.874 166.481 139.874 165.123 141C163.963 139.297 164.63 138.631 167.123 139C167.062 136.45 165.729 134.95 163.123 134.5C164.004 133.792 164.67 132.958 165.123 132C172.62 127.417 180.286 123.084 188.123 119Z" fill="#8C6344"/>
<path fill-rule="evenodd" clip-rule="evenodd" d="M186.123 146C187.206 146.039 188.206 146.373 189.123 147C189.68 148.832 190.68 150.165 192.123 151C191.414 151.904 190.414 152.237 189.123 152C189.168 149.423 188.168 147.423 186.123 146Z" fill="#647D44"/>
<path fill-rule="evenodd" clip-rule="evenodd" d="M70.123 139C76.817 142.679 83.483 146.346 90.123 150C90.123 151.333 90.123 152.667 90.123 154C89.456 154 88.79 154 88.123 154C82.979 153.048 78.646 150.548 75.123 146.5C73.83 146.01 72.496 145.843 71.123 146C71.123 145.333 70.79 145 70.123 145C70.123 143.333 70.123 141.667 70.123 140C70.123 139.667 70.123 139.333 70.123 139Z" fill="#6B4928"/>
<path fill-rule="evenodd" clip-rule="evenodd" d="M174.123 140C176.766 140.954 179.433 141.954 182.123 143C183.168 144.378 184.501 145.378 186.123 146C188.168 147.423 189.168 149.423 189.123 152C188.79 152 188.456 152 188.123 152C188.003 150.914 187.336 150.247 186.123 150C184.233 151.112 182.233 151.946 180.123 152.5C172.444 158.159 164.444 162.993 156.123 167C155.79 167 155.456 167 155.123 167C150.672 165.409 146.672 163.075 143.123 160C142.285 159.658 141.951 158.992 142.123 158C144.107 159.194 146.107 159.194 148.123 158C153.334 154.879 158.667 152.046 164.123 149.5C166.751 146.353 170.085 144.52 174.123 144C174.123 142.667 174.123 141.333 174.123 140Z" fill="#59686D"/>
<path fill-rule="evenodd" clip-rule="evenodd" d="M71.123 146C72.496 145.843 73.83 146.01 75.123 146.5C78.646 150.548 82.979 153.048 88.123 154C88.123 155.667 88.123 157.333 88.123 159C84.759 159.711 82.426 158.544 81.123 155.5C75.24 154.769 71.907 151.602 71.123 146Z" fill="#4C5956"/>
<path fill-rule="evenodd" clip-rule="evenodd" d="M100.123 138C102.52 140.809 103.853 144.142 104.123 148C104.128 152.034 104.461 156.034 105.123 160C99.747 160.668 95.08 159.335 91.123 156C90.96 153.643 91.126 151.31 91.623 149C93.474 145.496 94.807 141.83 95.623 138C97.113 136.772 98.613 136.772 100.123 138Z" fill="#79B716"/>
<path fill-rule="evenodd" clip-rule="evenodd" d="M142.123 158C140.996 157.378 139.996 156.545 139.123 155.5C137.242 155.596 135.576 155.429 134.123 155C132.677 153.887 131.01 153.72 129.123 154.5C127.3 155.497 125.633 156.664 124.123 158C124.123 157.333 124.123 156.667 124.123 156C125.522 154.61 127.189 153.61 129.123 153C131.078 152.177 133.078 152.01 135.123 152.5C136.572 153.617 138.239 154.284 140.123 154.5C141.446 155.316 142.112 156.483 142.123 158Z" fill="#7A742F"/>
<path fill-rule="evenodd" clip-rule="evenodd" d="M232.123 132C232.451 137.375 232.118 142.708 231.123 148C191.535 171.379 151.701 194.379 111.623 217C109.971 216.101 108.471 215.101 107.123 214C108.456 214 109.79 214 111.123 214C111.123 209 111.123 204 111.123 199C113.667 198.604 115.834 199.271 117.623 201C118.603 199.441 119.436 197.774 120.123 196C122.518 197.023 123.518 196.023 123.123 193C124.123 193 125.123 193 126.123 193C126.123 192 126.123 191 126.123 190C129.005 188.474 131.671 186.474 134.123 184C136.839 183.822 139.506 183.322 142.123 182.5C145.62 178.448 149.953 176.782 155.123 177.5C154.456 176.833 153.79 176.167 153.123 175.5C154.686 174.741 155.686 173.574 156.123 172C159.188 169.801 162.522 168.134 166.123 167C166.123 166 166.123 165 166.123 164C168.48 164.163 170.813 163.997 173.123 163.5C178.138 159.662 183.138 155.829 188.123 152C188.456 152 188.79 152 189.123 152C190.414 152.237 191.414 151.904 192.123 151C193.656 149.255 195.656 148.255 198.123 148C200.289 147.921 202.289 147.254 204.123 146C205.959 147.433 207.959 147.933 210.123 147.5C211.237 145.93 212.57 144.597 214.123 143.5C213.79 143.167 213.456 142.833 213.123 142.5C214.64 140.721 215.474 141.221 215.623 144C215.842 142.562 216.342 141.229 217.123 140C218.074 140.826 219.074 140.992 220.123 140.5C222.386 135.052 226.386 132.219 232.123 132Z" fill="#6E513E"/>
<path fill-rule="evenodd" clip-rule="evenodd" d="M70.123 145C70.79 145 71.123 145.333 71.123 146C71.907 151.602 75.24 154.769 81.123 155.5C82.426 158.544 84.759 159.711 88.123 159C88.123 157.333 88.123 155.667 88.123 154C88.79 154 89.456 154 90.123 154C90.123 156.667 90.123 159.333 90.123 162C87.101 161.696 84.101 161.196 81.123 160.5C81.456 160.167 81.79 159.833 82.123 159.5C79.087 155.819 75.087 153.985 70.123 154C70.123 151 70.123 148 70.123 145Z" fill="#668A30"/>
<path fill-rule="evenodd" clip-rule="evenodd" d="M104.123 148C105.759 151.71 106.425 155.71 106.123 160C106.322 163.441 105.822 166.774 104.623 170C101.649 169.703 98.483 169.036 95.123 168C94.436 165.945 93.269 164.279 91.623 163C91.126 160.69 90.96 158.357 91.123 156C95.08 159.335 99.747 160.668 105.123 160C104.461 156.034 104.128 152.034 104.123 148Z" fill="#6BA510"/>
<path fill-rule="evenodd" clip-rule="evenodd" d="M134.123 155C135.576 155.429 137.242 155.596 139.123 155.5C139.996 156.545 140.996 157.378 142.123 158C141.951 158.992 142.285 159.658 143.123 160C143.431 162.424 143.097 164.757 142.123 167C139.876 166.126 137.543 165.792 135.123 166C135.123 165 135.123 164 135.123 163C133.801 162.83 132.634 163.163 131.623 164C131.204 162.828 130.538 161.828 129.623 161C128.184 162.775 127.184 164.775 126.623 167C126.24 166.444 125.74 166.111 125.123 166C125.919 162.944 126.919 159.944 128.123 157C129.334 157.774 129.334 158.607 128.123 159.5C128.79 160.167 129.456 160.167 130.123 159.5C131.003 158.144 131.337 156.644 131.123 155C132.123 155 133.123 155 134.123 155Z" fill="#8FBE2D"/>
<path fill-rule="evenodd" clip-rule="evenodd" d="M124.123 156C124.123 156.667 124.123 157.333 124.123 158C122.781 159.861 121.781 161.861 121.123 164C121.272 162.948 121.106 161.948 120.623 161C118.414 162.873 116.581 165.04 115.123 167.5C112.813 167.997 110.48 168.163 108.123 168C107.79 168 107.456 168 107.123 168C107.123 165.667 107.123 163.333 107.123 161C109.276 162.073 111.276 162.073 113.123 161C116.64 159.076 120.307 157.409 124.123 156Z" fill="#7E5A3E"/>
<path fill-rule="evenodd" clip-rule="evenodd" d="M188.123 152C183.138 155.829 178.138 159.662 173.123 163.5C170.813 163.997 168.48 164.163 166.123 164C166.123 165 166.123 166 166.123 167C162.522 168.134 159.188 169.801 156.123 172C156.123 170.333 156.123 168.667 156.123 167C164.444 162.993 172.444 158.159 180.123 152.5C182.233 151.946 184.233 151.112 186.123 150C187.336 150.247 188.003 150.914 188.123 152Z" fill="#444F55"/>
<path fill-rule="evenodd" clip-rule="evenodd" d="M121.123 164C120.148 166.295 118.815 168.295 117.123 170C114.193 170.799 111.193 171.132 108.123 171C108.123 170 108.123 169 108.123 168C110.48 168.163 112.813 167.997 115.123 167.5C116.581 165.04 118.414 162.873 120.623 161C121.106 161.948 121.272 162.948 121.123 164Z" fill="#5E6665"/>
<path fill-rule="evenodd" clip-rule="evenodd" d="M134.123 154.999C133.123 154.999 132.123 154.999 131.123 154.999C131.337 156.643 131.003 158.143 130.123 159.499C129.456 160.166 128.79 160.166 128.123 159.499C129.334 158.606 129.334 157.773 128.123 156.999C126.919 159.943 125.919 162.943 125.123 165.999C124.401 165.581 123.901 164.915 123.623 163.999C122.666 166.878 123.166 169.378 125.123 171.499C124.175 171.982 123.175 172.148 122.123 171.999C121.472 171.408 120.805 170.742 120.123 169.999C119.001 171.129 117.667 171.796 116.123 171.999C116.456 171.332 116.79 170.666 117.123 169.999C118.815 168.294 120.148 166.294 121.123 163.999C121.781 161.86 122.781 159.86 124.123 157.999C125.633 156.663 127.3 155.496 129.123 154.499C131.01 153.719 132.677 153.886 134.123 154.999Z" fill="#729124"/>
<path fill-rule="evenodd" clip-rule="evenodd" d="M107.123 168C107.456 168 107.79 168 108.123 168C108.123 169 108.123 170 108.123 171C111.193 171.132 114.193 170.799 117.123 170C116.79 170.667 116.456 171.333 116.123 172C115.131 171.828 114.465 172.162 114.123 173C109.692 173.97 107.358 172.303 107.123 168Z" fill="#5E7555"/>
<path fill-rule="evenodd" clip-rule="evenodd" d="M143.123 160C146.672 163.075 150.672 165.409 155.123 167C155.605 170.734 154.272 173.567 151.123 175.5C145.09 177.725 139.423 180.558 134.123 184C131.671 186.474 129.005 188.474 126.123 190C123.779 190.175 122.112 191.342 121.123 193.5C117.971 193.895 114.971 194.728 112.123 196C112.123 194.667 112.123 193.333 112.123 192C116.165 190.138 119.831 187.638 123.123 184.5C129.351 182.053 135.351 179.053 141.123 175.5C135.841 176.005 130.507 176.005 125.123 175.5C123.56 174.741 122.56 173.574 122.123 172C123.175 172.149 124.175 171.983 125.123 171.5C123.166 169.379 122.666 166.879 123.623 164C123.901 164.916 124.401 165.582 125.123 166C125.74 166.111 126.24 166.444 126.623 167C127.184 164.775 128.184 162.775 129.623 161C130.538 161.828 131.204 162.828 131.623 164C132.634 163.163 133.801 162.83 135.123 163C135.123 164 135.123 165 135.123 166C137.543 165.792 139.876 166.126 142.123 167C143.097 164.757 143.431 162.424 143.123 160Z" fill="#739E1C"/>
<path fill-rule="evenodd" clip-rule="evenodd" d="M155.123 167C155.456 167 155.79 167 156.123 167C156.123 168.667 156.123 170.333 156.123 172C155.686 173.574 154.686 174.741 153.123 175.5C153.79 176.167 154.456 176.833 155.123 177.5C149.953 176.782 145.62 178.448 142.123 182.5C139.506 183.322 136.839 183.822 134.123 184C139.423 180.558 145.09 177.725 151.123 175.5C154.272 173.567 155.605 170.734 155.123 167Z" fill="#695D32"/>
<path fill-rule="evenodd" clip-rule="evenodd" d="M19.123 138C22.736 138.986 26.402 139.819 30.123 140.5C36.436 144.64 43.103 148.14 50.123 151C50.095 153.082 50.762 154.916 52.123 156.5C55.64 158.029 59.306 159.029 63.123 159.5C67.641 161.345 71.641 164.011 75.123 167.5C79.444 167.999 83.777 168.166 88.123 168C88.266 169.762 87.932 171.429 87.123 173C88.476 174.024 89.143 175.357 89.123 177C93.419 177.963 97.752 178.129 102.123 177.5C105.88 175.072 109.88 173.572 114.123 173C114.465 172.162 115.131 171.828 116.123 172C117.667 171.797 119.001 171.13 120.123 170C120.805 170.743 121.472 171.409 122.123 172C122.56 173.574 123.56 174.741 125.123 175.5C130.507 176.005 135.841 176.005 141.123 175.5C135.351 179.053 129.351 182.053 123.123 184.5C119.831 187.638 116.165 190.138 112.123 192C108.96 190.254 105.627 188.754 102.123 187.5C74.393 170.974 46.726 154.474 19.123 138Z" fill="#84B22A"/>
<path fill-rule="evenodd" clip-rule="evenodd" d="M0.123047 128C0.790047 128 1.45605 128 2.12305 128C7.29705 132.09 12.964 135.423 19.123 138C46.726 154.474 74.393 170.974 102.123 187.5C105.627 188.754 108.96 190.254 112.123 192C112.123 193.333 112.123 194.667 112.123 196C109.702 195.622 107.369 194.955 105.123 194C96.776 187.994 87.776 183.327 78.123 180C78.342 178.825 78.009 177.825 77.123 177C64.701 169.921 52.034 163.255 39.123 157C38.237 156.175 37.904 155.175 38.123 154C37.071 154.149 36.071 153.983 35.123 153.5C31.35 150.23 27.016 148.063 22.123 147C16.258 142.573 10.258 138.407 4.12305 134.5C2.83005 134.01 1.49605 133.843 0.123047 134C0.123047 132 0.123047 130 0.123047 128Z" fill="#587E09"/>
<path fill-rule="evenodd" clip-rule="evenodd" d="M0.123035 134C1.49604 133.843 2.83004 134.01 4.12304 134.5C10.258 138.407 16.258 142.573 22.123 147C27.016 148.063 31.35 150.23 35.123 153.5C36.071 153.983 37.071 154.149 38.123 154C37.904 155.175 38.237 156.175 39.123 157C52.034 163.255 64.701 169.921 77.123 177C78.009 177.825 78.342 178.825 78.123 180C87.776 183.327 96.776 187.994 105.123 194C105.037 194.996 105.371 195.829 106.123 196.5C108.276 196.599 109.942 197.433 111.123 199C111.123 204 111.123 209 111.123 214C109.79 214 108.456 214 107.123 214C71.807 193.694 36.473 173.361 1.12304 153C0.127035 146.702 -0.206965 140.368 0.123035 134Z" fill="#553823"/>
<path fill-rule="evenodd" clip-rule="evenodd" d="M126.123 190C126.123 191 126.123 192 126.123 193C125.123 193 124.123 193 123.123 193C123.518 196.023 122.518 197.023 120.123 196C119.436 197.774 118.603 199.441 117.623 201C115.834 199.271 113.667 198.604 111.123 199C109.942 197.433 108.276 196.599 106.123 196.5C105.371 195.829 105.037 194.996 105.123 194C107.369 194.955 109.702 195.622 112.123 196C114.971 194.728 117.971 193.895 121.123 193.5C122.112 191.342 123.779 190.175 126.123 190Z" fill="#6A552F"/>
</svg>
