<svg width="234" height="158" viewBox="0 0 234 158" fill="none" xmlns="http://www.w3.org/2000/svg">
<path fill-rule="evenodd" clip-rule="evenodd" d="M129.113 3.99995C131.105 3.82845 132.771 4.49505 134.113 5.99995C134.699 5.79065 135.199 5.45735 135.613 4.99995C136.932 6.98745 138.765 8.15405 141.113 8.49995C142.496 9.77075 143.496 11.2708 144.113 13C138.939 10.2483 133.939 7.24825 129.113 3.99995Z" fill="#F3FADC"/>
<path fill-rule="evenodd" clip-rule="evenodd" d="M94.1133 15C94.3753 16.4778 94.0423 17.8112 93.1133 19C89.5973 21.2531 85.9303 22.92 82.1133 24C79.7223 27.417 76.3887 28.75 72.1133 28C76.1133 25.333 80.1133 22.667 84.1133 20C87.4433 18.3384 90.7773 16.6717 94.1133 15Z" fill="#91B23F"/>
<path fill-rule="evenodd" clip-rule="evenodd" d="M129.113 4.00002C133.939 7.24832 138.939 10.2483 144.113 13C155.981 19.763 167.648 26.763 179.113 34C177.926 36.475 175.926 37.475 173.113 37C173.369 34.708 173.036 32.541 172.113 30.5C171.419 32.131 169.419 32.964 166.113 33C162.565 33.068 159.732 31.735 157.613 29C156.946 30.333 156.28 30.333 155.613 29C156.144 33.248 154.31 35.582 150.113 36C153.176 39.391 156.843 41.891 161.113 43.5C167.772 44.38 174.439 45.214 181.113 46C186.307 47.558 186.307 48.558 181.113 49C179.746 55.628 182.413 58.962 189.113 59C189.046 60.459 189.379 61.792 190.113 63C185.473 60.68 180.806 58.347 176.113 56C174.263 53.928 171.93 52.595 169.113 52C164.314 48.763 159.314 45.763 154.113 43C146.609 38.413 138.942 34.08 131.113 30C131.113 29.667 131.113 29.333 131.113 29C127.496 27.858 124.163 26.192 121.113 24C120.78 24 120.446 24 120.113 24C118.954 22.123 117.287 21.623 115.113 22.5C106.883 27.108 98.8833 31.941 91.1133 37C80.6783 42.386 70.3451 48.053 60.1133 54C61.0431 50.407 63.3765 48.741 67.1133 49C67.2532 47.376 66.5866 46.21 65.1133 45.5C65.6386 44.808 66.3052 44.308 67.1133 44C71.4692 45.992 73.8025 44.659 74.1133 40C75.1133 40 76.1133 40 77.1133 40C77.1133 38 77.1133 36 77.1133 34C71.9543 32.69 71.9543 32.19 77.1133 32.5C78.5413 34.416 79.5413 36.583 80.1133 39C82.7203 38.363 85.0533 37.196 87.1133 35.5C88.7473 35.006 90.4143 34.84 92.1133 35C92.1133 34 92.1133 33 92.1133 32C91.1133 32 90.1133 32 89.1133 32C89.4303 28.928 89.0973 25.928 88.1133 23C86.3753 25.214 84.3753 25.547 82.1133 24C85.9303 22.92 89.5973 21.2531 93.1133 19C94.0423 17.8112 94.3753 16.4778 94.1133 15C102.15 10.4702 110.15 5.63682 118.113 0.500025C119.446 -0.166675 120.78 -0.166675 122.113 0.500025C124.499 1.69323 126.833 2.85992 129.113 4.00002Z" fill="#8AB22F"/>
<path fill-rule="evenodd" clip-rule="evenodd" d="M131.113 29C127.767 25.564 124.267 22.23 120.613 19C119.809 20.3045 118.642 20.9712 117.113 21C114.247 18.4841 110.914 16.8174 107.113 16C108.634 14.2143 108.967 12.381 108.113 10.5C113.063 10.2077 117.896 8.7077 122.613 6C124.092 7.256 125.758 8.256 127.613 9C128.979 8.7935 130.312 8.4602 131.613 8C133.21 9.3847 135.043 10.0514 137.113 10C136.828 11.788 137.161 13.4547 138.113 15C142.243 13.2284 145.577 14.2284 148.113 18C149.107 22.956 149.44 27.956 149.113 33C147.121 32.828 145.455 33.495 144.113 35C142.126 33.173 139.792 32.173 137.113 32C137.113 31 137.113 30 137.113 29C135.113 29 133.113 29 131.113 29Z" fill="#87B72C"/>
<path fill-rule="evenodd" clip-rule="evenodd" d="M121.113 24C124.163 26.192 127.496 27.858 131.113 29C131.113 29.333 131.113 29.667 131.113 30C127.927 29.605 124.927 28.605 122.113 27C121.227 26.175 120.894 25.175 121.113 24Z" fill="#403707"/>
<path fill-rule="evenodd" clip-rule="evenodd" d="M84.1133 20C80.1133 22.667 76.1133 25.333 72.1133 28C65.7747 31.334 59.4414 34.668 53.1133 38C55.7474 35.496 58.414 32.83 61.1133 30C68.9475 26.869 76.6142 23.535 84.1133 20Z" fill="#F6FDE2"/>
<path fill-rule="evenodd" clip-rule="evenodd" d="M120.113 24C120.446 24 120.78 24 121.113 24C120.894 25.175 121.227 26.175 122.113 27C124.927 28.605 127.927 29.605 131.113 30C138.942 34.08 146.609 38.413 154.113 43C154.093 44.643 154.76 45.976 156.113 47C160.412 48.992 164.745 50.658 169.113 52C171.93 52.595 174.263 53.928 176.113 56C176.45 58.172 177.45 60.005 179.113 61.5C178.591 62.45 177.924 63.284 177.113 64C179.379 64.814 181.713 65.314 184.113 65.5C182.215 66.917 180.549 68.417 179.113 70C178.113 70.333 177.446 71 177.113 72C174.534 72.106 172.201 71.439 170.113 70C153.012 59.559 135.679 49.559 118.113 40C117.164 34.76 116.831 29.427 117.113 24C118.113 24 119.113 24 120.113 24Z" fill="#492B17"/>
<path fill-rule="evenodd" clip-rule="evenodd" d="M60.1133 54C59.4466 54.667 58.78 55.333 58.1133 56C56.0481 56.453 54.3815 57.453 53.1133 59C51.3295 59.393 49.6628 60.059 48.1133 61C47.0043 61.057 46.0043 61.39 45.1133 62C42.4466 62.667 39.78 63.333 37.1133 64C37.669 67.693 36.3357 70.36 33.1133 72C34.8293 72.497 36.496 72.831 38.1133 73C38.2824 72.103 38.6157 71.103 39.1133 70C42.0138 71.742 45.0138 73.242 48.1133 74.5C50.8205 75.699 51.4872 77.533 50.1133 80C56.7532 80.049 62.7532 82.216 68.1133 86.5C67.2767 87.511 66.9433 88.678 67.1133 90C69.4701 89.837 71.8035 90.003 74.1133 90.5C74.2778 93.587 75.9444 96.087 79.1133 98C80.2783 97.009 81.4453 96.009 82.6133 95C84.6603 96.109 86.8263 96.776 89.1133 97C94.3473 99.776 99.3473 102.776 104.113 106C105.548 108.748 107.881 110.414 111.113 111C113.023 109.952 114.857 109.952 116.613 111C117.096 110.052 117.262 109.052 117.113 108C118.435 107.83 119.602 108.163 120.613 109C122.1 108.247 122.267 107.414 121.113 106.5C123.759 106.003 126.426 105.836 129.113 106C129.113 105 129.113 104 129.113 103C133.097 103.219 136.931 103.219 140.613 103C140.921 103.808 141.421 104.475 142.113 105C142.78 102.667 143.446 100.333 144.113 98C144.78 98.333 145.446 98.667 146.113 99C148.136 97.327 150.469 96.66 153.113 97C153.39 94.052 153.057 91.219 152.113 88.5C154.424 88.655 156.757 88.655 159.113 88.5C158.285 87.585 157.285 86.919 156.113 86.5C158.809 84.328 161.809 82.828 165.113 82C165.113 81 165.113 80 165.113 79C168.828 76.144 172.828 73.81 177.113 72C177.446 71 178.113 70.333 179.113 70C183.63 68.782 187.297 66.448 190.113 63C189.379 61.792 189.046 60.459 189.113 59C182.413 58.962 179.746 55.628 181.113 49C186.307 48.558 186.307 47.558 181.113 46C174.439 45.214 167.772 44.38 161.113 43.5C156.843 41.891 153.176 39.391 150.113 36C154.31 35.582 156.144 33.248 155.613 29C156.28 30.333 156.946 30.333 157.613 29C159.732 31.735 162.565 33.068 166.113 33C169.419 32.964 171.419 32.131 172.113 30.5C173.036 32.541 173.369 34.708 173.113 37C175.926 37.475 177.926 36.475 179.113 34C196.919 43.737 214.586 53.737 232.113 64C233.087 66.243 233.421 68.576 233.113 71C231.048 71.017 229.048 71.35 227.113 72C228.096 70.209 229.429 68.709 231.113 67.5C224.792 67.994 219.459 70.66 215.113 75.5C207.539 79.454 199.872 83.121 192.113 86.5C190.344 88.557 188.344 90.39 186.113 92C163.349 104.552 140.682 117.385 118.113 130.5C116.79 131.316 116.124 132.483 116.113 134C115.611 135.585 114.611 136.085 113.113 135.5C80.2713 115.325 46.9375 95.992 13.1133 77.5C8.87088 74.89 4.87088 72.057 1.11328 69C2.04958 67.526 3.38298 66.526 5.11328 66C10.3473 63.224 15.3473 60.224 20.1133 57C31.3764 51.058 42.3764 44.725 53.1133 38C59.4414 34.668 65.7747 31.334 72.1133 28C76.3887 28.75 79.7223 27.417 82.1133 24C84.3753 25.547 86.3753 25.214 88.1133 23C89.0973 25.928 89.4303 28.928 89.1133 32C90.1133 32 91.1133 32 92.1133 32C92.1133 33 92.1133 34 92.1133 35C90.4143 34.84 88.7473 35.006 87.1133 35.5C85.0533 37.196 82.7203 38.363 80.1133 39C79.5413 36.583 78.5413 34.416 77.1133 32.5C71.9543 32.19 71.9543 32.69 77.1133 34C77.1133 36 77.1133 38 77.1133 40C76.1133 40 75.1133 40 74.1133 40C73.8025 44.659 71.4692 45.992 67.1133 44C66.3052 44.308 65.6386 44.808 65.1133 45.5C66.5866 46.21 67.2532 47.376 67.1133 49C63.3765 48.741 61.0431 50.407 60.1133 54Z" fill="#86B52A"/>
<path fill-rule="evenodd" clip-rule="evenodd" d="M91.1133 37C86.6473 40.239 82.3143 43.739 78.1133 47.5C75.3057 47.519 72.9724 48.519 71.1133 50.5C72.6501 51.61 73.3168 53.11 73.1133 55C70.9387 54.818 68.9387 54.151 67.1133 53C63.9769 53.823 60.9769 54.823 58.1133 56C58.78 55.333 59.4466 54.667 60.1133 54C70.3451 48.053 80.6783 42.386 91.1133 37Z" fill="#5F4E27"/>
<path fill-rule="evenodd" clip-rule="evenodd" d="M154.113 43C159.314 45.763 164.314 48.763 169.113 52C164.745 50.658 160.412 48.992 156.113 47C154.76 45.976 154.093 44.643 154.113 43Z" fill="#41350A"/>
<path fill-rule="evenodd" clip-rule="evenodd" d="M118.113 40C135.679 49.559 153.012 59.559 170.113 70C168.426 71.418 166.593 72.751 164.613 74C164.123 75.293 163.956 76.627 164.113 78C160.032 79.276 156.699 81.609 154.113 85C153.446 85.333 152.78 85.667 152.113 86C147.369 86.739 142.369 87.905 137.113 89.5C136.233 90.856 135.899 92.356 136.113 94C133.718 93.137 131.384 93.137 129.113 94C130.466 95.024 131.133 96.357 131.113 98C127.999 100.465 124.666 102.465 121.113 104C116.715 105.931 112.048 106.931 107.113 107C106.004 106.943 105.004 106.61 104.113 106C99.3473 102.776 94.3473 99.776 89.1133 97C77.1632 90.203 65.4966 83.203 54.1133 76C61.3727 71.361 68.706 66.695 76.1133 62C80.5843 60.54 84.5843 58.207 88.1133 55C97.8983 49.441 107.898 44.441 118.113 40Z" fill="#7B5D49"/>
<path fill-rule="evenodd" clip-rule="evenodd" d="M120.113 24C119.113 24 118.113 24 117.113 24C116.831 29.427 117.164 34.76 118.113 40C107.898 44.441 97.8983 49.441 88.1133 55C84.5843 58.207 80.5843 60.54 76.1133 62C68.706 66.695 61.3727 71.361 54.1133 76C52.4603 75.84 51.127 75.174 50.1133 74C50.2443 73.261 50.0776 72.594 49.6133 72C42.3462 69.027 42.5129 67.193 50.1133 66.5C50.5795 65.201 50.5795 63.701 50.1133 62C51.1133 62 52.1133 62 53.1133 62C53.1133 61 53.1133 60 53.1133 59C54.3815 57.453 56.0481 56.453 58.1133 56C60.9769 54.823 63.9769 53.823 67.1133 53C68.9387 54.151 70.9387 54.818 73.1133 55C73.3168 53.11 72.6501 51.61 71.1133 50.5C72.9724 48.519 75.3057 47.519 78.1133 47.5C82.3143 43.739 86.6473 40.239 91.1133 37C98.8833 31.941 106.883 27.108 115.113 22.5C117.287 21.623 118.954 22.123 120.113 24Z" fill="#63442F"/>
<path fill-rule="evenodd" clip-rule="evenodd" d="M20.1134 57C15.3474 60.224 10.3474 63.224 5.11337 66C4.94337 64.678 5.27677 63.511 6.11337 62.5C10.7277 60.347 15.3944 58.514 20.1134 57Z" fill="#F4FDE2"/>
<path fill-rule="evenodd" clip-rule="evenodd" d="M176.113 56C180.806 58.347 185.473 60.68 190.113 63C187.297 66.448 183.63 68.782 179.113 70C180.549 68.417 182.215 66.917 184.113 65.5C181.713 65.314 179.379 64.814 177.113 64C177.924 63.284 178.591 62.45 179.113 61.5C177.45 60.005 176.45 58.172 176.113 56Z" fill="#43310E"/>
<path fill-rule="evenodd" clip-rule="evenodd" d="M48.1133 61C46.9054 63.544 44.9054 64.878 42.1133 65C43.3068 64.228 44.3068 63.228 45.1133 62C46.0043 61.39 47.0043 61.057 48.1133 61Z" fill="#61681E"/>
<path fill-rule="evenodd" clip-rule="evenodd" d="M53.1133 59C53.1133 60 53.1133 61 53.1133 62C52.1133 62 51.1133 62 50.1133 62C50.5795 63.701 50.5795 65.201 50.1133 66.5C42.5129 67.193 42.3462 69.027 49.6133 72C50.0776 72.594 50.2443 73.261 50.1133 74C46.0124 72.115 42.0124 69.948 38.1133 67.5C39.0842 66.019 40.4175 65.185 42.1133 65C44.9054 64.878 46.9054 63.544 48.1133 61C49.6628 60.059 51.3295 59.393 53.1133 59Z" fill="#5D4C28"/>
<path fill-rule="evenodd" clip-rule="evenodd" d="M45.1133 62C44.3068 63.228 43.3068 64.228 42.1133 65C40.4175 65.185 39.0842 66.019 38.1133 67.5C42.0124 69.948 46.0124 72.115 50.1133 74C51.127 75.174 52.4603 75.84 54.1133 76C65.4966 83.203 77.1632 90.203 89.1133 97C86.8263 96.776 84.6603 96.109 82.6133 95C81.4453 96.009 80.2783 97.009 79.1133 98C75.9444 96.087 74.2778 93.587 74.1133 90.5C71.8035 90.003 69.4701 89.837 67.1133 90C66.9433 88.678 67.2767 87.511 68.1133 86.5C62.7532 82.216 56.7532 80.049 50.1133 80C51.4872 77.533 50.8205 75.699 48.1133 74.5C45.0138 73.242 42.0138 71.742 39.1133 70C38.6157 71.103 38.2824 72.103 38.1133 73C36.496 72.831 34.8293 72.497 33.1133 72C36.3357 70.36 37.669 67.693 37.1133 64C39.78 63.333 42.4466 62.667 45.1133 62Z" fill="#8BAD33"/>
<path fill-rule="evenodd" clip-rule="evenodd" d="M170.113 70C172.201 71.439 174.534 72.106 177.113 72C172.828 73.81 168.828 76.144 165.113 79C161.881 81.748 158.215 83.748 154.113 85C156.699 81.609 160.032 79.276 164.113 78C163.956 76.627 164.123 75.293 164.613 74C166.593 72.751 168.426 71.418 170.113 70Z" fill="#78623D"/>
<path fill-rule="evenodd" clip-rule="evenodd" d="M219.113 78C216.56 79.387 214.227 81.22 212.113 83.5C210.479 83.994 208.812 84.16 207.113 84C210.863 81.604 214.863 79.604 219.113 78Z" fill="#6C6224"/>
<path fill-rule="evenodd" clip-rule="evenodd" d="M165.113 79C165.113 80 165.113 81 165.113 82C161.809 82.828 158.809 84.328 156.113 86.5C157.285 86.919 158.285 87.585 159.113 88.5C156.757 88.655 154.424 88.655 152.113 88.5C153.057 91.219 153.39 94.052 153.113 97C150.469 96.66 148.136 97.327 146.113 99C145.446 98.667 144.78 98.333 144.113 98C143.446 100.333 142.78 102.667 142.113 105C141.421 104.475 140.921 103.808 140.613 103C136.931 103.219 133.097 103.219 129.113 103C129.113 104 129.113 105 129.113 106C126.426 105.836 123.759 106.003 121.113 106.5C122.267 107.414 122.1 108.247 120.613 109C119.602 108.163 118.435 107.83 117.113 108C117.262 109.052 117.096 110.052 116.613 111C114.857 109.952 113.023 109.952 111.113 111C107.881 110.414 105.548 108.748 104.113 106C105.004 106.61 106.004 106.943 107.113 107C108.109 108.165 109.442 108.832 111.113 109C114.931 108.076 118.265 106.409 121.113 104C124.666 102.465 127.999 100.465 131.113 98C138.311 94.238 145.311 90.238 152.113 86C152.78 85.667 153.446 85.333 154.113 85C158.215 83.748 161.881 81.748 165.113 79Z" fill="#88B02E"/>
<path fill-rule="evenodd" clip-rule="evenodd" d="M152.113 86C145.311 90.238 138.311 94.238 131.113 98C131.133 96.357 130.466 95.024 129.113 94C131.384 93.137 133.718 93.137 136.113 94C135.899 92.356 136.233 90.856 137.113 89.5C142.369 87.905 147.369 86.739 152.113 86Z" fill="#78613D"/>
<path fill-rule="evenodd" clip-rule="evenodd" d="M205.113 85C205.113 86 205.113 87 205.113 88C200.7 88.763 196.7 90.43 193.113 93C196.413 89.433 200.413 86.766 205.113 85Z" fill="#686928"/>
<path fill-rule="evenodd" clip-rule="evenodd" d="M19.1133 85C21.5034 85.413 23.8368 86.079 26.1133 87C30.6312 91.208 35.6312 94.541 41.1133 97C32.624 95.064 25.2907 91.064 19.1133 85Z" fill="#586A12"/>
<path fill-rule="evenodd" clip-rule="evenodd" d="M233.113 71C233.423 77.258 233.089 83.424 232.113 89.5C192.221 112.61 152.221 135.443 112.113 158C112.113 152 112.113 146 112.113 140C109.643 139.846 107.643 138.846 106.113 137C111.274 139.126 115.941 138.126 120.113 134C126.914 131.003 133.247 127.17 139.113 122.5C140.406 122.01 141.74 121.843 143.113 122C146.304 121.408 149.304 120.241 152.113 118.5C152.865 117.829 153.199 116.996 153.113 116C154.486 116.157 155.82 115.99 157.113 115.5C161.275 110.055 166.275 108.889 172.113 112C173.087 109.757 173.421 107.424 173.113 105C175.586 105.412 176.919 104.412 177.113 102C182.384 99.102 187.718 96.102 193.113 93C196.7 90.43 200.7 88.763 205.113 88C205.113 87 205.113 86 205.113 85C206.105 85.172 206.771 84.838 207.113 84C208.812 84.16 210.479 83.994 212.113 83.5C214.227 81.22 216.56 79.387 219.113 78C221.893 76.179 224.559 74.179 227.113 72C229.048 71.35 231.048 71.017 233.113 71Z" fill="#6E523E"/>
<path fill-rule="evenodd" clip-rule="evenodd" d="M227.113 72C224.559 74.179 221.893 76.179 219.113 78C214.863 79.604 210.863 81.604 207.113 84C206.771 84.838 206.105 85.172 205.113 85C200.413 86.766 196.413 89.433 193.113 93C187.718 96.102 182.384 99.102 177.113 102C168.777 106.165 160.777 110.832 153.113 116C149.112 116.996 145.779 118.996 143.113 122C141.74 121.843 140.406 122.01 139.113 122.5C133.247 127.17 126.914 131.003 120.113 134C118.78 134 117.446 134 116.113 134C116.124 132.483 116.79 131.316 118.113 130.5C140.682 117.385 163.349 104.552 186.113 92C188.344 90.39 190.344 88.557 192.113 86.5C199.872 83.121 207.539 79.454 215.113 75.5C219.459 70.66 224.792 67.994 231.113 67.5C229.429 68.709 228.096 70.209 227.113 72Z" fill="#6F9916"/>
<path fill-rule="evenodd" clip-rule="evenodd" d="M177.113 102C176.919 104.412 175.586 105.412 173.113 105C173.421 107.424 173.087 109.757 172.113 112C166.275 108.889 161.275 110.055 157.113 115.5C155.82 115.99 154.486 116.157 153.113 116C160.777 110.832 168.777 106.165 177.113 102Z" fill="#6B5834"/>
<path fill-rule="evenodd" clip-rule="evenodd" d="M121.113 104C118.265 106.409 114.931 108.076 111.113 109C109.442 108.832 108.109 108.165 107.113 107C112.048 106.931 116.715 105.931 121.113 104Z" fill="#756936"/>
<path fill-rule="evenodd" clip-rule="evenodd" d="M1.11338 69C4.87098 72.057 8.87098 74.89 13.1134 77.5C46.9376 95.992 80.2714 115.325 113.113 135.5C114.611 136.085 115.611 135.585 116.113 134C117.446 134 118.78 134 120.113 134C115.941 138.126 111.274 139.126 106.113 137C96.8254 130.384 87.1584 124.217 77.1134 118.5C66.8863 113.382 56.8863 107.716 47.1134 101.5C45.2681 100.372 43.2681 99.872 41.1134 100C41.1134 99 41.1134 98 41.1134 97C35.6313 94.541 30.6313 91.208 26.1134 87C23.8369 86.079 21.5035 85.413 19.1134 85C12.0188 82.556 5.68548 78.889 0.113384 74C-0.171116 72.085 0.162284 70.419 1.11338 69Z" fill="#588009"/>
<path fill-rule="evenodd" clip-rule="evenodd" d="M0.113233 74C5.68533 78.889 12.0186 82.556 19.1132 85C25.2906 91.064 32.6239 95.064 41.1132 97C41.1132 98 41.1132 99 41.1132 100C43.2679 99.872 45.2679 100.372 47.1132 101.5C56.8861 107.716 66.8861 113.382 77.1132 118.5C87.1582 124.217 96.8252 130.384 106.113 137C107.643 138.846 109.643 139.846 112.113 140C112.113 146 112.113 152 112.113 158C74.8422 137.363 37.8422 116.196 1.11323 94.5C0.134433 87.756 -0.198967 80.922 0.113233 74Z" fill="#553924"/>
<path fill-rule="evenodd" clip-rule="evenodd" d="M153.113 116C153.199 116.996 152.865 117.829 152.113 118.5C149.304 120.241 146.304 121.408 143.113 122C145.779 118.996 149.112 116.996 153.113 116Z" fill="#6B5B27"/>
</svg>
