<svg width="234" height="158" viewBox="0 0 234 158" fill="none" xmlns="http://www.w3.org/2000/svg">
<path fill-rule="evenodd" clip-rule="evenodd" d="M112.113 4C101.941 10.2534 91.6075 16.2534 81.1125 22C81.3335 20.7652 82.0005 19.7652 83.1125 19C86.6435 17.4038 89.9765 15.5704 93.1125 13.5C91.2285 13.2837 89.5615 12.617 88.1125 11.5C93.3725 10.0394 98.7055 8.8727 104.113 8C103.964 6.948 104.13 5.948 104.613 5C105.506 6.2112 106.339 6.2112 107.113 5C106.904 4.414 106.57 3.914 106.113 3.5C108.038 3.6349 110.038 3.8016 112.113 4Z" fill="#F8FCE7"/>
<path fill-rule="evenodd" clip-rule="evenodd" d="M140.113 10C142.709 10.7653 145.376 11.0987 148.113 11C147.964 12.052 148.13 13.052 148.613 14C148.946 13.6667 149.28 13.3333 149.613 13C151.866 14.6885 153.699 16.6885 155.113 19C149.846 16.3899 144.846 13.3899 140.113 10Z" fill="#F0FBE0"/>
<path fill-rule="evenodd" clip-rule="evenodd" d="M81.1125 21.9999C81.1125 22.3329 81.1125 22.6669 81.1125 22.9999C78.1125 24.3329 75.1125 25.6669 72.1125 26.9999C74.0655 23.5219 77.0655 21.8549 81.1125 21.9999Z" fill="#F0FAD3"/>
<path fill-rule="evenodd" clip-rule="evenodd" d="M158.113 20.9998C162.333 20.6173 165.333 22.2838 167.113 25.9998C163.944 24.5828 160.944 22.9168 158.113 20.9998Z" fill="#F0F9CF"/>
<path fill-rule="evenodd" clip-rule="evenodd" d="M115.113 18.0004C118.038 17.9602 120.704 18.7936 123.113 20.5004C136.29 28.2064 149.29 36.0394 162.113 44.0004C161.117 43.9144 160.284 44.2484 159.613 45.0004C156.119 43.1484 153.119 41.8154 150.613 41.0004C149.08 41.2734 147.58 41.6064 146.113 42.0004C146.224 41.3834 146.557 40.8834 147.113 40.5004C137.203 34.0614 127.203 28.5614 117.113 24.0004C115.527 24.6484 113.86 25.1484 112.113 25.5004C93.7965 36.9924 75.1305 47.8254 56.1125 58.0004C55.5695 57.9404 55.2365 57.6074 55.1125 57.0004C57.4665 54.6464 59.8005 52.3124 62.1125 50.0004C79.5865 39.0174 97.2535 28.3514 115.113 18.0004Z" fill="#E8F6EC"/>
<path fill-rule="evenodd" clip-rule="evenodd" d="M140.113 10C144.846 13.3899 149.846 16.3899 155.113 19C155.586 20.4063 156.586 21.073 158.113 21C160.944 22.917 163.944 24.583 167.113 26C168.794 27.508 170.794 28.508 173.113 29C177.173 32.03 181.506 34.697 186.113 37C186.113 37.333 186.113 37.667 186.113 38C182.803 37.961 180.137 39.294 178.113 42C176.877 41.254 175.543 40.921 174.113 41C174.476 43.411 173.476 44.911 171.113 45.5C174.27 47.317 177.436 49.15 180.613 51C181.913 49.793 183.413 49.126 185.113 49C184.693 51.174 184.693 53.174 185.113 55C186.264 56.231 187.43 56.231 188.613 55C190.1 55.753 190.267 56.586 189.113 57.5C190.406 57.99 191.74 58.157 193.113 58C193.113 60.333 193.113 62.667 193.113 65C192.113 65 191.113 65 190.113 65C190.113 64.667 190.113 64.333 190.113 64C191.211 62.899 191.378 61.566 190.613 60C187.907 58.05 185.074 56.383 182.113 55C181.78 55 181.446 55 181.113 55C175.191 51.342 169.191 47.676 163.113 44C162.78 44 162.446 44 162.113 44C149.29 36.039 136.29 28.206 123.113 20.5C120.704 18.7932 118.038 17.9598 115.113 18C115.233 16.9138 115.9 16.2472 117.113 16C120.915 17.8998 124.915 19.2332 129.113 20C129.113 18.3333 129.113 16.6667 129.113 15C132.331 15.1509 132.664 15.9842 130.113 17.5C133.144 19.5148 136.477 20.6815 140.113 21C138.826 23.93 139.326 26.263 141.613 28C143.121 25.662 145.288 24.662 148.113 25C152.14 33.028 158.807 37.028 168.113 37C168.113 36 168.113 35 168.113 34C161.554 32.767 161.554 31.433 168.113 30C166.535 29.202 164.869 28.702 163.113 28.5C162.635 24.501 160.635 23.335 157.113 25C155.699 23.876 154.199 22.876 152.613 22C152.194 23.172 151.528 24.172 150.613 25C149.564 23.393 148.064 22.727 146.113 23C146.451 20.4885 146.451 18.1552 146.113 16C141.769 13.5395 137.102 12.5395 132.113 13C131.404 6.0393 128.571 4.706 123.613 9C122.613 8.3333 121.613 7.6667 120.613 7C117.428 9.039 114.094 9.3724 110.613 8C109.31 8.4783 108.144 9.145 107.113 10C98.9605 15.2786 90.2935 19.6119 81.1125 23C81.1125 22.667 81.1125 22.333 81.1125 22C91.6075 16.2534 101.941 10.2534 112.113 4C114.795 2.5782 117.628 1.2449 120.613 0C127.073 3.4794 133.573 6.8128 140.113 10Z" fill="#8BB334"/>
<path fill-rule="evenodd" clip-rule="evenodd" d="M115.113 18.0004C113.212 18.0672 111.379 17.7339 109.613 17.0004C107.753 18.7013 105.586 19.7013 103.113 20.0004C103.192 18.5699 102.859 17.2366 102.113 16.0004C104.18 15.3663 106.013 14.3663 107.613 13.0004C108.083 11.9236 107.916 10.9236 107.113 10.0004C108.144 9.14542 109.31 8.47872 110.613 8.00042C114.094 9.37282 117.428 9.03942 120.613 7.00042C121.613 7.66712 122.613 8.33372 123.613 9.00042C128.571 4.70642 131.404 6.03972 132.113 13.0004C137.102 12.5399 141.769 13.5399 146.113 16.0004C146.451 18.1556 146.451 20.4889 146.113 23.0004C148.064 22.7274 149.564 23.3934 150.613 25.0004C151.528 24.1724 152.194 23.1724 152.613 22.0004C154.199 22.8764 155.699 23.8764 157.113 25.0004C160.635 23.3354 162.635 24.5014 163.113 28.5004C164.869 28.7024 166.535 29.2024 168.113 30.0004C161.554 31.4334 161.554 32.7674 168.113 34.0004C168.113 35.0004 168.113 36.0004 168.113 37.0004C158.807 37.0284 152.14 33.0284 148.113 25.0004C145.288 24.6624 143.121 25.6624 141.613 28.0004C139.326 26.2634 138.826 23.9304 140.113 21.0004C136.477 20.6819 133.144 19.5152 130.113 17.5004C132.664 15.9846 132.331 15.1513 129.113 15.0004C129.113 16.6671 129.113 18.3337 129.113 20.0004C124.915 19.2336 120.915 17.9002 117.113 16.0004C115.9 16.2476 115.233 16.9142 115.113 18.0004Z" fill="#87B627"/>
<path fill-rule="evenodd" clip-rule="evenodd" d="M146.113 42C139.855 44.937 133.855 48.27 128.113 52C124.963 48.921 121.296 46.587 117.113 45C117.113 38 117.113 31 117.113 24C127.203 28.561 137.203 34.061 147.113 40.5C146.557 40.883 146.224 41.383 146.113 42Z" fill="#AEB5B7"/>
<path fill-rule="evenodd" clip-rule="evenodd" d="M173.113 29C178.462 30.015 182.795 32.682 186.113 37C181.506 34.697 177.173 32.03 173.113 29Z" fill="#ECF8D1"/>
<path fill-rule="evenodd" clip-rule="evenodd" d="M195.113 42C198.548 42.944 201.881 44.277 205.113 46C205.78 45.667 206.446 45.333 207.113 45C208.071 47.284 209.405 49.284 211.113 51C205.48 48.517 200.147 45.517 195.113 42Z" fill="#F0FBDE"/>
<path fill-rule="evenodd" clip-rule="evenodd" d="M117.113 24C117.113 31 117.113 38 117.113 45C101.303 54.408 85.3025 63.574 69.1125 72.5C68.3605 73.171 68.0265 74.004 68.1125 75C61.6385 71.261 55.3055 67.261 49.1125 63C50.4645 61.976 51.7975 60.976 53.1125 60C54.3225 59.568 55.3225 58.901 56.1125 58C75.1305 47.825 93.7965 36.992 112.113 25.5C113.86 25.148 115.527 24.648 117.113 24Z" fill="#C6CED0"/>
<path fill-rule="evenodd" clip-rule="evenodd" d="M43.1125 45C40.6245 46.755 38.2905 48.755 36.1125 51C31.6365 51.881 27.6365 53.548 24.1125 56C25.7065 54.517 27.3725 53.017 29.1125 51.5C33.8865 49.559 38.5525 47.392 43.1125 45Z" fill="#98B555"/>
<path fill-rule="evenodd" clip-rule="evenodd" d="M163.113 44C169.191 47.676 175.191 51.342 181.113 55C176.382 52.582 171.549 50.249 166.613 48C164.864 47.09 163.697 45.757 163.113 44Z" fill="#E2F8D2"/>
<path fill-rule="evenodd" clip-rule="evenodd" d="M107.113 10C107.916 10.9232 108.083 11.9232 107.613 13C106.013 14.3659 104.18 15.3659 102.113 16C102.859 17.2362 103.192 18.5695 103.113 20C105.586 19.7009 107.753 18.7009 109.613 17C111.379 17.7335 113.212 18.0668 115.113 18C97.2535 28.351 79.5865 39.017 62.1125 50C54.1075 54.335 46.1075 58.669 38.1125 63C35.4625 64.325 32.7965 65.658 30.1125 67C32.1775 68.357 34.1775 69.69 36.1125 71C33.3245 71.368 30.6585 71.868 28.1125 72.5C26.8535 71.577 25.5205 70.743 24.1125 70C26.5905 68.064 26.5905 66.064 24.1125 64C20.6575 62.267 17.1575 61.934 13.6125 63C12.9735 65.612 11.8065 67.946 10.1125 70C8.89355 69.237 7.89355 68.237 7.11255 67C4.99455 68.446 2.66155 69.113 0.112549 69C8.07355 64.685 16.0735 60.351 24.1125 56C27.6365 53.548 31.6365 51.881 36.1125 51C38.2905 48.755 40.6245 46.755 43.1125 45C52.7795 39 62.4455 33 72.1125 27C75.1125 25.667 78.1125 24.333 81.1125 23C90.2935 19.6119 98.9605 15.2786 107.113 10Z" fill="#89B42F"/>
<path fill-rule="evenodd" clip-rule="evenodd" d="M62.1126 50C59.8006 52.312 57.4666 54.646 55.1126 57C55.2366 57.607 55.5696 57.94 56.1126 58C55.3226 58.901 54.3226 59.568 53.1126 60C51.2896 59.273 49.4556 58.939 47.6126 59C45.2156 60.91 42.7156 62.577 40.1126 64C38.9266 65.205 38.9266 66.539 40.1126 68C38.3566 66.948 37.6896 65.281 38.1126 63C46.1076 58.669 54.1076 54.335 62.1126 50Z" fill="#DEF1DC"/>
<path fill-rule="evenodd" clip-rule="evenodd" d="M182.113 55C185.074 56.383 187.907 58.05 190.613 60C191.378 61.566 191.211 62.899 190.113 64C188.974 60.698 186.64 58.532 183.113 57.5C182.361 56.829 182.027 55.996 182.113 55Z" fill="#E1F3CD"/>
<path fill-rule="evenodd" clip-rule="evenodd" d="M117.113 45C121.296 46.587 124.963 48.921 128.113 52C111.5 61.44 94.9996 71.106 78.6126 81C75.2246 78.772 71.7246 76.772 68.1126 75C68.0266 74.004 68.3606 73.171 69.1126 72.5C85.3026 63.574 101.303 54.408 117.113 45Z" fill="#795F4F"/>
<path fill-rule="evenodd" clip-rule="evenodd" d="M162.113 44C162.446 44 162.78 44 163.113 44C163.697 45.757 164.864 47.09 166.613 48C171.549 50.249 176.382 52.582 181.113 55C181.446 55 181.78 55 182.113 55C182.027 55.996 182.361 56.829 183.113 57.5C186.64 58.532 188.974 60.698 190.113 64C186.203 63.763 182.536 64.596 179.113 66.5C176.104 68.337 173.104 70.17 170.113 72C168.76 73.024 168.093 74.357 168.113 76C163.129 76.954 158.129 78.954 153.113 82C152.184 83.189 151.851 84.522 152.113 86C148.161 85.762 144.828 87.096 142.113 90C140.399 88.891 139.732 89.558 140.113 92C138.351 92.143 136.684 91.809 135.113 91C134.034 93.043 132.367 94.376 130.113 95C129.051 96.522 128.384 98.188 128.113 100C125.376 99.901 122.709 100.235 120.113 101C116.932 102.869 113.598 104.036 110.113 104.5C86.5845 91.239 63.2515 77.739 40.1125 64C42.7155 62.577 45.2155 60.91 47.6125 59C49.4555 58.939 51.2895 59.273 53.1125 60C51.7975 60.976 50.4645 61.976 49.1125 63C55.3055 67.261 61.6385 71.261 68.1125 75C71.7245 76.772 75.2245 78.772 78.6125 81C94.9995 71.106 111.5 61.44 128.113 52C133.855 48.27 139.855 44.937 146.113 42C147.58 41.606 149.08 41.273 150.613 41C153.119 41.815 156.119 43.148 159.613 45C160.284 44.248 161.117 43.914 162.113 44Z" fill="#ECF2F2"/>
<path fill-rule="evenodd" clip-rule="evenodd" d="M152.113 44C162.298 48.463 171.964 53.963 181.113 60.5C174.784 63.998 168.451 67.498 162.113 71C159.064 68.637 155.731 66.637 152.113 65C152.113 58 152.113 51 152.113 44Z" fill="#AEB7B8"/>
<path fill-rule="evenodd" clip-rule="evenodd" d="M152.113 44C152.113 51 152.113 58 152.113 65C148.863 67.112 145.863 69.445 143.113 72C136.817 68.182 130.483 64.348 124.113 60.5C133.337 54.725 142.67 49.225 152.113 44Z" fill="#C7CFD2"/>
<path fill-rule="evenodd" clip-rule="evenodd" d="M186.113 37.9999C189.113 39.3329 192.113 40.6669 195.113 41.9999C200.147 45.5169 205.48 48.5169 211.113 50.9999C217.955 55.5879 224.955 59.9209 232.113 63.9999C231.209 64.7089 230.876 65.7089 231.113 66.9999C225.37 69.2219 219.703 71.7219 214.113 74.4999C180.495 95.1369 146.495 114.97 112.113 134C74.9945 112.198 37.6605 90.8639 0.112549 69.9999C0.112549 69.6669 0.112549 69.3329 0.112549 68.9999C2.66155 69.1129 4.99455 68.4459 7.11255 66.9999C7.89355 68.2369 8.89355 69.2369 10.1125 69.9999C11.8065 67.9459 12.9735 65.6119 13.6125 62.9999C17.1575 61.9339 20.6575 62.2669 24.1125 63.9999C26.5905 66.0639 26.5905 68.0639 24.1125 69.9999C25.5205 70.7429 26.8535 71.5769 28.1125 72.4999C30.6585 71.8679 33.3245 71.3679 36.1125 70.9999C45.0915 76.7029 54.4245 81.8699 64.1125 86.4999C66.8655 90.2099 70.5325 92.3769 75.1125 92.9999C76.7155 96.2399 79.3815 97.7399 83.1125 97.4999C89.8955 101.965 96.8955 105.965 104.113 109.5C106 110.28 107.667 110.113 109.113 109C116.113 107.333 122.446 104.333 128.113 99.9999C134.951 96.0809 141.951 92.4139 149.113 88.9999C151.073 88.3619 152.906 88.3619 154.613 88.9999C156.947 86.0809 159.78 85.0809 163.113 85.9999C163.843 84.1589 164.51 82.3249 165.113 80.4999C166.446 79.8329 167.78 79.8329 169.113 80.4999C168.089 81.8669 168.589 82.6999 170.613 82.9999C174.764 81.3609 176.597 78.3609 176.113 73.9999C180.478 72.0059 185.144 70.8399 190.113 70.4999C188.066 68.8999 188.066 67.0669 190.113 64.9999C191.113 64.9999 192.113 64.9999 193.113 64.9999C193.113 62.6669 193.113 60.3329 193.113 57.9999C191.74 58.1569 190.406 57.9899 189.113 57.4999C190.267 56.5859 190.1 55.7529 188.613 54.9999C187.43 56.2309 186.264 56.2309 185.113 54.9999C184.693 53.1739 184.693 51.1739 185.113 48.9999C183.413 49.1259 181.913 49.7929 180.613 50.9999C177.436 49.1499 174.27 47.3169 171.113 45.4999C173.476 44.9109 174.476 43.4109 174.113 40.9999C175.543 40.9209 176.877 41.2539 178.113 41.9999C180.137 39.2939 182.803 37.9609 186.113 37.9999Z" fill="#86B429"/>
<path fill-rule="evenodd" clip-rule="evenodd" d="M40.1126 64C63.2516 77.739 86.5846 91.239 110.113 104.5C113.598 104.036 116.932 102.869 120.113 101C120.113 102 120.113 103 120.113 104C118.414 103.84 116.747 104.006 115.113 104.5C115.446 104.833 115.78 105.167 116.113 105.5C114.484 106.085 112.984 106.919 111.613 108C110.475 107.511 109.308 107.178 108.113 107C104.353 106.087 101.02 104.42 98.1126 102C92.1476 98.682 86.1476 95.349 80.1126 92C66.4936 84.361 53.1606 76.361 40.1126 68C38.9266 66.539 38.9266 65.205 40.1126 64Z" fill="#B7C7BD"/>
<path fill-rule="evenodd" clip-rule="evenodd" d="M117.113 86C121.108 86.501 124.775 87.834 128.113 90C122.844 93.308 117.511 96.642 112.113 100C109.247 98.068 106.247 96.401 103.113 95C107.219 91.246 111.886 88.246 117.113 86Z" fill="#78614E"/>
<path fill-rule="evenodd" clip-rule="evenodd" d="M38.1125 63C37.6895 65.281 38.3565 66.948 40.1125 68C53.1605 76.361 66.4935 84.361 80.1125 92C84.8035 97.286 90.8035 100.62 98.1125 102C101.02 104.42 104.353 106.087 108.113 107C108.446 107.667 108.78 108.333 109.113 109C107.667 110.113 106 110.28 104.113 109.5C96.8955 105.965 89.8955 101.965 83.1125 97.5C79.3815 97.74 76.7155 96.24 75.1125 93C70.5325 92.377 66.8655 90.21 64.1125 86.5C54.4245 81.87 45.0915 76.703 36.1125 71C34.1775 69.69 32.1775 68.357 30.1125 67C32.7965 65.658 35.4625 64.325 38.1125 63Z" fill="#759B25"/>
<path fill-rule="evenodd" clip-rule="evenodd" d="M190.113 65C188.066 67.067 188.066 68.9 190.113 70.5C185.144 70.84 180.478 72.006 176.113 74C176.597 78.361 174.764 81.361 170.613 83C168.589 82.7 168.089 81.867 169.113 80.5C167.78 79.833 166.446 79.833 165.113 80.5C164.51 82.325 163.843 84.159 163.113 86C159.78 85.081 156.947 86.081 154.613 89C152.906 88.362 151.073 88.362 149.113 89C150.307 88.228 151.307 87.228 152.113 86C164.743 79.016 177.41 72.016 190.113 65Z" fill="#8DB43A"/>
<path fill-rule="evenodd" clip-rule="evenodd" d="M118.113 64C127.875 68.381 137.208 73.548 146.113 79.5C140.222 83.276 134.222 86.776 128.113 90C124.775 87.834 121.108 86.501 117.113 86C117.531 85.278 118.197 84.778 119.113 84.5C118.134 77.756 117.801 70.922 118.113 64Z" fill="#AEB5B6"/>
<path fill-rule="evenodd" clip-rule="evenodd" d="M190.113 64.0003C190.113 64.3333 190.113 64.6673 190.113 65.0003C177.41 72.0163 164.743 79.0163 152.113 86.0003C151.851 84.5223 152.184 83.1893 153.113 82.0003C158.129 78.9543 163.129 76.9543 168.113 76.0003C168.093 74.3573 168.76 73.0243 170.113 72.0003C173.104 70.1703 176.104 68.3373 179.113 66.5003C182.536 64.5963 186.203 63.7633 190.113 64.0003Z" fill="#CFDFD0"/>
<path fill-rule="evenodd" clip-rule="evenodd" d="M152.113 65C155.731 66.637 159.064 68.637 162.113 71C158.535 72.575 155.202 74.575 152.113 77C149.247 75.068 146.247 73.401 143.113 72C145.863 69.445 148.863 67.112 152.113 65Z" fill="#7C6254"/>
<path fill-rule="evenodd" clip-rule="evenodd" d="M118.113 64C117.801 70.922 118.134 77.756 119.113 84.5C118.197 84.778 117.531 85.278 117.113 86C111.886 88.246 107.219 91.246 103.113 95C96.8065 91.178 90.4735 87.345 84.1125 83.5C95.0435 76.204 106.378 69.704 118.113 64Z" fill="#C6CED1"/>
<path fill-rule="evenodd" clip-rule="evenodd" d="M152.113 85.9997C151.307 87.2277 150.307 88.2277 149.113 88.9997C141.951 92.4137 134.951 96.0807 128.113 99.9997C128.384 98.1877 129.051 96.5217 130.113 94.9997C132.367 94.3757 134.034 93.0427 135.113 90.9997C136.684 91.8087 138.351 92.1427 140.113 91.9997C139.732 89.5577 140.399 88.8907 142.113 89.9997C144.828 87.0957 148.161 85.7617 152.113 85.9997Z" fill="#CDDFD0"/>
<path fill-rule="evenodd" clip-rule="evenodd" d="M80.1125 92C86.1475 95.349 92.1475 98.682 98.1125 102C90.8035 100.62 84.8035 97.286 80.1125 92Z" fill="#7A993F"/>
<path fill-rule="evenodd" clip-rule="evenodd" d="M128.113 100C122.446 104.333 116.113 107.333 109.113 109C108.78 108.333 108.446 107.667 108.113 107C109.308 107.178 110.475 107.511 111.613 108C112.984 106.919 114.484 106.085 116.113 105.5C115.78 105.167 115.446 104.833 115.113 104.5C116.747 104.006 118.414 103.84 120.113 104C120.113 103 120.113 102 120.113 101C122.709 100.235 125.376 99.9014 128.113 100Z" fill="#C8DBC1"/>
<path fill-rule="evenodd" clip-rule="evenodd" d="M233.113 71C233.423 77.258 233.089 83.424 232.113 89.5C192.238 112.602 152.238 135.436 112.113 158C111.197 157.957 110.53 157.624 110.113 157C111.521 151.14 112.854 145.14 114.113 139C119.52 137.139 124.853 134.972 130.113 132.5C128.872 131.013 129.372 130.18 131.613 130C135.153 129.537 138.653 128.87 142.113 128C140.535 127.202 138.869 126.702 137.113 126.5C138.323 125.461 139.323 124.294 140.113 123C143.83 120.475 147.83 118.475 152.113 117C158.766 115.283 165.1 112.95 171.113 110C170.979 108.208 171.312 106.542 172.113 105C186.268 95.863 200.934 87.53 216.113 80C220.869 75.236 226.535 72.236 233.113 71Z" fill="#6E513E"/>
<path fill-rule="evenodd" clip-rule="evenodd" d="M0.112549 70C37.6605 90.864 74.9945 112.198 112.113 134C112.113 135 112.113 136 112.113 137C113.113 137 114.113 137 115.113 137C114.404 137.904 113.404 138.237 112.113 138C106.377 136.024 101.044 133.191 96.1125 129.5C84.3035 123.429 72.6365 117.095 61.1125 110.5C55.0895 105.666 48.4235 101.832 41.1125 99C36.1085 96.402 31.4415 93.235 27.1125 89.5C17.8005 85.128 8.80055 80.295 0.112549 75C0.112549 73.333 0.112549 71.667 0.112549 70Z" fill="#587E08"/>
<path fill-rule="evenodd" clip-rule="evenodd" d="M172.113 105C171.312 106.542 170.979 108.208 171.113 110C165.1 112.95 158.766 115.283 152.113 117C155.317 114.493 158.65 111.993 162.113 109.5C165.373 107.716 168.706 106.216 172.113 105Z" fill="#695A30"/>
<path fill-rule="evenodd" clip-rule="evenodd" d="M232.113 64C233.081 66.107 233.415 68.441 233.113 71C226.535 72.236 220.869 75.236 216.113 80C200.934 87.53 186.268 95.863 172.113 105C168.706 106.216 165.373 107.716 162.113 109.5C158.65 111.993 155.317 114.493 152.113 117C147.83 118.475 143.83 120.475 140.113 123C131.817 127.606 123.483 132.272 115.113 137C114.113 137 113.113 137 112.113 137C112.113 136 112.113 135 112.113 134C146.495 114.97 180.495 95.137 214.113 74.5C219.703 71.722 225.37 69.222 231.113 67C230.876 65.709 231.209 64.709 232.113 64Z" fill="#6E9818"/>
<path fill-rule="evenodd" clip-rule="evenodd" d="M0.112627 75C8.80063 80.295 17.8006 85.128 27.1126 89.5C31.4416 93.235 36.1086 96.402 41.1126 99C48.4236 101.832 55.0896 105.666 61.1126 110.5C72.6366 117.095 84.3036 123.429 96.1126 129.5C101.044 133.191 106.377 136.024 112.113 138C112.455 138.838 113.121 139.172 114.113 139C112.854 145.14 111.521 151.14 110.113 157C73.8336 136.19 37.5006 115.357 1.11263 94.5C0.134627 88.09 -0.198373 81.59 0.112627 75Z" fill="#553923"/>
<path fill-rule="evenodd" clip-rule="evenodd" d="M140.113 123C139.323 124.294 138.323 125.461 137.113 126.5C138.869 126.702 140.535 127.202 142.113 128C138.653 128.87 135.153 129.537 131.613 130C129.372 130.18 128.872 131.013 130.113 132.5C124.853 134.972 119.52 137.139 114.113 139C113.121 139.172 112.455 138.838 112.113 138C113.404 138.237 114.404 137.904 115.113 137C123.483 132.272 131.817 127.606 140.113 123Z" fill="#695A31"/>
</svg>
