<svg width="235" height="216" viewBox="0 0 235 216" fill="none" xmlns="http://www.w3.org/2000/svg">
<path fill-rule="evenodd" clip-rule="evenodd" d="M161 15.9531C158.074 17.9461 155.074 19.9461 152 21.9531C149.433 18.2611 147.433 14.2611 146 9.95312C148.365 7.59313 151.032 5.59312 154 3.95312C156.393 7.99013 158.726 11.9901 161 15.9531Z" fill="#FDF8F1"/>
<path fill-rule="evenodd" clip-rule="evenodd" d="M154 0.953125C155.574 1.39013 156.741 2.39013 157.5 3.95312C167.297 21.8851 176.797 39.8851 186 57.9531C185 57.9531 184 57.9531 183 57.9531C183.271 56.0731 182.604 54.7401 181 53.9531C178.92 49.4571 176.586 45.1241 174 40.9531C173.667 40.2861 173.333 39.6201 173 38.9531C171.571 35.7571 169.905 32.7571 168 29.9531C167.508 27.6341 166.508 25.6341 165 23.9531C164.767 22.3911 164.1 21.0581 163 19.9531C163.343 17.9701 162.676 16.6361 161 15.9531C158.726 11.9901 156.393 7.99013 154 3.95312C151.032 5.59312 148.365 7.59313 146 9.95312C144.019 9.34812 143.685 8.34812 145 6.95312C147.857 4.69513 150.857 2.69512 154 0.953125Z" fill="#BE9B5F"/>
<path fill-rule="evenodd" clip-rule="evenodd" d="M141 7.95312C144.558 13.2701 147.558 18.9371 150 24.9531C149.109 24.3431 148.109 24.0101 147 23.9531C145.358 20.3321 143.358 16.9991 141 13.9531C138.008 15.6241 135.341 17.6241 133 19.9531C130.841 18.6681 130.174 17.0011 131 14.9531C134.333 12.6201 137.667 10.2861 141 7.95312Z" fill="#BD9558"/>
<path fill-rule="evenodd" clip-rule="evenodd" d="M147 23.9531C144.342 25.9481 141.675 27.9481 139 29.9531C135.552 27.5961 133.552 24.2631 133 19.9531C135.341 17.6241 138.008 15.6241 141 13.9531C143.358 16.9991 145.358 20.3321 147 23.9531Z" fill="#FDFAF1"/>
<path fill-rule="evenodd" clip-rule="evenodd" d="M154 0.952879C154.751 -0.120121 155.751 -0.287121 157 0.452879C168.339 18.6299 178.506 37.4639 187.5 56.9529C189.584 60.7889 191.917 64.4559 194.5 67.9529C195.289 70.1649 195.122 72.1649 194 73.9529C191.905 68.4299 189.238 63.0959 186 57.9529C176.797 39.8849 167.297 21.8849 157.5 3.95288C156.741 2.38988 155.574 1.38988 154 0.952879Z" fill="#EFCD99"/>
<path fill-rule="evenodd" clip-rule="evenodd" d="M165 23.9531C166.508 25.6341 167.508 27.6341 168 29.9531C165.754 33.1171 164.42 36.7831 164 40.9531C163.02 39.4721 161.853 38.1381 160.5 36.9531C159.388 32.9071 157.888 29.0741 156 25.4531C157.229 23.9241 158.729 22.7571 160.5 21.9531C161.61 23.4901 163.11 24.1561 165 23.9531Z" fill="#FEFAFB"/>
<path fill-rule="evenodd" clip-rule="evenodd" d="M163 19.9535C164.1 21.0585 164.767 22.3915 165 23.9535C163.11 24.1565 161.61 23.4905 160.5 21.9535C158.729 22.7575 157.229 23.9245 156 25.4535C157.888 29.0745 159.388 32.9075 160.5 36.9535C161.853 38.1385 163.02 39.4725 164 40.9535C164.42 36.7835 165.754 33.1175 168 29.9535C169.905 32.7575 171.571 35.7575 173 38.9535C170.04 40.2125 167.04 41.5455 164 42.9535C162.041 41.7055 160.541 40.0385 159.5 37.9535C157.881 33.3825 155.715 29.0495 153 24.9535C155.166 22.9605 157.499 21.1265 160 19.4535C161.077 18.9835 162.077 19.1505 163 19.9535Z" fill="#FDFAE8"/>
<path fill-rule="evenodd" clip-rule="evenodd" d="M133 31.9531C132.634 33.1481 131.801 33.8141 130.5 33.9531C127.573 32.3741 124.74 30.7071 122 28.9531C123.67 26.4511 125.836 24.4511 128.5 22.9531C130.538 25.6961 132.038 28.6961 133 31.9531Z" fill="#FDF5E3"/>
<path fill-rule="evenodd" clip-rule="evenodd" d="M147 23.9531C148.109 24.0101 149.109 24.3431 150 24.9531C149.39 25.8441 149.057 26.8441 149 27.9531C144.39 27.7451 141.39 29.7451 140 33.9531C139.066 32.8851 138.732 31.5521 139 29.9531C141.675 27.9481 144.342 25.9481 147 23.9531Z" fill="#EBD8AC"/>
<path fill-rule="evenodd" clip-rule="evenodd" d="M127 15.9531C130.491 20.9271 133.491 26.2611 136 31.9531C135 31.9531 134 31.9531 133 31.9531C132.038 28.6961 130.538 25.6961 128.5 22.9531C125.836 24.4511 123.67 26.4511 122 28.9531C121.562 28.8881 121.228 29.0541 121 29.4531C123.372 31.2971 125.706 33.1311 128 34.9531C125.018 35.9741 122.684 34.9741 121 31.9531C119.27 29.0831 117.936 26.0831 117 22.9531C120.333 20.6201 123.667 18.2861 127 15.9531Z" fill="#BC9251"/>
<path fill-rule="evenodd" clip-rule="evenodd" d="M111 24.9531C108.333 27.2861 105.667 29.6201 103 31.9531C102.333 31.9531 101.667 31.9531 101 31.9531C98.553 32.0681 96.553 33.0681 95 34.9531C95.236 32.4801 96.569 30.8131 99 29.9531C103.356 28.7641 107.356 27.0971 111 24.9531Z" fill="#FAF5DC"/>
<path fill-rule="evenodd" clip-rule="evenodd" d="M127 15.9528C128.068 15.0188 129.401 14.6848 131 14.9528C130.174 17.0008 130.841 18.6678 133 19.9528C133.552 24.2628 135.552 27.5958 139 29.9528C138.732 31.5518 139.066 32.8848 140 33.9528C141.038 36.9228 142.538 39.5898 144.5 41.9528C148.74 43.1418 152.574 45.1418 156 47.9528C157.419 47.4478 158.085 46.4478 158 44.9528C160.277 45.3158 160.944 46.3158 160 47.9528C164.338 53.9368 163.671 54.9368 158 50.9528C154.751 49.4338 151.418 47.7668 148 45.9528C147.667 46.2858 147.333 46.6198 147 46.9528C148.459 49.0358 149.792 51.2028 151 53.4528C150.052 53.9358 149.052 54.1018 148 53.9528C144.365 46.3448 140.365 39.0108 136 31.9528C133.491 26.2608 130.491 20.9268 127 15.9528Z" fill="#F1CA8F"/>
<path fill-rule="evenodd" clip-rule="evenodd" d="M141 7.95279C142.068 7.01878 143.401 6.68479 145 6.95279C143.685 8.34779 144.019 9.34778 146 9.95279C147.433 14.2608 149.433 18.2608 152 21.9528C155.074 19.9458 158.074 17.9458 161 15.9528C162.676 16.6358 163.343 17.9698 163 19.9528C162.077 19.1498 161.077 18.9828 160 19.4528C157.499 21.1258 155.166 22.9598 153 24.9528C155.715 29.0488 157.881 33.3818 159.5 37.9528C160.541 40.0378 162.041 41.7048 164 42.9528C167.04 41.5448 170.04 40.2118 173 38.9528C173.333 39.6198 173.667 40.2858 174 40.9528C171.034 41.8508 168.2 43.1838 165.5 44.9528C165.116 46.6498 165.282 48.3158 166 49.9528C165.333 49.9528 164.667 49.9528 164 49.9528C159.571 41.4228 154.905 33.0898 150 24.9528C147.558 18.9368 144.558 13.2698 141 7.95279Z" fill="#EDCE9B"/>
<path fill-rule="evenodd" clip-rule="evenodd" d="M149 27.9532C152.251 33.4542 155.251 39.1202 158 44.9532C158.085 46.4482 157.419 47.4482 156 47.9532C152.574 45.1422 148.74 43.1422 144.5 41.9532C142.538 39.5902 141.038 36.9232 140 33.9532C141.39 29.7452 144.39 27.7452 149 27.9532Z" fill="#FCFBEF"/>
<path fill-rule="evenodd" clip-rule="evenodd" d="M114 23.9531C116.858 29.1941 119.524 34.5271 122 39.9531C120.653 40.6241 119.486 40.6241 118.5 39.9531C117.889 36.7321 116.722 33.7321 115 30.9531C112.591 32.1541 110.591 33.8201 109 35.9531C111.37 38.2391 114.036 40.0731 117 41.4531C116.5 41.9531 116 42.4531 115.5 42.9531C109.506 41.2291 105.339 37.5621 103 31.9531C105.667 29.6201 108.333 27.2861 111 24.9531C111.891 24.3431 112.891 24.0101 114 23.9531Z" fill="#BF8E4E"/>
<path fill-rule="evenodd" clip-rule="evenodd" d="M101 31.9531C107.876 44.3721 114.209 57.0391 120 69.9531C119.333 69.9531 118.667 69.9531 118 69.9531C115.423 65.8011 113.089 61.4681 111 56.9531C108.332 55.9401 106.332 54.2741 105 51.9531C106.16 51.1881 107.16 50.1881 108 48.9531C105.719 48.1761 103.552 47.1761 101.5 45.9531C101.373 44.6761 101.873 43.5101 103 42.4531C102.72 41.0581 102.053 39.8911 101 38.9531C98.96 40.6301 96.96 42.2971 95 43.9531C97.667 45.9531 100.333 47.9531 103 49.9531C101.849 51.1841 100.683 51.1841 99.5 49.9531C99.017 50.9011 98.851 51.9011 99 52.9531C97.667 52.9531 96.333 52.9531 95 52.9531C95.162 50.9261 94.995 48.9261 94.5 46.9531C92.187 44.9911 90.353 42.6581 89 39.9531C89 39.6201 89 39.2861 89 38.9531C91.295 37.9781 93.295 36.6451 95 34.9531C96.553 33.0681 98.553 32.0681 101 31.9531Z" fill="#C59353"/>
<path fill-rule="evenodd" clip-rule="evenodd" d="M89 38.9535C89 39.2865 89 39.6205 89 39.9535C88.333 39.9535 87.667 39.9535 87 39.9535C85.578 40.1625 84.245 40.6625 83 41.4535C80.138 43.1885 77.804 45.3555 76 47.9535C75 47.9535 74 47.9535 73 47.9535C71.438 48.1865 70.105 48.8535 69 49.9535C68.914 48.9575 69.248 48.1245 70 47.4535C73.604 46.1475 76.937 44.4815 80 42.4535C82.233 39.5465 85.233 38.3795 89 38.9535Z" fill="#F8EED6"/>
<path fill-rule="evenodd" clip-rule="evenodd" d="M174 40.9531C176.586 45.1241 178.92 49.4571 181 53.9531C182.036 55.8441 182.036 57.6771 181 59.4531C178.669 59.2961 176.336 58.7961 174 57.9531C172.948 58.1021 171.948 57.9361 171 57.4531C169.186 54.9741 167.519 52.4741 166 49.9531C165.282 48.3161 165.116 46.6501 165.5 44.9531C168.2 43.1841 171.034 41.8511 174 40.9531Z" fill="#FDFBF5"/>
<path fill-rule="evenodd" clip-rule="evenodd" d="M87 39.9531C88.996 45.4231 91.663 50.5891 95 55.4531C93.556 56.2341 92.223 56.0671 91 54.9531C89.782 46.2811 86.782 45.2811 82 51.9531C84.628 53.9411 87.295 55.9411 90 57.9531C87.592 58.9061 85.425 60.2401 83.5 61.9531C81.745 59.7181 81.078 57.3851 81.5 54.9531C78.24 53.7771 76.407 51.4441 76 47.9531C77.804 45.3551 80.138 43.1881 83 41.4531C84.245 40.6621 85.578 40.1621 87 39.9531Z" fill="#C29352"/>
<path fill-rule="evenodd" clip-rule="evenodd" d="M136 31.9531C140.365 39.0111 144.365 46.3451 148 53.9531C146.57 53.8741 145.236 54.2071 144 54.9531C139 52.1201 134 49.2861 129 46.4531C127.667 44.4531 126.333 42.4531 125 40.4531C130.682 42.5461 136.182 45.3801 141.5 48.9531C141.815 47.5451 141.482 46.2121 140.5 44.9531C137.088 42.3301 133.588 39.8301 130 37.4531C130.5 36.9531 131 36.4531 131.5 35.9531C133.086 36.8291 134.586 37.8291 136 38.9531C135.702 36.6551 135.702 34.3221 136 31.9531Z" fill="#C78B4F"/>
<path fill-rule="evenodd" clip-rule="evenodd" d="M150 24.9531C154.905 33.0901 159.571 41.4231 164 49.9531C168.05 57.1061 171.716 64.4391 175 71.9531C173.383 71.4151 171.716 71.0821 170 70.9531C169.797 69.0631 170.463 67.5631 172 66.4531C170.068 66.3151 168.234 66.8151 166.5 67.9531C162.664 65.3671 158.664 63.0341 154.5 60.9531C153.199 59.0511 152.532 57.0511 152.5 54.9531C157.338 58.4581 162.505 60.9581 168 62.4531C164.864 57.9641 160.697 54.7981 155.5 52.9531C155.312 51.3921 156.145 50.7251 158 50.9531C163.671 54.9371 164.338 53.9371 160 47.9531C160.944 46.3161 160.277 45.3161 158 44.9531C155.251 39.1201 152.251 33.4541 149 27.9531C149.057 26.8441 149.39 25.8441 150 24.9531Z" fill="#C49054"/>
<path fill-rule="evenodd" clip-rule="evenodd" d="M105 51.9531C99.246 52.8661 97.746 55.8661 100.5 60.9531C106 65.4531 111.834 68.4531 118 69.9531C118.667 69.9531 119.333 69.9531 120 69.9531C118.816 71.1411 118.816 72.3081 120 73.4531C118.707 73.9431 117.373 74.1101 116 73.9531C114.432 75.3221 112.599 76.3221 110.5 76.9531C109.958 79.5351 110.792 81.5351 113 82.9531C113.812 85.7281 115.479 87.8951 118 89.4531C120.852 89.7221 123.518 90.5561 126 91.9531C127.022 91.5981 127.689 90.9311 128 89.9531C129 89.9531 130 89.9531 131 89.9531C130.636 92.3471 130.636 94.6801 131 96.9531C128.931 94.7201 126.597 94.0531 124 94.9531C121.571 94.8681 119.571 93.8681 118 91.9531C117.114 92.7781 116.781 93.7781 117 94.9531C116.042 94.5001 115.208 93.8341 114.5 92.9531C112.778 87.8411 110.278 83.1741 107 78.9531C106.282 81.5111 104.949 82.1781 103 80.9531C103.057 79.8441 103.39 78.8441 104 77.9531C105.052 78.1021 106.052 77.9361 107 77.4531C103.04 70.7011 99.207 63.8671 95.5 56.9531C93.848 57.8521 92.348 58.8521 91 59.9531C84.903 61.1941 83.57 64.3611 87 69.4531C89.743 71.4911 92.743 72.9911 96 73.9531C97.35 75.1031 97.184 75.7701 95.5 75.9531C93.361 75.2171 91.361 74.2171 89.5 72.9531C89.385 75.3911 90.385 77.3911 92.5 78.9531C93.28 80.8401 93.113 82.5071 92 83.9531C85.667 71.9531 79.333 59.9531 73 47.9531C74 47.9531 75 47.9531 76 47.9531C76.407 51.4441 78.24 53.7771 81.5 54.9531C81.078 57.3851 81.745 59.7181 83.5 61.9531C85.425 60.2401 87.592 58.9061 90 57.9531C87.295 55.9411 84.628 53.9411 82 51.9531C86.782 45.2811 89.782 46.2811 91 54.9531C92.223 56.0671 93.556 56.2341 95 55.4531C91.663 50.5891 88.996 45.4231 87 39.9531C87.667 39.9531 88.333 39.9531 89 39.9531C90.353 42.6581 92.187 44.9911 94.5 46.9531C94.995 48.9261 95.162 50.9261 95 52.9531C96.333 52.9531 97.667 52.9531 99 52.9531C98.851 51.9011 99.017 50.9011 99.5 49.9531C100.683 51.1841 101.849 51.1841 103 49.9531C100.333 47.9531 97.667 45.9531 95 43.9531C96.96 42.2971 98.96 40.6301 101 38.9531C102.053 39.8911 102.72 41.0581 103 42.4531C101.873 43.5101 101.373 44.6761 101.5 45.9531C103.552 47.1761 105.719 48.1761 108 48.9531C107.16 50.1881 106.16 51.1881 105 51.9531Z" fill="#F1BF81"/>
<path fill-rule="evenodd" clip-rule="evenodd" d="M105 51.9531C106.332 54.2741 108.332 55.9401 111 56.9531C113.089 61.4681 115.423 65.8011 118 69.9531C111.834 68.4531 106 65.4531 100.5 60.9531C97.746 55.8661 99.246 52.8661 105 51.9531Z" fill="#E1A46E"/>
<path fill-rule="evenodd" clip-rule="evenodd" d="M135 57.9531C136.109 58.0101 137.109 58.3431 138 58.9531C138.667 59.6201 139.333 60.2861 140 60.9531C140 62.9531 140 64.9531 140 66.9531C139.109 66.3431 138.109 66.0101 137 65.9531C136.806 63.1231 136.139 60.4571 135 57.9531Z" fill="#F7DCB5"/>
<path fill-rule="evenodd" clip-rule="evenodd" d="M181 53.9531C182.604 54.7401 183.271 56.0731 183 57.9531C184 57.9531 185 57.9531 186 57.9531C186.086 58.9491 185.752 59.7821 185 60.4531C187.095 62.7431 187.762 65.2431 187 67.9531C185.761 67.5111 184.761 66.8441 184 65.9531C184.086 64.9571 183.752 64.1241 183 63.4531C179.3 62.6101 176.3 60.7771 174 57.9531C176.336 58.7961 178.669 59.2961 181 59.4531C182.036 57.6771 182.036 55.8441 181 53.9531Z" fill="#F1E1BA"/>
<path fill-rule="evenodd" clip-rule="evenodd" d="M104 77.9531C102.333 75.2861 100.667 72.6201 99 69.9531C99.149 68.9011 98.983 67.9011 98.5 66.9531C96.104 64.3861 93.604 62.0531 91 59.9531C92.348 58.8521 93.848 57.8521 95.5 56.9531C99.207 63.8671 103.04 70.7011 107 77.4531C106.052 77.9361 105.052 78.1021 104 77.9531Z" fill="#C89155"/>
<path fill-rule="evenodd" clip-rule="evenodd" d="M117 22.9528C117.936 26.0828 119.27 29.0828 121 31.9528C122.684 34.9738 125.018 35.9738 128 34.9528C125.706 33.1308 123.372 31.2968 121 29.4528C121.228 29.0538 121.562 28.8878 122 28.9528C124.74 30.7068 127.573 32.3738 130.5 33.9528C131.801 33.8138 132.634 33.1478 133 31.9528C134 31.9528 135 31.9528 136 31.9528C135.702 34.3218 135.702 36.6548 136 38.9528C134.586 37.8288 133.086 36.8288 131.5 35.9528C131 36.4528 130.5 36.9528 130 37.4528C133.588 39.8298 137.088 42.3298 140.5 44.9528C141.482 46.2118 141.815 47.5448 141.5 48.9528C136.182 45.3798 130.682 42.5458 125 40.4528C126.333 42.4528 127.667 44.4528 129 46.4528C134 49.2858 139 52.1198 144 54.9528C145.236 54.2068 146.57 53.8738 148 53.9528C149.052 54.1018 150.052 53.9358 151 53.4528C149.792 51.2028 148.459 49.0358 147 46.9528C147.333 46.6198 147.667 46.2858 148 45.9528C151.418 47.7668 154.751 49.4338 158 50.9528C156.145 50.7248 155.312 51.3918 155.5 52.9528C160.697 54.7978 164.864 57.9638 168 62.4528C162.505 60.9578 157.338 58.4578 152.5 54.9528C152.532 57.0508 153.199 59.0508 154.5 60.9528C158.664 63.0338 162.664 65.3668 166.5 67.9528C168.234 66.8148 170.068 66.3148 172 66.4528C170.463 67.5628 169.797 69.0628 170 70.9528C171.716 71.0818 173.383 71.4148 175 71.9528C174.689 72.9308 174.022 73.5978 173 73.9528C171.274 72.4228 169.274 71.4228 167 70.9528C164.847 71.0138 163.514 72.0138 163 73.9528C162.576 77.4548 163.91 79.7878 167 80.9528C167 82.2858 167 83.6198 167 84.9528C165.825 85.1718 164.825 84.8388 164 83.9528C158.935 74.1568 153.601 64.4908 148 54.9528C147.333 55.9528 146.667 56.9528 146 57.9528C143.346 57.2788 141.346 58.2788 140 60.9528C139.333 60.2858 138.667 59.6198 138 58.9528C139.265 57.9738 140.599 56.9738 142 55.9528C138.667 53.9528 135.333 51.9528 132 49.9528C131.667 50.2858 131.333 50.6198 131 50.9528C132.361 53.3028 133.694 55.6368 135 57.9528C136.139 60.4568 136.806 63.1228 137 65.9528C136 64.6198 135 63.2858 134 61.9528C130.492 54.2648 126.492 46.9308 122 39.9528C119.524 34.5268 116.858 29.1938 114 23.9528C114.709 23.0488 115.709 22.7158 117 22.9528Z" fill="#EFBA7C"/>
<path fill-rule="evenodd" clip-rule="evenodd" d="M138 58.9531C137.109 58.3431 136.109 58.0101 135 57.9531C133.694 55.6371 132.361 53.3031 131 50.9531C131.333 50.6201 131.667 50.2861 132 49.9531C135.333 51.9531 138.667 53.9531 142 55.9531C140.599 56.9741 139.265 57.9741 138 58.9531Z" fill="#C68E53"/>
<path fill-rule="evenodd" clip-rule="evenodd" d="M186 57.9531C189.238 63.0961 191.905 68.4301 194 73.9531C192.146 73.2121 190.479 72.2121 189 70.9531C185.041 69.8591 181.375 68.1921 178 65.9531C176.749 64.9811 177.082 64.3141 179 63.9531C180.8 64.3551 182.467 65.0221 184 65.9531C184.761 66.8441 185.761 67.5111 187 67.9531C187.762 65.2431 187.095 62.7431 185 60.4531C185.752 59.7821 186.086 58.9491 186 57.9531Z" fill="#C69559"/>
<path fill-rule="evenodd" clip-rule="evenodd" d="M91 59.9531C93.604 62.0531 96.104 64.3861 98.5 66.9531C98.983 67.9011 99.149 68.9011 99 69.9531C99 71.2861 99 72.6201 99 73.9531C98 73.9531 97 73.9531 96 73.9531C92.743 72.9911 89.743 71.4911 87 69.4531C83.57 64.3611 84.903 61.1941 91 59.9531Z" fill="#E8A26C"/>
<path fill-rule="evenodd" clip-rule="evenodd" d="M122 39.9531C121.738 42.0171 120.571 43.3501 118.5 43.9531C117.833 47.9531 117.833 51.9531 118.5 55.9531C122.336 58.5391 126.336 60.8721 130.5 62.9531C131.511 62.1161 132.678 61.7831 134 61.9531C133.791 63.3751 133.291 64.7081 132.5 65.9531C131.523 64.6791 130.689 64.6791 130 65.9531C127.72 67.0931 125.386 68.2601 123 69.4531C124.039 72.4081 125.872 74.5741 128.5 75.9531C129.876 75.7691 130.709 75.1021 131 73.9531C131.333 73.9531 131.667 73.9531 132 73.9531C132 74.6201 132 75.2861 132 75.9531C131.27 77.4981 129.937 78.3311 128 78.4531C129.291 79.7451 129.291 80.9111 128 81.9531C125.756 77.7021 123.089 73.7021 120 69.9531C114.209 57.0391 107.876 44.3721 101 31.9531C101.667 31.9531 102.333 31.9531 103 31.9531C105.339 37.5621 109.506 41.2291 115.5 42.9531C116 42.4531 116.5 41.9531 117 41.4531C114.036 40.0731 111.37 38.2391 109 35.9531C110.591 33.8201 112.591 32.1541 115 30.9531C116.722 33.7321 117.889 36.7321 118.5 39.9531C119.486 40.6241 120.653 40.6241 122 39.9531Z" fill="#F0BC7F"/>
<path fill-rule="evenodd" clip-rule="evenodd" d="M117 58.9531C117.06 58.4101 117.393 58.0771 118 57.9531C121.595 59.5551 124.929 61.5551 128 63.9531C126.499 65.2051 124.832 66.2051 123 66.9531C120.504 64.6141 118.504 61.9481 117 58.9531Z" fill="#C28F52"/>
<path fill-rule="evenodd" clip-rule="evenodd" d="M103 64.9531C106.808 67.0261 110.474 69.3591 114 71.9531C111.472 74.9881 109.139 75.1541 107 72.4531C107.333 72.1201 107.667 71.7861 108 71.4531C105.148 70.0711 103.482 67.9041 103 64.9531Z" fill="#CA965B"/>
<path fill-rule="evenodd" clip-rule="evenodd" d="M73 47.9531C79.333 59.9531 85.667 71.9531 92 83.9531C94.015 87.3221 96.015 90.6551 98 93.9531C100.987 99.9261 103.987 105.926 107 111.953C108.157 113.591 109.324 115.257 110.5 116.953C110.833 116.62 111.167 116.286 111.5 115.953C111.995 117.926 112.162 119.926 112 121.953C111 121.953 110 121.953 109 121.953C109.077 119.441 108.077 117.441 106 115.953C99.606 112.516 93.273 109.183 87 105.953C87.219 104.778 86.886 103.778 86 102.953C83.404 101.971 80.738 101.304 78 100.953C78.381 98.5111 77.714 97.8441 76 98.9531C70.749 95.6601 65.415 92.6601 60 89.9531C59.071 88.7641 58.738 87.4311 59 85.9531C56.766 86.0731 54.599 85.7401 52.5 84.9531C49.894 83.1401 47.061 81.8061 44 80.9531C43.312 79.5981 42.312 78.5981 41 77.9531C38.895 76.6341 36.895 76.9671 35 78.9531C33.917 78.0881 33.751 77.0881 34.5 75.9531C45.877 67.0701 57.377 58.4031 69 49.9531C70.105 48.8531 71.438 48.1861 73 47.9531Z" fill="#C59054"/>
<path fill-rule="evenodd" clip-rule="evenodd" d="M63 62.9531C63.405 64.0031 64.071 64.0031 65 62.9531C65.886 63.7781 66.219 64.7781 66 65.9531C64.212 65.6681 62.545 66.0011 61 66.9531C63.59 68.3801 65.256 70.5461 66 73.4531C74.688 77.7931 83.022 82.6261 91 87.9531C92.025 88.3501 92.192 89.0161 91.5 89.9531C78.618 83.0951 66.118 75.5951 54 67.4531C56.407 65.1681 58.907 63.0021 61.5 60.9531C61.778 61.8691 62.278 62.5351 63 62.9531Z" fill="#F1B77F"/>
<path fill-rule="evenodd" clip-rule="evenodd" d="M79 65.9534C82.96 72.7694 86.96 80.1024 91 87.9534C83.022 82.6264 74.688 77.7934 66 73.4534C65.256 70.5464 63.59 68.3804 61 66.9534C62.545 66.0014 64.212 65.6684 66 65.9534C66.219 64.7784 65.886 63.7784 65 62.9534C64.071 64.0034 63.405 64.0034 63 62.9534C64.101 61.8554 65.434 61.6884 67 62.4534C70.516 64.7874 74.183 66.9534 78 68.9534C78.886 68.1284 79.219 67.1284 79 65.9534Z" fill="#E4A36B"/>
<path fill-rule="evenodd" clip-rule="evenodd" d="M79 65.9531C75.219 64.9661 71.719 63.2991 68.5 60.9531C68.971 57.9701 70.804 55.9701 74 54.9531C76.16 58.4311 77.827 62.0971 79 65.9531Z" fill="#F0BA7F"/>
<path fill-rule="evenodd" clip-rule="evenodd" d="M134 61.9531C135 63.2861 136 64.6201 137 65.9531C138.046 68.6431 139.046 71.3101 140 73.9531C138.346 70.7871 135.679 69.1201 132 68.9531C132 70.6201 132 72.2861 132 73.9531C131.667 73.9531 131.333 73.9531 131 73.9531C131.306 71.0681 130.973 68.4011 130 65.9531C130.689 64.6791 131.523 64.6791 132.5 65.9531C133.291 64.7081 133.791 63.3751 134 61.9531Z" fill="#C0984A"/>
<path fill-rule="evenodd" clip-rule="evenodd" d="M164 49.9531C164.667 49.9531 165.333 49.9531 166 49.9531C167.519 52.4741 169.186 54.9741 171 57.4531C171.948 57.9361 172.948 58.1021 174 57.9531C176.3 60.7771 179.3 62.6101 183 63.4531C183.752 64.1241 184.086 64.9571 184 65.9531C182.467 65.0221 180.8 64.3551 179 63.9531C177.082 64.3141 176.749 64.9811 178 65.9531C176.346 70.5101 178.012 73.3431 183 74.4531C181.744 74.8701 181.077 75.7031 181 76.9531C178.384 76.0901 176.384 74.4231 175 71.9531C171.716 64.4391 168.05 57.1061 164 49.9531Z" fill="#EDC280"/>
<path fill-rule="evenodd" clip-rule="evenodd" d="M140 73.9531C140 75.2861 140 76.6201 140 77.9531C137.079 78.1701 134.413 77.5041 132 75.9531C132 75.2861 132 74.6201 132 73.9531C132 72.2861 132 70.6201 132 68.9531C135.679 69.1201 138.346 70.7871 140 73.9531Z" fill="#A5A83E"/>
<path fill-rule="evenodd" clip-rule="evenodd" d="M175 71.9531C176.384 74.4231 178.384 76.0901 181 76.9531C181 78.6201 181 80.2861 181 81.9531C179.667 81.9531 178.333 81.9531 177 81.9531C177 80.6201 177 79.2861 177 77.9531C174.257 77.0781 171.59 76.7451 169 76.9531C166.983 75.9241 164.983 74.9241 163 73.9531C163.514 72.0141 164.847 71.0141 167 70.9531C169.274 71.4231 171.274 72.4231 173 73.9531C174.022 73.5981 174.689 72.9311 175 71.9531Z" fill="#C68B51"/>
<path fill-rule="evenodd" clip-rule="evenodd" d="M130 65.9531C130.973 68.4011 131.306 71.0681 131 73.9531C130.709 75.1021 129.876 75.7691 128.5 75.9531C125.872 74.5741 124.039 72.4081 123 69.4531C125.386 68.2601 127.72 67.0931 130 65.9531Z" fill="#DB945F"/>
<path fill-rule="evenodd" clip-rule="evenodd" d="M120 69.9531C123.089 73.7021 125.756 77.7021 128 81.9531C129 84.6201 130 87.2861 131 89.9531C130 89.9531 129 89.9531 128 89.9531C127.791 88.5311 127.291 87.1981 126.5 85.9531C124.057 84.1521 121.557 82.4851 119 80.9531C118.819 78.2581 117.819 75.9251 116 73.9531C117.373 74.1101 118.707 73.9431 120 73.4531C118.816 72.3081 118.816 71.1411 120 69.9531Z" fill="#C29153"/>
<path fill-rule="evenodd" clip-rule="evenodd" d="M99.0001 69.9531C100.667 72.6201 102.333 75.2861 104 77.9531C103.39 78.8441 103.057 79.8441 103 80.9531C101.975 81.3501 101.808 82.0161 102.5 82.9531C104.814 84.1861 106.981 85.5201 109 86.9531C105.588 87.4951 102.588 88.8281 100 90.9531C98.5941 91.4261 97.9271 92.4261 98.0001 93.9531C96.0151 90.6551 94.0151 87.3221 92.0001 83.9531C93.1131 82.5071 93.2801 80.8401 92.5001 78.9531C90.3851 77.3911 89.3851 75.3911 89.5001 72.9531C91.3611 74.2171 93.3611 75.2171 95.5001 75.9531C97.1841 75.7701 97.3501 75.1031 96.0001 73.9531C97.0001 73.9531 98.0001 73.9531 99.0001 73.9531C99.0001 72.6201 99.0001 71.2861 99.0001 69.9531Z" fill="#E4AD72"/>
<path fill-rule="evenodd" clip-rule="evenodd" d="M163 73.9531C164.983 74.9241 166.983 75.9241 169 76.9531C168.767 78.5151 168.1 79.8481 167 80.9531C163.91 79.7881 162.576 77.4551 163 73.9531Z" fill="#FCF3DA"/>
<path fill-rule="evenodd" clip-rule="evenodd" d="M178 65.9531C181.375 68.1921 185.041 69.8591 189 70.9531C189 79.2861 189 87.6201 189 95.9531C189 102.62 189 109.286 189 115.953C188.172 110.134 187.672 104.134 187.5 97.9531C187.192 97.1451 186.692 96.4781 186 95.9531C185.288 100.763 184.288 105.429 183 109.953C183.216 111.837 183.883 113.504 185 114.953C183.047 116.143 181.213 117.477 179.5 118.953C176.764 117.424 176.598 115.924 179 114.453C178.084 114.175 177.418 113.675 177 112.953C178.963 106.029 179.63 98.6961 179 90.9531C177.12 90.6821 175.787 91.3491 175 92.9531C171.839 94.3661 168.839 96.0331 166 97.9531C163.778 97.6311 161.944 98.2981 160.5 99.9531C159.013 99.2001 158.846 98.3671 160 97.4531C159.052 96.9701 158.052 96.8041 157 96.9531C157.219 98.1281 156.886 99.1281 156 99.9531C155.235 98.8411 154.235 98.1741 153 97.9531C153.284 96.0381 152.951 94.3721 152 92.9531C153.326 91.2581 152.993 89.9251 151 88.9531C153.469 87.0181 156.302 85.6851 159.5 84.9531C162.018 86.7541 164.518 88.4201 167 89.9531C167 88.2861 167 86.6201 167 84.9531C167 83.6201 167 82.2861 167 80.9531C168.1 79.8481 168.767 78.5151 169 76.9531C171.59 76.7451 174.257 77.0781 177 77.9531C177 79.2861 177 80.6201 177 81.9531C178.333 81.9531 179.667 81.9531 181 81.9531C181 80.2861 181 78.6201 181 76.9531C181.077 75.7031 181.744 74.8701 183 74.4531C178.012 73.3431 176.346 70.5101 178 65.9531Z" fill="#E7A370"/>
<path fill-rule="evenodd" clip-rule="evenodd" d="M53 70.9531C51.531 71.8001 50.198 72.9671 49 74.4531C52.925 78.2251 57.592 80.8921 63 82.4531C68.604 85.5991 73.938 89.2661 79 93.4531C82.541 94.8931 86.208 95.7271 90 95.9531C88.709 96.9261 88.709 97.9261 90 98.9531C93.344 100.59 96.511 102.59 99.5 104.953C99.899 104.725 100.065 104.391 100 103.953C100.891 105.744 101.891 107.577 103 109.453C102 110.12 101 110.12 100 109.453C89.5 103.371 79.166 97.0371 69 90.4531C65.535 89.1311 62.202 87.6311 59 85.9531C52.927 82.4081 46.927 78.5751 41 74.4531C43.141 73.1451 45.141 71.6451 47 69.9531C49.105 70.2061 51.105 70.5401 53 70.9531Z" fill="#F4BB82"/>
<path fill-rule="evenodd" clip-rule="evenodd" d="M53 70.9531C66.911 79.1421 80.911 87.1421 95 94.9531C93.284 95.0821 91.617 95.4151 90 95.9531C86.208 95.7271 82.541 94.8931 79 93.4531C73.938 89.2661 68.604 85.5991 63 82.4531C57.592 80.8921 52.925 78.2251 49 74.4531C50.198 72.9671 51.531 71.8001 53 70.9531Z" fill="#E3A46C"/>
<path fill-rule="evenodd" clip-rule="evenodd" d="M116 73.9531C117.819 75.9251 118.819 78.2581 119 80.9531C116.797 81.0571 114.797 81.7231 113 82.9531C110.792 81.5351 109.958 79.5351 110.5 76.9531C112.599 76.3221 114.432 75.3221 116 73.9531Z" fill="#E3A275"/>
<path fill-rule="evenodd" clip-rule="evenodd" d="M137 65.9531C138.109 66.0101 139.109 66.3431 140 66.9531C139.869 67.8291 140.202 68.4961 141 68.9531C145 71.2861 149 73.6201 153 75.9531C154.468 74.1201 156.135 73.7871 158 74.9531C155.442 77.2221 155.942 78.8881 159.5 79.9531C160.167 80.6201 160.167 81.2861 159.5 81.9531C155.973 77.6311 152.306 77.2981 148.5 80.9531C148.929 83.6241 149.763 86.2911 151 88.9531C152.993 89.9251 153.326 91.2581 152 92.9531C149.311 89.9331 146.978 86.6001 145 82.9531C144 83.4531 143 83.9531 142 84.4531C147.06 89.8591 146.227 90.3591 139.5 85.9531C137.582 86.9951 135.749 88.1611 134 89.4531C134.916 89.7311 135.582 90.2311 136 90.9531C135.029 93.3641 136.029 95.0311 139 95.9531C140.213 95.7061 140.88 95.0391 141 93.9531C143.469 93.3861 145.802 93.3861 148 93.9531C148.107 95.8321 147.607 96.1651 146.5 94.9531C144.344 97.5741 141.844 99.5741 139 100.953C136.088 97.9981 133.754 94.4981 132 90.4531C133.128 88.1571 134.795 86.3241 137 84.9531C134.163 83.9441 132.83 81.9441 133 78.9531C136.958 78.0251 139.625 79.3591 141 82.9531C142.295 82.3551 143.628 81.8551 145 81.4531C143.682 78.6291 142.015 76.1291 140 73.9531C139.046 71.3101 138.046 68.6431 137 65.9531Z" fill="#F1BD81"/>
<path fill-rule="evenodd" clip-rule="evenodd" d="M117 94.9531C116.868 97.4601 115.868 98.1271 114 96.9531C112.363 93.6361 110.696 90.3031 109 86.9531C106.981 85.5201 104.814 84.1861 102.5 82.9531C101.808 82.0161 101.975 81.3501 103 80.9531C104.949 82.1781 106.282 81.5111 107 78.9531C110.278 83.1741 112.778 87.8411 114.5 92.9531C115.208 93.8341 116.042 94.5001 117 94.9531Z" fill="#C69156"/>
<path fill-rule="evenodd" clip-rule="evenodd" d="M167 84.9531C167 86.6201 167 88.2861 167 89.9531C164.518 88.4201 162.018 86.7541 159.5 84.9531C156.302 85.6851 153.469 87.0181 151 88.9531C149.763 86.2911 148.929 83.6241 148.5 80.9531C152.306 77.2981 155.973 77.6311 159.5 81.9531C160.167 81.2861 160.167 80.6201 159.5 79.9531C155.942 78.8881 155.442 77.2221 158 74.9531C156.135 73.7871 154.468 74.1201 153 75.9531C149 73.6201 145 71.2861 141 68.9531C140.202 68.4961 139.869 67.8291 140 66.9531C140 64.9531 140 62.9531 140 60.9531C141.346 58.2791 143.346 57.2791 146 57.9531C146.667 56.9531 147.333 55.9531 148 54.9531C153.601 64.4911 158.935 74.1571 164 83.9531C164.825 84.8391 165.825 85.1721 167 84.9531Z" fill="#C48A4E"/>
<path fill-rule="evenodd" clip-rule="evenodd" d="M119 80.9531C121.557 82.4851 124.057 84.1521 126.5 85.9531C127.291 87.1981 127.791 88.5311 128 89.9531C127.689 90.9311 127.022 91.5981 126 91.9531C123.518 90.5561 120.852 89.7221 118 89.4531C115.479 87.8951 113.812 85.7281 113 82.9531C114.797 81.7231 116.797 81.0571 119 80.9531Z" fill="#F5EBDE"/>
<path fill-rule="evenodd" clip-rule="evenodd" d="M109 86.9531C110.696 90.3031 112.363 93.6361 114 96.9531C114.085 98.4481 113.419 99.4481 112 99.9531C108.827 97.8661 105.494 96.0321 102 94.4531C100.677 93.6371 100.011 92.4701 100 90.9531C102.588 88.8281 105.588 87.4951 109 86.9531Z" fill="#F0F1E5"/>
<path fill-rule="evenodd" clip-rule="evenodd" d="M152 92.9531C152.951 94.3721 153.284 96.0381 153 97.9531C151.333 96.6201 149.667 95.2861 148 93.9531C145.802 93.3861 143.469 93.3861 141 93.9531C139.535 92.7161 137.868 91.7161 136 90.9531C135.582 90.2311 134.916 89.7311 134 89.4531C135.749 88.1611 137.582 86.9951 139.5 85.9531C146.227 90.3591 147.06 89.8591 142 84.4531C143 83.9531 144 83.4531 145 82.9531C146.978 86.6001 149.311 89.9331 152 92.9531Z" fill="#C39052"/>
<path fill-rule="evenodd" clip-rule="evenodd" d="M140 73.9531C142.015 76.1291 143.682 78.6291 145 81.4531C143.628 81.8551 142.295 82.3551 141 82.9531C139.625 79.3591 136.958 78.0251 133 78.9531C132.83 81.9441 134.163 83.9441 137 84.9531C134.795 86.3241 133.128 88.1571 132 90.4531C133.754 94.4981 136.088 97.9981 139 100.953C139.285 102.741 138.952 104.408 138 105.953C136.286 103.24 133.953 101.24 131 99.9531C128.83 98.3671 126.496 97.0331 124 95.9531C124 95.6201 124 95.2861 124 94.9531C126.597 94.0531 128.931 94.7201 131 96.9531C130.636 94.6801 130.636 92.3471 131 89.9531C130 87.2861 129 84.6201 128 81.9531C129.291 80.9111 129.291 79.7451 128 78.4531C129.937 78.3311 131.27 77.4981 132 75.9531C134.413 77.5041 137.079 78.1701 140 77.9531C140 76.6201 140 75.2861 140 73.9531Z" fill="#C89D5F"/>
<path fill-rule="evenodd" clip-rule="evenodd" d="M136 90.9531C137.868 91.7161 139.535 92.7161 141 93.9531C140.88 95.0391 140.213 95.7061 139 95.9531C136.029 95.0311 135.029 93.3641 136 90.9531Z" fill="#F9E6D7"/>
<path fill-rule="evenodd" clip-rule="evenodd" d="M100 90.9531C100.011 92.4701 100.677 93.6371 102 94.4531C105.494 96.0321 108.827 97.8661 112 99.9531C113.419 99.4481 114.085 98.4481 114 96.9531C115.868 98.1271 116.868 97.4601 117 94.9531C116.781 93.7781 117.114 92.7781 118 91.9531C119.571 93.8681 121.571 94.8681 124 94.9531C124 95.2861 124 95.6201 124 95.9531C123 95.9531 122 95.9531 121 95.9531C121.194 98.7831 121.861 101.449 123 103.953C124 103.953 125 103.953 126 103.953C125.213 105.557 123.88 106.224 122 105.953C120.765 103.152 119.265 100.485 117.5 97.9531C116.808 98.4781 116.308 99.1451 116 99.9531C117.247 101.95 118.081 103.95 118.5 105.953C116.584 104.244 114.418 102.91 112 101.953C110.978 102.308 110.311 102.975 110 103.953C108.851 104.244 108.184 105.077 108 106.453C108.363 108.645 109.363 110.479 111 111.953C109.667 111.953 108.333 111.953 107 111.953C103.987 105.926 100.987 99.9261 98 93.9531C97.927 92.4261 98.594 91.4261 100 90.9531Z" fill="#EEC996"/>
<path fill-rule="evenodd" clip-rule="evenodd" d="M95 94.9531C96.905 97.7571 98.571 100.757 100 103.953C100.065 104.391 99.899 104.725 99.5 104.953C96.511 102.59 93.344 100.59 90 98.9531C88.709 97.9261 88.709 96.9261 90 95.9531C91.617 95.4151 93.284 95.0821 95 94.9531Z" fill="#F7ECDF"/>
<path fill-rule="evenodd" clip-rule="evenodd" d="M124 95.9531C126.496 97.0331 128.83 98.3671 131 99.9531C129.516 101.527 127.849 102.86 126 103.953C125 103.953 124 103.953 123 103.953C121.861 101.449 121.194 98.7831 121 95.9531C122 95.9531 123 95.9531 124 95.9531Z" fill="#F0F2E7"/>
<path fill-rule="evenodd" clip-rule="evenodd" d="M175 92.9531C175 99.2861 175 105.62 175 111.953C174.667 111.953 174.333 111.953 174 111.953C172 111.286 170 110.62 168 109.953C166.182 106.28 165.516 102.28 166 97.9531C168.839 96.0331 171.839 94.3661 175 92.9531Z" fill="#916039"/>
<path fill-rule="evenodd" clip-rule="evenodd" d="M177 112.953C176.333 112.62 175.667 112.286 175 111.953C175 105.62 175 99.2863 175 92.9533C175.787 91.3493 177.12 90.6823 179 90.9533C179.63 98.6963 178.963 106.029 177 112.953Z" fill="#C67A4D"/>
<path fill-rule="evenodd" clip-rule="evenodd" d="M189 95.9531C192.437 97.4701 195.77 99.1371 199 100.953C206.696 106.135 214.696 110.801 223 114.953C226.333 117.286 229.667 119.62 233 121.953C224.007 125.562 215.674 130.562 208 136.953C203.67 138.129 199.67 139.962 196 142.453C195.167 143.953 194 145.12 192.5 145.953C192.017 146.901 191.851 147.901 192 148.953C185.777 149.639 180.111 151.805 175 155.453C173.707 155.943 172.373 156.11 171 155.953C170.83 154.631 171.163 153.464 172 152.453C174.218 151.362 176.384 150.196 178.5 148.953C178.8 144.122 178.633 139.456 178 134.953C178.477 133.975 179.143 133.142 180 132.453C179.667 132.12 179.333 131.786 179 131.453C180.684 130.244 182.017 128.744 183 126.953C183 126.62 183 126.286 183 125.953C185.426 124.073 188.092 122.74 191 121.953C191.446 119.443 190.78 117.443 189 115.953C189 109.286 189 102.62 189 95.9531Z" fill="#87B52B"/>
<path fill-rule="evenodd" clip-rule="evenodd" d="M199 100.953C201.987 101.711 204.987 102.544 208 103.453C207.667 103.786 207.333 104.12 207 104.453C208.629 105.038 210.129 105.872 211.5 106.953C213.934 106.131 216.434 105.797 219 105.953C219.944 109.117 221.278 112.117 223 114.953C214.696 110.801 206.696 106.135 199 100.953Z" fill="#F7FCE9"/>
<path fill-rule="evenodd" clip-rule="evenodd" d="M122 105.953C122.548 107.985 123.881 108.985 126 108.953C126 110.62 126 112.286 126 113.953C123.356 112.114 120.69 110.114 118 107.953C115.333 106.62 112.667 105.286 110 103.953C110.311 102.975 110.978 102.308 112 101.953C114.418 102.91 116.584 104.244 118.5 105.953C118.081 103.95 117.247 101.95 116 99.9531C116.308 99.1451 116.808 98.4781 117.5 97.9531C119.265 100.485 120.765 103.152 122 105.953Z" fill="#C79454"/>
<path fill-rule="evenodd" clip-rule="evenodd" d="M110 103.953C112.667 105.286 115.333 106.62 118 107.953C116.164 110.041 113.831 111.374 111 111.953C109.363 110.479 108.363 108.645 108 106.453C108.184 105.077 108.851 104.244 110 103.953Z" fill="#F8F1E9"/>
<path fill-rule="evenodd" clip-rule="evenodd" d="M155 105.953C155 115.286 155 124.62 155 133.953C156.333 133.953 157.667 133.953 159 133.953C156.195 134.772 153.195 135.272 150 135.453C148.422 136.547 146.755 137.381 145 137.953C144.693 127.871 145.026 117.871 146 107.953C149 107.286 152 106.62 155 105.953Z" fill="#AAAAAB"/>
<path fill-rule="evenodd" clip-rule="evenodd" d="M146 107.953C145.026 117.871 144.693 127.871 145 137.953C144.383 137.842 143.883 137.509 143.5 136.953C142.833 127.62 142.833 118.286 143.5 108.953C144.171 108.201 145.004 107.867 146 107.953Z" fill="#D8A07B"/>
<path fill-rule="evenodd" clip-rule="evenodd" d="M233 145.953C233 139.62 233 133.286 233 126.953C233 125.286 233 123.62 233 121.953C229.667 119.62 226.333 117.286 223 114.953C224.901 115.02 226.734 114.686 228.5 113.953C230.213 114.59 230.379 115.59 229 116.953C231.315 117.687 233.148 119.021 234.5 120.953C234.455 129.427 233.955 137.761 233 145.953Z" fill="#E3E3CC"/>
<path fill-rule="evenodd" clip-rule="evenodd" d="M148 93.9531C149.667 95.2861 151.333 96.6201 153 97.9531C154.235 98.1741 155.235 98.8411 156 99.9531C156.886 99.1281 157.219 98.1281 157 96.9531C158.052 96.8041 159.052 96.9701 160 97.4531C158.846 98.3671 159.013 99.2001 160.5 99.9531C161.944 98.2981 163.778 97.6311 166 97.9531C165.516 102.28 166.182 106.28 168 109.953C167.066 111.021 166.732 112.354 167 113.953C169.027 114.115 171.027 113.948 173 113.453C173.556 113.07 173.889 112.57 174 111.953C174.333 111.953 174.667 111.953 175 111.953C175.667 112.286 176.333 112.62 177 112.953C177.418 113.675 178.084 114.175 179 114.453C176.598 115.924 176.764 117.424 179.5 118.953C181.213 117.477 183.047 116.143 185 114.953C183.883 113.504 183.216 111.837 183 109.953C184.288 105.429 185.288 100.763 186 95.9531C186.692 96.4781 187.192 97.1451 187.5 97.9531C187.672 104.134 188.172 110.134 189 115.953C179.91 122.385 170.576 128.385 161 133.953C160.667 133.953 160.333 133.953 160 133.953C160 133.286 159.667 132.953 159 132.953C159.166 122.614 159 112.281 158.5 101.953C156.429 102.556 155.262 103.889 155 105.953C152 106.62 149 107.286 146 107.953C145.004 107.867 144.171 108.201 143.5 108.953C142.833 118.286 142.833 127.62 143.5 136.953C143.883 137.509 144.383 137.842 145 137.953C145.009 139.761 144.509 141.428 143.5 142.953C141.174 144.519 139.008 146.185 137 147.953C129 151.953 121 155.953 113 159.953C112.005 147.464 111.671 134.797 112 121.953C112.162 119.926 111.995 117.926 111.5 115.953C111.167 116.286 110.833 116.62 110.5 116.953C109.324 115.257 108.157 113.591 107 111.953C108.333 111.953 109.667 111.953 111 111.953C113.831 111.374 116.164 110.041 118 107.953C120.69 110.114 123.356 112.114 126 113.953C126 112.286 126 110.62 126 108.953C123.881 108.985 122.548 107.985 122 105.953C123.88 106.224 125.213 105.557 126 103.953C127.849 102.86 129.516 101.527 131 99.9531C133.953 101.24 136.286 103.24 138 105.953C138.952 104.408 139.285 102.741 139 100.953C141.844 99.5741 144.344 97.5741 146.5 94.9531C147.607 96.1651 148.107 95.8321 148 93.9531Z" fill="#E6A272"/>
<path fill-rule="evenodd" clip-rule="evenodd" d="M168 109.953C170 110.62 172 111.286 174 111.953C173.889 112.57 173.556 113.07 173 113.453C171.027 113.948 169.027 114.115 167 113.953C166.732 112.354 167.066 111.021 168 109.953Z" fill="#BDA098"/>
<path fill-rule="evenodd" clip-rule="evenodd" d="M11 119.953C7.951 122.316 4.618 124.316 1 125.953C1 124.953 1 123.953 1 122.953C4.184 121.654 7.517 120.654 11 119.953Z" fill="#EFFBD5"/>
<path fill-rule="evenodd" clip-rule="evenodd" d="M155 105.953C155.829 113.776 156.329 121.776 156.5 129.953C156.736 131.572 157.569 132.572 159 132.953C159.667 132.953 160 133.286 160 133.953C159.667 133.953 159.333 133.953 159 133.953C157.667 133.953 156.333 133.953 155 133.953C155 124.62 155 115.286 155 105.953Z" fill="#B17F55"/>
<path fill-rule="evenodd" clip-rule="evenodd" d="M159 132.953C157.569 132.572 156.736 131.572 156.5 129.953C156.329 121.776 155.829 113.776 155 105.953C155.262 103.889 156.429 102.556 158.5 101.953C159 112.281 159.166 122.614 159 132.953Z" fill="#C2763D"/>
<path fill-rule="evenodd" clip-rule="evenodd" d="M41 120.953C45.336 122.785 49.336 125.118 53 127.953C49.046 126.681 45.046 125.514 41 124.453C39.709 123.161 39.709 121.995 41 120.953Z" fill="#D5CECB"/>
<path fill-rule="evenodd" clip-rule="evenodd" d="M131 117.953C131 124.286 131 130.62 131 136.953C129.932 137.887 128.599 138.221 127 137.953C127.709 137.049 128.709 136.716 130 136.953C130.166 131.277 129.999 125.61 129.5 119.953C128.236 122.06 126.403 123.06 124 122.953C123.678 128.811 124.011 134.478 125 139.953C124.94 140.496 124.607 140.829 124 140.953C123.004 134.655 122.67 128.321 123 121.953C125.651 120.742 128.318 119.408 131 117.953Z" fill="#BBA798"/>
<path fill-rule="evenodd" clip-rule="evenodd" d="M127 137.953C127 139.286 126.333 139.953 125 139.953C124.011 134.478 123.678 128.811 124 122.953C126.403 123.06 128.236 122.06 129.5 119.953C129.999 125.61 130.166 131.277 130 136.953C128.709 136.716 127.709 137.049 127 137.953Z" fill="#A8ABAF"/>
<path fill-rule="evenodd" clip-rule="evenodd" d="M41 77.9531C42.312 78.5981 43.312 79.5981 44 80.9531C47.061 81.8061 49.894 83.1401 52.5 84.9531C54.599 85.7401 56.766 86.0731 59 85.9531C58.738 87.4311 59.071 88.7641 60 89.9531C65.415 92.6601 70.749 95.6601 76 98.9531C77.714 97.8441 78.381 98.5111 78 100.953C80.738 101.304 83.404 101.971 86 102.953C86.886 103.778 87.219 104.778 87 105.953C93.273 109.183 99.606 112.516 106 115.953C108.077 117.441 109.077 119.441 109 121.953C110 121.953 111 121.953 112 121.953C111.671 134.797 112.005 147.464 113 159.953C112.94 160.496 112.607 160.829 112 160.953C102.57 155.908 93.237 150.908 84 145.953C74.166 139.199 63.833 133.199 53 127.953C49.336 125.118 45.336 122.785 41 120.953C41 120.286 41 119.62 41 118.953C41 113.62 41 108.286 41 102.953C41 94.6201 41 86.2861 41 77.9531Z" fill="#C27E4E"/>
<path fill-rule="evenodd" clip-rule="evenodd" d="M90 115.953C89.009 122.432 88.676 129.099 89 135.953C91.761 137.373 94.761 138.04 98 137.953C98.89 140.235 99.056 142.568 98.5 144.953C94.798 142.421 90.965 140.088 87 137.953C85.667 129.953 85.667 121.953 87 113.953C88.239 114.395 89.239 115.062 90 115.953Z" fill="#E4A06E"/>
<path fill-rule="evenodd" clip-rule="evenodd" d="M95 118.953C95 119.62 95.333 119.953 96 119.953C96.952 125.528 97.286 131.194 97 136.953C93.905 136.827 92.072 135.16 91.5 131.953C90.833 127.953 90.833 123.953 91.5 119.953C92.511 119.116 93.678 118.783 95 118.953Z" fill="#A8AAAE"/>
<path fill-rule="evenodd" clip-rule="evenodd" d="M89.9999 115.953C92.1639 116.174 93.8299 117.174 94.9999 118.953C93.6779 118.783 92.5109 119.116 91.4999 119.953C90.8329 123.953 90.8329 127.953 91.4999 131.953C92.0719 135.16 93.9049 136.827 96.9999 136.953C97.2859 131.194 96.9519 125.528 95.9999 119.953C96.9999 119.953 97.9999 119.953 98.9999 119.953C99.3229 126.143 98.9899 132.143 97.9999 137.953C94.7609 138.04 91.7609 137.373 88.9999 135.953C88.6759 129.099 89.0089 122.432 89.9999 115.953Z" fill="#C2A18F"/>
<path fill-rule="evenodd" clip-rule="evenodd" d="M67 109.953C67 113.953 67 117.953 67 121.953C62.706 120.655 59.706 117.988 58 113.953C58.333 113.953 58.667 113.953 59 113.953C61.438 112.186 64.105 110.852 67 109.953Z" fill="#B1A69E"/>
<path fill-rule="evenodd" clip-rule="evenodd" d="M58 113.953C59.706 117.988 62.706 120.655 67 121.953C67.262 123.431 66.929 124.764 66 125.953C62.667 123.953 59.333 121.953 56 119.953C54.043 111.565 54.043 103.565 56 95.9531C57 96.4531 58 96.9531 59 97.4531C58.027 102.86 57.693 108.36 58 113.953Z" fill="#EAA270"/>
<path fill-rule="evenodd" clip-rule="evenodd" d="M67.0001 109.953C64.1051 110.852 61.4381 112.186 59.0001 113.953C58.6951 108.691 59.0291 103.525 60.0001 98.4533C61.6121 97.7333 63.1121 97.8993 64.5001 98.9533C66.5751 102.287 67.4091 105.954 67.0001 109.953Z" fill="#A5704E"/>
<path fill-rule="evenodd" clip-rule="evenodd" d="M131 136.953C131 130.62 131 124.286 131 117.953C131.761 117.062 132.761 116.395 134 115.953C135.165 123.598 135.331 131.265 134.5 138.953C133.387 138.148 132.221 137.481 131 136.953Z" fill="#C27A46"/>
<path fill-rule="evenodd" clip-rule="evenodd" d="M189 115.953C190.78 117.443 191.446 119.443 191 121.953C188.092 122.74 185.426 124.073 183 125.953C180.208 126.075 178.208 127.409 177 129.953C173.18 130.519 170.513 132.519 169 135.953C166.584 134.485 163.917 133.818 161 133.953C170.576 128.385 179.91 122.385 189 115.953Z" fill="#DCDED4"/>
<path fill-rule="evenodd" clip-rule="evenodd" d="M183 125.953C183 126.286 183 126.62 183 126.953C181 127.953 179 128.953 177 129.953C178.208 127.409 180.208 126.075 183 125.953Z" fill="#AEC580"/>
<path fill-rule="evenodd" clip-rule="evenodd" d="M1 128.953C11.59 136.124 22.257 143.124 33 149.953C30.522 148.57 27.855 147.57 25 146.953C22.453 144.48 19.453 142.647 16 141.453C15.333 140.453 14.667 139.453 14 138.453C9.322 136.933 4.988 134.766 1 131.953C1 130.953 1 129.953 1 128.953Z" fill="#5A6F15"/>
<path fill-rule="evenodd" clip-rule="evenodd" d="M159 133.954C159.333 133.954 159.667 133.954 160 133.954C160.333 133.954 160.667 133.954 161 133.954C163.917 133.819 166.584 134.486 169 135.954C170.473 137.194 172.14 138.194 174 138.954C175.083 139.819 175.249 140.819 174.5 141.954C171.359 143.774 168.192 145.44 165 146.954C158.601 148.852 152.768 151.852 147.5 155.954C146.094 155.04 144.594 154.374 143 153.954C140.958 151.624 138.292 150.458 135 150.454C135.881 149.746 136.547 148.912 137 147.954C139.008 146.186 141.174 144.52 143.5 142.954C144.509 141.429 145.009 139.762 145 137.954C146.755 137.382 148.422 136.548 150 135.454C153.195 135.273 156.195 134.773 159 133.954Z" fill="#E7EFEF"/>
<path fill-rule="evenodd" clip-rule="evenodd" d="M183 126.953C182.017 128.744 180.684 130.244 179 131.453C179.333 131.786 179.667 132.12 180 132.453C179.143 133.142 178.477 133.975 178 134.953C178.633 139.456 178.8 144.122 178.5 148.953C176.384 150.196 174.218 151.362 172 152.453C171.163 153.464 170.83 154.631 171 155.953C170.69 157.597 169.69 158.597 168 158.953C165.373 155.138 161.706 153.138 157 152.953C157.384 155.382 158.051 157.716 159 159.953C152.323 159.337 145.657 158.67 139 157.953C139 159.286 139 160.62 139 161.953C137.223 161.667 135.556 161 134 159.953C129.19 161.847 124.19 162.847 119 162.953C123.849 161.119 128.182 158.286 132 154.453C135.669 153.048 139.335 152.881 143 153.953C144.553 156.707 146.886 157.54 150 156.453C155.192 153.49 160.192 150.324 165 146.953C168.192 145.439 171.359 143.773 174.5 141.953C175.249 140.818 175.083 139.818 174 138.953C172.14 138.193 170.473 137.193 169 135.953C170.513 132.519 173.18 130.519 177 129.953C179 128.953 181 127.953 183 126.953Z" fill="#8AB235"/>
<path fill-rule="evenodd" clip-rule="evenodd" d="M1 131.953C4.988 134.766 9.322 136.933 14 138.453C14.667 139.453 15.333 140.453 16 141.453C19.453 142.647 22.453 144.48 25 146.953C20.824 146.284 19.491 147.784 21 151.453C23.077 151.645 25.077 152.145 27 152.953C23.055 153.944 19.055 154.277 15 153.953C15.149 152.901 14.983 151.901 14.5 150.953C14.167 151.286 13.833 151.62 13.5 151.953C13 150.786 12.167 149.953 11 149.453C8.265 149.651 5.599 149.484 3 148.953C2.396 145.15 1.73 141.484 1 137.953C1 135.953 1 133.953 1 131.953Z" fill="#543920"/>
<path fill-rule="evenodd" clip-rule="evenodd" d="M211 139.953C208.112 143.233 204.445 145.233 200 145.953C203.467 143.717 207.134 141.717 211 139.953Z" fill="#6A6C28"/>
<path fill-rule="evenodd" clip-rule="evenodd" d="M41 118.953C41 119.62 41 120.286 41 120.953C39.709 121.995 39.709 123.161 41 124.453C45.046 125.514 49.046 126.681 53 127.953C63.833 133.199 74.166 139.199 84 145.953C86.47 147.337 88.137 149.337 89 151.953C90.699 151.793 92.366 151.959 94 152.453C100.841 156.18 107.175 160.346 113 164.953C111.284 164.824 109.617 164.491 108 163.953C104.172 161.874 100.172 160.041 96 158.453C86.48 152.863 77.146 147.029 68 140.953C58.917 136.393 49.917 131.56 41 126.453C38.36 123.832 38.36 121.332 41 118.953Z" fill="#C0C6BA"/>
<path fill-rule="evenodd" clip-rule="evenodd" d="M25 146.953C27.855 147.57 30.522 148.57 33 149.953C34 150.286 34.667 150.953 35 151.953C30.989 151.409 27.656 149.742 25 146.953Z" fill="#4C4714"/>
<path fill-rule="evenodd" clip-rule="evenodd" d="M165 146.953C160.192 150.324 155.192 153.49 150 156.453C146.886 157.54 144.553 156.707 143 153.953C144.594 154.373 146.094 155.039 147.5 155.953C152.768 151.851 158.601 148.851 165 146.953Z" fill="#C7DCB5"/>
<path fill-rule="evenodd" clip-rule="evenodd" d="M233 126.953C233 133.286 233 139.62 233 145.953C192.978 169.386 152.811 192.719 112.5 215.953C112.101 215.725 111.935 215.391 112 214.953C112.48 208.65 112.146 202.317 111 195.953C114.424 195.518 117.424 194.185 120 191.953C127.325 190.457 133.659 187.124 139 181.953C148.73 175.291 159.063 169.291 170 163.953C173.589 162.584 177.089 160.917 180.5 158.953C182.599 158.166 184.766 157.833 187 157.953C187 159.62 187 161.286 187 162.953C191 163.62 192.667 161.953 192 157.953C188.435 158.252 187.102 156.918 188 153.953C191.963 151.299 195.963 148.633 200 145.953C204.445 145.233 208.112 143.233 211 139.953C217.968 135.131 225.301 130.797 233 126.953Z" fill="#6E523D"/>
<path fill-rule="evenodd" clip-rule="evenodd" d="M233 121.953C233 123.62 233 125.286 233 126.953C225.301 130.797 217.968 135.131 211 139.953C207.134 141.717 203.467 143.717 200 145.953C195.963 148.633 191.963 151.299 188 153.953C186.627 153.796 185.293 153.963 184 154.453C178.885 157.087 174.219 160.253 170 163.953C159.063 169.291 148.73 175.291 139 181.953C132.848 184.441 126.848 187.108 121 189.953C120.004 190.039 119.171 189.705 118.5 188.953C118.01 190.246 117.843 191.58 118 192.953C115.49 193.399 113.49 192.733 112 190.953C125.113 184.858 137.78 177.858 150 169.953C150.793 170.384 151.627 170.718 152.5 170.953C154.557 169.73 156.723 168.73 159 167.953C158.174 167.002 158.008 166.002 158.5 164.953C161.915 163.33 165.082 161.33 168 158.953C169.69 158.597 170.69 157.597 171 155.953C172.373 156.11 173.707 155.943 175 155.453C180.111 151.805 185.777 149.639 192 148.953C191.851 147.901 192.017 146.901 192.5 145.953C194 145.12 195.167 143.953 196 142.453C199.67 139.962 203.67 138.129 208 136.953C215.674 130.562 224.007 125.562 233 121.953Z" fill="#709817"/>
<path fill-rule="evenodd" clip-rule="evenodd" d="M111 166.953C113.942 166.149 116.609 164.815 119 162.953C124.19 162.847 129.19 161.847 134 159.953C135.556 161 137.223 161.667 139 161.953C139 160.62 139 159.286 139 157.953C145.657 158.67 152.323 159.337 159 159.953C158.051 157.716 157.384 155.382 157 152.953C161.706 153.138 165.373 155.138 168 158.953C165.082 161.33 161.915 163.33 158.5 164.953C158.008 166.002 158.174 167.002 159 167.953C156.723 168.73 154.557 169.73 152.5 170.953C151.627 170.718 150.793 170.384 150 169.953C137.78 177.858 125.113 184.858 112 190.953C74.932 169.913 37.932 148.58 1 126.953C1 126.62 1 126.286 1 125.953C4.618 124.316 7.951 122.316 11 119.953C19.635 115.301 28.302 110.634 37 105.953C37.996 106.039 38.829 105.705 39.5 104.953C39.997 107.263 40.163 109.596 40 111.953C33.053 115.925 26.053 119.591 19 122.953C18.781 124.128 19.114 125.128 20 125.953C22.804 127.591 25.471 129.424 28 131.453C35.547 135.393 43.213 139.06 51 142.453C52.333 144.453 54 146.12 56 147.453C61.12 149.513 66.12 151.846 71 154.453C76.814 159.217 83.147 163.217 90 166.453C96.992 166.953 103.992 167.119 111 166.953Z" fill="#85B429"/>
<path fill-rule="evenodd" clip-rule="evenodd" d="M84 145.953C93.237 150.908 102.57 155.908 112 160.953C112.607 160.829 112.94 160.496 113 159.953C121 155.953 129 151.953 137 147.953C136.547 148.911 135.881 149.745 135 150.453C138.292 150.457 140.958 151.623 143 153.953C139.335 152.881 135.669 153.048 132 154.453C128.182 158.286 123.849 161.119 119 162.953C116.614 162.712 114.614 163.378 113 164.953C107.175 160.346 100.841 156.18 94 152.453C92.366 151.959 90.699 151.793 89 151.953C88.137 149.337 86.47 147.337 84 145.953Z" fill="#E1DBD0"/>
<path fill-rule="evenodd" clip-rule="evenodd" d="M188 153.954C187.102 156.919 188.435 158.253 192 157.954C192.667 161.954 191 163.621 187 162.954C187 161.287 187 159.621 187 157.954C184.766 157.834 182.599 158.167 180.5 158.954C177.089 160.918 173.589 162.585 170 163.954C174.219 160.254 178.885 157.088 184 154.454C185.293 153.964 186.627 153.797 188 153.954Z" fill="#6F5831"/>
<path fill-rule="evenodd" clip-rule="evenodd" d="M41 102.953C41 108.286 41 113.62 41 118.953C38.36 121.332 38.36 123.832 41 126.453C49.917 131.56 58.917 136.393 68 140.953C77.146 147.029 86.48 152.863 96 158.453C100.172 160.041 104.172 161.874 108 163.953C108.806 165.181 109.806 166.181 111 166.953C103.992 167.119 96.992 166.953 90 166.453C83.147 163.217 76.814 159.217 71 154.453C66.12 151.846 61.12 149.513 56 147.453C54 146.12 52.333 144.453 51 142.453C43.213 139.06 35.547 135.393 28 131.453C25.471 129.424 22.804 127.591 20 125.953C19.114 125.128 18.781 124.128 19 122.953C26.053 119.591 33.053 115.925 40 111.953C40.163 109.596 39.997 107.263 39.5 104.953C38.829 105.705 37.996 106.039 37 105.953C37.936 104.479 39.27 103.479 41 102.953Z" fill="#729B23"/>
<path fill-rule="evenodd" clip-rule="evenodd" d="M119 162.953C116.609 164.815 113.942 166.149 111 166.953C109.806 166.181 108.806 165.181 108 163.953C109.617 164.491 111.284 164.824 113 164.953C114.614 163.378 116.614 162.712 119 162.953Z" fill="#BED7AC"/>
<path fill-rule="evenodd" clip-rule="evenodd" d="M1 126.953C37.932 148.58 74.932 169.913 112 190.953C113.49 192.733 115.49 193.399 118 192.953C117.843 191.58 118.01 190.246 118.5 188.953C119.171 189.705 120.004 190.039 121 189.953C120.667 190.62 120.333 191.286 120 191.953C117.424 194.185 114.424 195.518 111 195.953C105.366 191.463 99.033 187.963 92 185.453C78.701 175.653 64.368 167.32 49 160.453C45.34 156.738 41.007 154.238 36 152.953C36 152.286 35.667 151.953 35 151.953C34.667 150.953 34 150.286 33 149.953C22.257 143.124 11.59 136.124 1 128.953C1 128.286 1 127.62 1 126.953Z" fill="#578009"/>
<path fill-rule="evenodd" clip-rule="evenodd" d="M1.00002 137.953C1.73002 141.484 2.39602 145.15 3.00002 148.953C5.59902 149.484 8.26502 149.651 11 149.453C12.167 149.953 13 150.786 13.5 151.953C13.833 151.62 14.167 151.286 14.5 150.953C14.983 151.901 15.149 152.901 15 153.953C19.055 154.277 23.055 153.944 27 152.953C25.077 152.145 23.077 151.645 21 151.453C19.491 147.784 20.824 146.284 25 146.953C27.656 149.742 30.989 151.409 35 151.953C35.667 151.953 36 152.286 36 152.953C37.982 155.59 40.648 156.923 44 156.953C44 157.953 44 158.953 44 159.953C40.543 160.413 38.877 162.413 39 165.953C40.333 165.953 41.667 165.953 43 165.953C43 167.286 43 168.62 43 169.953C45.412 169.784 47.579 170.45 49.5 171.953C50 171.786 50.5 171.62 51 171.453C50.143 170.764 49.477 169.931 49 168.953C51.53 168.321 53.863 167.321 56 165.953C56.808 166.261 57.475 166.761 58 167.453C56.043 169.199 55.043 171.365 55 173.953C56.967 173.714 58.801 174.047 60.5 174.953C60.692 172.876 61.192 170.876 62 168.953C64.439 170.48 66.439 172.48 68 174.953C65.757 175.927 63.424 176.261 61 175.953C61.079 177.383 60.746 178.717 60 179.953C61.229 180.734 62.562 181.234 64 181.453C61.931 181.777 61.598 182.611 63 183.953C65.53 184.585 67.863 185.585 70 186.953C72.339 185.729 74.672 185.729 77 186.953C78.353 187.977 79.02 189.31 79 190.953C77.397 190.765 76.063 191.265 75 192.453C77.861 192.993 80.528 193.993 83 195.453C82.248 196.124 81.914 196.957 82 197.953C59.802 185.021 37.468 172.355 15 159.953C10.898 157.061 6.56502 154.394 2.00002 151.953C1.00702 147.333 0.673019 142.667 1.00002 137.953Z" fill="#573927"/>
<path fill-rule="evenodd" clip-rule="evenodd" d="M36 152.953C41.007 154.238 45.34 156.738 49 160.453C64.368 167.32 78.701 175.653 92 185.453C99.033 187.963 105.366 191.463 111 195.953C112.146 202.317 112.48 208.65 112 214.953C102 209.286 92 203.62 82 197.953C81.914 196.957 82.248 196.124 83 195.453C80.528 193.993 77.861 192.993 75 192.453C76.063 191.265 77.397 190.765 79 190.953C79.02 189.31 78.353 187.977 77 186.953C74.672 185.729 72.339 185.729 70 186.953C67.863 185.585 65.53 184.585 63 183.953C61.598 182.611 61.931 181.777 64 181.453C62.562 181.234 61.229 180.734 60 179.953C60.746 178.717 61.079 177.383 61 175.953C63.424 176.261 65.757 175.927 68 174.953C66.439 172.48 64.439 170.48 62 168.953C61.192 170.876 60.692 172.876 60.5 174.953C58.801 174.047 56.967 173.714 55 173.953C55.043 171.365 56.043 169.199 58 167.453C57.475 166.761 56.808 166.261 56 165.953C53.863 167.321 51.53 168.321 49 168.953C49.477 169.931 50.143 170.764 51 171.453C50.5 171.62 50 171.786 49.5 171.953C47.579 170.45 45.412 169.784 43 169.953C43 168.62 43 167.286 43 165.953C41.667 165.953 40.333 165.953 39 165.953C38.877 162.413 40.543 160.413 44 159.953C44 158.953 44 157.953 44 156.953C40.648 156.923 37.982 155.59 36 152.953Z" fill="#563A22"/>
<path fill-rule="evenodd" clip-rule="evenodd" d="M139 181.953C133.659 187.124 127.325 190.457 120 191.953C120.333 191.286 120.667 190.62 121 189.953C126.848 187.108 132.848 184.441 139 181.953Z" fill="#6B652B"/>
</svg>
