<svg width="234" height="185" viewBox="0 0 234 185" fill="none" xmlns="http://www.w3.org/2000/svg">
<path fill-rule="evenodd" clip-rule="evenodd" d="M121.062 3C119.867 2.822 118.7 2.489 117.562 2C113.295 3.27 109.128 4.603 105.062 6C104.911 9.814 102.911 11.481 99.062 11C99.963 8.773 101.629 7.773 104.062 8C104.062 7 104.062 6 104.062 5C108.634 3.724 113.134 2.058 117.562 0C119.204 0.478 120.371 1.478 121.062 3Z" fill="#F0C8A6"/>
<path fill-rule="evenodd" clip-rule="evenodd" d="M177.062 43C177.062 44 177.062 45 177.062 46C180.365 45.061 183.698 44.061 187.062 43C187.228 48.344 187.061 53.677 186.562 59C186.229 55.667 185.895 52.333 185.562 49C183.982 52.472 183.649 56.138 184.562 60C185.487 60.547 186.32 61.213 187.062 62C182.14 63.352 179.14 66.352 178.062 71C178.385 67.274 178.051 63.607 177.062 60C176.044 60.693 175.044 61.359 174.062 62C173.395 62.333 172.729 62.667 172.062 63C170.443 61.262 168.443 60.762 166.062 61.5C164.349 65.176 163.016 69.009 162.062 73C164.479 76.408 164.479 79.908 162.062 83.5C164.106 85.776 166.439 87.61 169.062 89C168.624 90.006 167.958 90.006 167.062 89C166.078 91.928 165.745 94.928 166.062 98C165.062 98 164.062 98 163.062 98C163.062 95 163.062 92 163.062 89C162.062 89 161.062 89 160.062 89C160.375 92.542 160.041 95.875 159.062 99C159.228 90.993 159.062 82.993 158.562 75C158.313 73.876 157.813 72.876 157.062 72C156.455 72.124 156.122 72.457 156.062 73C155.729 73 155.395 73 155.062 73C151.948 73.055 149.614 74.388 148.062 77C146.953 77.057 145.953 77.39 145.062 78C143.097 85.26 142.43 92.927 143.062 101C140.356 101.075 137.689 101.408 135.062 102C135.391 96.294 135.057 90.628 134.062 85C133.044 85.693 132.044 86.359 131.062 87C129.366 85.371 128.366 85.704 128.062 88C125.812 88.63 123.812 89.63 122.062 91C121.236 95.816 120.736 100.816 120.562 106C120.063 102.348 119.897 98.682 120.062 95C117.283 95.221 114.616 94.888 112.062 94C112.062 91 112.062 88 112.062 85C123.735 78.848 135.068 72.014 146.062 64.5C151.805 63.461 156.472 60.627 160.062 56C165.516 53.638 170.849 51.305 176.062 49C176.33 47.401 175.996 46.068 175.062 45C175.395 44 176.062 43.333 177.062 43Z" fill="#E7A170"/>
<path fill-rule="evenodd" clip-rule="evenodd" d="M43.062 46C65.895 59.251 88.895 72.251 112.062 85C112.062 88 112.062 91 112.062 94C112.062 95.667 112.062 97.333 112.062 99C109.395 99 106.729 99 104.062 99C104.273 95.884 104.607 93.05 105.062 90.5C104.062 89.667 103.062 88.833 102.062 88C103.963 86.565 104.296 84.898 103.062 83C100.654 85.198 97.987 86.864 95.062 88C95.042 86.357 95.709 85.024 97.062 84C95.095 82.816 93.428 83.149 92.062 85C91.062 85 90.062 85 89.062 85C88.353 84.096 87.353 83.763 86.062 84C86.391 90.037 86.058 96.037 85.062 102C84.38 102.743 83.713 103.409 83.062 104C80.538 100.284 78.371 96.284 76.562 92C76.229 92.667 75.895 93.333 75.562 94C73.644 92.958 71.811 91.792 70.062 90.5C72.623 87.071 71.957 84.237 68.062 82C66.98 77.413 65.98 72.747 65.062 68C62.815 67.126 60.482 66.792 58.062 67C56.761 65.86 55.594 64.527 54.562 63C53.47 72.26 53.97 81.26 56.062 90C53.758 90.663 51.425 91.33 49.062 92C47.72 90.495 46.054 89.828 44.062 90C44.129 85.568 44.463 81.068 45.062 76.5C42.136 71.443 43.302 70.61 48.562 74C48.873 72.758 48.373 71.758 47.062 71C47.408 69.804 47.908 69.804 48.562 71C49.157 69.601 48.99 68.268 48.062 67C48.729 66.667 49.395 66.333 50.062 66C49.395 65.333 48.729 64.667 48.062 64C49.203 63.075 49.203 62.241 48.062 61.5C46.337 61.909 44.67 61.742 43.062 61C43.193 56.181 43.193 51.181 43.062 46Z" fill="#C47C4D"/>
<path fill-rule="evenodd" clip-rule="evenodd" d="M191.062 67C201.96 72.044 212.294 78.044 222.062 85C217.727 82.747 213.06 81.414 208.062 81C208.141 79.57 207.808 78.236 207.062 77C202.296 74.71 197.296 73.044 192.062 72C192.76 76.398 193.76 80.731 195.062 85C195.493 87.893 194.493 89.893 192.062 91C193.307 87.812 192.807 84.812 190.562 82C190.103 78.161 189.603 74.328 189.062 70.5C189.17 68.819 189.837 67.652 191.062 67Z" fill="#91B540"/>
<path fill-rule="evenodd" clip-rule="evenodd" d="M222.062 85C225.418 86.111 228.418 87.777 231.062 90C231.062 91.667 231.062 93.333 231.062 95C227.503 94.908 224.17 95.741 221.062 97.5C220.225 98.511 219.892 99.678 220.062 101C217.325 100.901 214.658 101.235 212.062 102C211.976 101.004 212.31 100.171 213.062 99.5C205.679 97.718 199.179 99.218 193.562 104C193.079 104.948 192.913 105.948 193.062 107C192.062 107 191.062 107 190.062 107C190.062 109.667 190.062 112.333 190.062 115C188.791 117.069 187.124 118.735 185.062 120C185.942 113.377 186.275 106.711 186.062 100C183.958 100.299 181.958 99.966 180.062 99C180.229 98.667 180.395 98.333 180.562 98C183.186 96.465 186.019 95.298 189.062 94.5C189.867 93.387 190.534 92.221 191.062 91C191.395 91 191.729 91 192.062 91C194.493 89.893 195.493 87.893 195.062 85C193.76 80.731 192.76 76.398 192.062 72C197.296 73.044 202.296 74.71 207.062 77C207.808 78.236 208.141 79.57 208.062 81C213.06 81.414 217.727 82.747 222.062 85Z" fill="#85B32A"/>
<path fill-rule="evenodd" clip-rule="evenodd" d="M155.062 73C155.062 82.667 155.062 92.333 155.062 102C154.069 93.182 153.735 84.182 154.062 75C151.877 75.204 149.877 75.87 148.062 77C149.614 74.388 151.948 73.055 155.062 73Z" fill="#BC957B"/>
<path fill-rule="evenodd" clip-rule="evenodd" d="M159.062 99C157.517 98.27 156.684 96.937 156.562 95C156.062 87.674 155.896 80.341 156.062 73C156.122 72.457 156.455 72.124 157.062 72C157.813 72.876 158.313 73.876 158.562 75C159.062 82.993 159.228 90.993 159.062 99Z" fill="#C77A45"/>
<path fill-rule="evenodd" clip-rule="evenodd" d="M58.062 67.0003C60.482 66.7923 62.815 67.1263 65.062 68.0003C65.98 72.7473 66.98 77.4133 68.062 82.0003C68.617 85.5123 67.95 88.5123 66.062 91.0003C66.386 86.9453 66.053 82.9453 65.062 79.0003C62.837 80.6103 60.503 81.9433 58.062 83.0003C58.062 77.6673 58.062 72.3333 58.062 67.0003Z" fill="#A77353"/>
<path fill-rule="evenodd" clip-rule="evenodd" d="M188.062 64.9995C189.589 64.9265 190.589 65.5935 191.062 66.9995C189.837 67.6515 189.17 68.8185 189.062 70.4995C189.603 74.3275 190.103 78.1605 190.562 81.9995C192.807 84.8115 193.307 87.8115 192.062 90.9995C191.729 90.9995 191.395 90.9995 191.062 90.9995C190.729 90.9995 190.395 90.9995 190.062 90.9995C191.828 88.0325 191.161 86.0325 188.062 84.9995C188.062 78.3325 188.062 71.6665 188.062 64.9995Z" fill="#A2B054"/>
<path fill-rule="evenodd" clip-rule="evenodd" d="M58.062 67C58.062 72.333 58.062 77.667 58.062 83C59.07 87.341 61.736 90.008 66.062 91C66.219 92.373 66.052 93.707 65.562 95C62.486 93.074 59.32 91.408 56.062 90C53.97 81.26 53.47 72.26 54.562 63C55.594 64.527 56.761 65.86 58.062 67Z" fill="#E6A06F"/>
<path fill-rule="evenodd" clip-rule="evenodd" d="M178.062 71C178.386 75.055 178.053 79.055 177.062 83C175.597 81.076 173.93 80.743 172.062 82C172.062 81.333 172.062 80.667 172.062 80C173.531 74.114 174.197 68.114 174.062 62C175.044 61.359 176.044 60.693 177.062 60C178.051 63.607 178.385 67.274 178.062 71Z" fill="#BD7A52"/>
<path fill-rule="evenodd" clip-rule="evenodd" d="M121.062 3C143.752 14.85 166.085 27.517 188.062 41C187.224 41.342 186.89 42.008 187.062 43C183.698 44.061 180.365 45.061 177.062 46C177.062 45 177.062 44 177.062 43C179.432 42.517 180.099 41.351 179.062 39.5C158.349 28.059 137.849 16.226 117.562 4C117.163 4.228 116.997 4.562 117.062 5C115.419 4.98 114.086 5.647 113.062 7C111.597 5.891 110.597 6.391 110.062 8.5C106.602 10.133 103.268 11.966 100.062 14C98.166 14.966 96.166 15.299 94.062 15C94.129 18.266 92.463 19.766 89.062 19.5C76.099 27.528 63.099 35.694 50.062 44C52.545 46.406 55.212 48.573 58.062 50.5C66.683 54.477 75.016 58.977 83.062 64C83.813 64.876 84.313 65.876 84.562 67C85.573 66.163 86.74 65.83 88.062 66C88.062 67 88.062 68 88.062 69C89.435 68.843 90.769 69.01 92.062 69.5C98.377 73.326 104.71 77.159 111.062 81C118.254 76.101 125.921 71.935 134.062 68.5C136.828 67.129 139.161 65.296 141.062 63C146.61 60.15 152.276 57.316 158.062 54.5C158.865 50.086 159.365 45.586 159.562 41C160.675 41.805 161.841 42.472 163.062 43C163.062 45.333 163.062 47.667 163.062 50C165.803 49.793 168.136 48.793 170.062 47C171.729 46.333 173.395 45.667 175.062 45C175.996 46.068 176.33 47.401 176.062 49C170.849 51.305 165.516 53.638 160.062 56C156.472 60.627 151.805 63.461 146.062 64.5C135.068 72.014 123.735 78.848 112.062 85C88.895 72.251 65.895 59.251 43.062 46C43.002 45.457 42.669 45.124 42.062 45C41.395 54.158 40.729 63.158 40.062 72C39.896 62.661 40.062 53.327 40.562 44C59.932 32.715 79.432 21.715 99.062 11C102.911 11.481 104.911 9.814 105.062 6C109.128 4.603 113.295 3.27 117.562 2C118.7 2.489 119.867 2.822 121.062 3Z" fill="#F6B483"/>
<path fill-rule="evenodd" clip-rule="evenodd" d="M118.062 50.0001C125.891 54.0801 133.558 58.4131 141.062 63.0001C139.161 65.2961 136.828 67.1291 134.062 68.5001C125.921 71.9351 118.254 76.1011 111.062 81.0001C104.71 77.1591 98.377 73.3261 92.062 69.5001C90.769 69.0101 89.435 68.8431 88.062 69.0001C88.062 68.0001 88.062 67.0001 88.062 66.0001C96.595 61.7261 104.929 56.8931 113.062 51.5001C114.587 50.4911 116.254 49.9911 118.062 50.0001Z" fill="#EFF4F2"/>
<path fill-rule="evenodd" clip-rule="evenodd" d="M163.062 43C165.395 44.333 167.729 45.667 170.062 47C168.136 48.793 165.803 49.793 163.062 50C163.062 47.667 163.062 45.333 163.062 43Z" fill="#FDF4DB"/>
<path fill-rule="evenodd" clip-rule="evenodd" d="M177.062 43C176.062 43.333 175.395 44 175.062 45C173.395 45.667 171.729 46.333 170.062 47C167.729 45.667 165.395 44.333 163.062 43C161.841 42.472 160.675 41.805 159.562 41C159.365 45.586 158.865 50.086 158.062 54.5C152.276 57.316 146.61 60.15 141.062 63C133.558 58.413 125.891 54.08 118.062 50C117.079 35.078 116.746 20.078 117.062 5C116.997 4.562 117.163 4.228 117.562 4C137.849 16.226 158.349 28.059 179.062 39.5C180.099 41.351 179.432 42.517 177.062 43Z" fill="#C47D4D"/>
<path fill-rule="evenodd" clip-rule="evenodd" d="M131.062 31C131.395 31.667 131.729 32.333 132.062 33C130.919 36.476 130.752 40.142 131.562 44C134.202 45.82 137.035 47.154 140.062 48C140.347 49.788 140.014 51.455 139.062 53C135.161 50.892 131.495 48.559 128.062 46C128.702 40.84 129.702 35.84 131.062 31Z" fill="#ECB170"/>
<path fill-rule="evenodd" clip-rule="evenodd" d="M132.062 33C134.568 34.25 137.235 34.916 140.062 35C140.062 39.333 140.062 43.667 140.062 48C137.035 47.154 134.202 45.82 131.562 44C130.752 40.142 130.919 36.476 132.062 33Z" fill="#9AAD3A"/>
<path fill-rule="evenodd" clip-rule="evenodd" d="M133.062 36C133.72 36.898 134.386 37.898 135.062 39C135.648 38.791 136.148 38.457 136.562 38C137.764 40.177 138.264 42.511 138.062 45C136.418 45.214 134.918 44.88 133.562 44C133.065 41.354 132.898 38.687 133.062 36Z" fill="#86B528"/>
<path fill-rule="evenodd" clip-rule="evenodd" d="M132.062 25C134.205 26.574 136.538 27.908 139.062 29C140.028 30.896 140.361 32.896 140.062 35C137.235 34.916 134.568 34.25 132.062 33C131.729 32.333 131.395 31.667 131.062 31C130.767 28.765 131.101 26.765 132.062 25Z" fill="#FAF5E0"/>
<path fill-rule="evenodd" clip-rule="evenodd" d="M117.062 5.00044C116.746 20.0784 117.079 35.0784 118.062 50.0004C116.254 49.9914 114.587 50.4914 113.062 51.5004C104.929 56.8934 96.595 61.7264 88.062 66.0004C86.74 65.8304 85.573 66.1634 84.562 67.0004C84.313 65.8764 83.813 64.8764 83.062 64.0004C75.016 58.9774 66.683 54.4774 58.062 50.5004C55.212 48.5734 52.545 46.4064 50.062 44.0004C63.099 35.6944 76.099 27.5284 89.062 19.5004C92.463 19.7664 94.129 18.2664 94.062 15.0004C96.166 15.2994 98.166 14.9664 100.062 14.0004C103.268 11.9664 106.602 10.1334 110.062 8.50044C110.597 6.39144 111.597 5.89144 113.062 7.00044C114.086 5.64744 115.419 4.98044 117.062 5.00044Z" fill="#E8A070"/>
<path fill-rule="evenodd" clip-rule="evenodd" d="M132.062 25C131.101 26.765 130.767 28.765 131.062 31C129.702 35.84 128.702 40.84 128.062 46C127.323 46.131 126.656 45.964 126.062 45.5C126.713 38.057 127.38 30.557 128.062 23C129.588 23.494 130.921 24.161 132.062 25Z" fill="#E09865"/>
<path fill-rule="evenodd" clip-rule="evenodd" d="M66.062 91C61.736 90.008 59.07 87.341 58.062 83C60.503 81.943 62.837 80.61 65.062 79C66.053 82.945 66.386 86.945 66.062 91Z" fill="#B6A79E"/>
<path fill-rule="evenodd" clip-rule="evenodd" d="M155.062 102C156.27 102.734 157.603 103.067 159.062 103C153.934 103.473 148.934 104.806 144.062 107C143.756 97.25 144.089 87.584 145.062 78C145.953 77.39 146.953 77.057 148.062 77C149.877 75.87 151.877 75.204 154.062 75C153.735 84.182 154.069 93.182 155.062 102Z" fill="#AAABAA"/>
<path fill-rule="evenodd" clip-rule="evenodd" d="M135.062 102C135.062 103.667 135.062 105.333 135.062 107C133.438 107.14 132.272 106.473 131.562 105C131.063 99.009 130.896 93.009 131.062 87C132.044 86.359 133.044 85.693 134.062 85C135.057 90.628 135.391 96.294 135.062 102Z" fill="#C97C4B"/>
<path fill-rule="evenodd" clip-rule="evenodd" d="M128.062 88C130.018 93.912 130.685 100.245 130.062 107C127.395 107.667 124.729 108.333 122.062 109C122.062 103 122.062 97 122.062 91C123.812 89.63 125.812 88.63 128.062 88Z" fill="#ACACA8"/>
<path fill-rule="evenodd" clip-rule="evenodd" d="M188.062 41C188.062 49 188.062 57 188.062 65C188.062 71.667 188.062 78.333 188.062 85C188.148 85.996 187.814 86.829 187.062 87.5C178.371 91.841 170.037 96.675 162.062 102C160.953 102.057 159.953 102.39 159.062 103C159.062 101.667 159.062 100.333 159.062 99C160.041 95.875 160.375 92.542 160.062 89C161.062 89 162.062 89 163.062 89C163.062 92 163.062 95 163.062 98C164.062 98 165.062 98 166.062 98C165.745 94.928 166.078 91.928 167.062 89C167.958 90.006 168.624 90.006 169.062 89C166.439 87.61 164.106 85.776 162.062 83.5C164.479 79.908 164.479 76.408 162.062 73C163.016 69.009 164.349 65.176 166.062 61.5C168.443 60.762 170.443 61.262 172.062 63C170.935 63.622 169.935 64.455 169.062 65.5C171.077 67.055 171.41 68.889 170.062 71C169.062 70.333 168.062 69.667 167.062 69C166.078 71.928 165.745 74.928 166.062 78C164.352 79.96 164.019 82.127 165.062 84.5C167.585 84.24 169.918 83.407 172.062 82C173.93 80.743 175.597 81.076 177.062 83C178.053 79.055 178.386 75.055 178.062 71C179.14 66.352 182.14 63.352 187.062 62C186.32 61.213 185.487 60.547 184.562 60C183.649 56.138 183.982 52.472 185.562 49C185.895 52.333 186.229 55.667 186.562 59C187.061 53.677 187.228 48.344 187.062 43C186.89 42.008 187.224 41.342 188.062 41Z" fill="#E0A379"/>
<path fill-rule="evenodd" clip-rule="evenodd" d="M166.062 78C168.062 78.667 170.062 79.333 172.062 80C172.062 80.667 172.062 81.333 172.062 82C169.918 83.407 167.585 84.24 165.062 84.5C164.019 82.127 164.352 79.96 166.062 78Z" fill="#B5A595"/>
<path fill-rule="evenodd" clip-rule="evenodd" d="M174.062 62C174.197 68.114 173.531 74.114 172.062 80C170.062 79.333 168.062 78.667 166.062 78C165.745 74.928 166.078 71.928 167.062 69C168.062 69.667 169.062 70.333 170.062 71C171.41 68.889 171.077 67.055 169.062 65.5C169.935 64.455 170.935 63.622 172.062 63C172.729 62.667 173.395 62.333 174.062 62Z" fill="#895C35"/>
<path fill-rule="evenodd" clip-rule="evenodd" d="M43.062 46C43.193 51.181 43.193 56.181 43.062 61C44.67 61.742 46.337 61.909 48.062 61.5C49.203 62.241 49.203 63.075 48.062 64C48.729 64.667 49.395 65.333 50.062 66C49.395 66.333 48.729 66.667 48.062 67C48.99 68.268 49.157 69.601 48.562 71C47.908 69.804 47.408 69.804 47.062 71C48.373 71.758 48.873 72.758 48.562 74C43.302 70.61 42.136 71.443 45.062 76.5C44.463 81.068 44.129 85.568 44.062 90C46.054 89.828 47.72 90.495 49.062 92C51.425 91.33 53.758 90.663 56.062 90C59.32 91.408 62.486 93.074 65.562 95C66.052 93.707 66.219 92.373 66.062 91C67.95 88.512 68.617 85.512 68.062 82C71.957 84.237 72.623 87.071 70.062 90.5C71.811 91.792 73.644 92.958 75.562 94C75.895 93.333 76.229 92.667 76.562 92C78.371 96.284 80.538 100.284 83.062 104C82.51 105.831 82.51 107.497 83.062 109C83.712 107.316 84.712 105.983 86.062 105C86.499 106.574 87.499 107.741 89.062 108.5C91.891 109.747 94.557 111.247 97.062 113C98.028 111.104 98.361 109.104 98.062 107C98.062 101 98.062 95 98.062 89C95.485 89.045 93.485 88.045 92.062 86C92.062 85.667 92.062 85.333 92.062 85C93.428 83.149 95.095 82.816 97.062 84C95.709 85.024 95.042 86.357 95.062 88C97.987 86.864 100.654 85.198 103.062 83C104.296 84.898 103.963 86.565 102.062 88C103.062 88.833 104.062 89.667 105.062 90.5C104.607 93.05 104.273 95.884 104.062 99C106.729 99 109.395 99 112.062 99C111.332 100.545 109.999 101.378 108.062 101.5C109.01 101.983 110.01 102.149 111.062 102C111.062 103 111.062 104 111.062 105C107.877 104.52 105.043 105.186 102.562 107C102.063 112.323 101.896 117.656 102.062 123C101.062 123 100.062 123 99.062 123C78.861 112.073 59.195 100.406 40.062 88C40.062 85.667 40.062 83.333 40.062 81C40.062 78.333 40.062 75.667 40.062 73C40.062 72.667 40.062 72.333 40.062 72C40.729 63.158 41.395 54.158 42.062 45C42.669 45.124 43.002 45.457 43.062 46Z" fill="#C08052"/>
<path fill-rule="evenodd" clip-rule="evenodd" d="M92.0619 86C93.4849 88.045 95.4849 89.045 98.0619 89C98.0619 95 98.0619 101 98.0619 107C90.6329 106.439 87.9659 102.439 90.0619 95C90.0789 91.587 90.7459 88.587 92.0619 86Z" fill="#A9A9A8"/>
<path fill-rule="evenodd" clip-rule="evenodd" d="M145.062 78C144.089 87.584 143.756 97.25 144.062 107C144.222 108.699 144.056 110.366 143.562 112C139.835 114.259 136.335 116.593 133.062 119C129.829 120.229 126.829 121.896 124.062 124C120.964 124.716 118.298 126.216 116.062 128.5C114.769 128.99 113.435 129.157 112.062 129C111.985 127.75 111.318 126.917 110.062 126.5C110.519 126.086 110.853 125.586 111.062 125C110.276 119.719 109.776 114.385 109.562 109C108.118 107.345 106.284 106.678 104.062 107C103.596 112.991 103.263 118.991 103.062 125C101.409 124.84 100.076 124.174 99.062 123C100.062 123 101.062 123 102.062 123C101.896 117.656 102.063 112.323 102.562 107C105.043 105.186 107.877 104.52 111.062 105C111.062 104 111.062 103 111.062 102C110.01 102.149 109.01 101.983 108.062 101.5C109.999 101.378 111.332 100.545 112.062 99C112.062 97.333 112.062 95.667 112.062 94C114.616 94.888 117.283 95.221 120.062 95C119.897 98.682 120.063 102.348 120.562 106C120.736 100.816 121.236 95.816 122.062 91C122.062 97 122.062 103 122.062 109C124.729 108.333 127.395 107.667 130.062 107C130.685 100.245 130.018 93.912 128.062 88C128.366 85.704 129.366 85.371 131.062 87C130.896 93.009 131.063 99.009 131.562 105C132.272 106.473 133.438 107.14 135.062 107C135.062 105.333 135.062 103.667 135.062 102C137.689 101.408 140.356 101.075 143.062 101C142.43 92.927 143.097 85.26 145.062 78Z" fill="#DFA075"/>
<path fill-rule="evenodd" clip-rule="evenodd" d="M188.062 85C191.161 86.033 191.828 88.033 190.062 91C186.524 93.269 182.857 95.269 179.062 97C177.363 97.12 175.697 97.454 174.062 98C171.875 99.922 169.542 101.588 167.062 103C165.27 103.134 163.604 102.801 162.062 102C170.037 96.675 178.371 91.841 187.062 87.5C187.814 86.829 188.148 85.996 188.062 85Z" fill="#DEDAD4"/>
<path fill-rule="evenodd" clip-rule="evenodd" d="M40.062 73C40.062 75.667 40.062 78.333 40.062 81C35.394 83.623 30.394 85.79 25.062 87.5C23.17 90.319 20.503 92.153 17.062 93C27.784 98.806 38.451 104.806 49.062 111C49.754 110.475 50.254 109.808 50.562 109C51.057 110.973 51.224 112.973 51.062 115C52.395 115 53.729 115 55.062 115C54.905 113.627 55.072 112.293 55.562 111C56.108 116.546 59.108 119.879 64.562 121C66.057 122.61 66.223 124.276 65.062 126C66.285 127.114 67.618 127.281 69.062 126.5C67.851 125.607 67.851 124.774 69.062 124C70.298 124.746 71.632 125.079 73.062 125C72.843 123.825 73.176 122.825 74.062 122C74.694 124.561 75.694 126.895 77.062 129C73.048 128.834 69.048 129.001 65.062 129.5C63.825 129.732 62.825 130.232 62.062 131C60.5 130.767 59.167 130.1 58.062 129C54.099 126.726 50.099 124.393 46.062 122C45.311 122.876 44.811 123.876 44.562 125C44.356 122.564 43.189 120.898 41.062 120C39.134 118.026 36.801 116.526 34.062 115.5C32.669 114.329 31.835 112.829 31.562 111C31.254 111.808 30.754 112.475 30.062 113C29.062 112.333 28.062 111.667 27.062 111C25.831 109.849 25.831 108.683 27.062 107.5C22.918 108.842 19.251 108.009 16.062 105C11.088 101.509 5.75401 98.509 0.0620117 96C8.86701 90.093 17.867 84.427 27.062 79C31.297 76.715 35.631 74.715 40.062 73Z" fill="#89B434"/>
<path fill-rule="evenodd" clip-rule="evenodd" d="M89.0619 84.9997C89.2279 91.6747 89.0619 98.3417 88.5619 105C87.7919 103.902 86.9589 103.902 86.0619 105C84.7119 105.983 83.7119 107.316 83.0619 109C82.5099 107.497 82.5099 105.831 83.0619 104C83.7129 103.409 84.3799 102.743 85.0619 102C86.0579 96.0367 86.3909 90.0367 86.0619 83.9997C87.3529 83.7627 88.3529 84.0957 89.0619 84.9997Z" fill="#DF9C6D"/>
<path fill-rule="evenodd" clip-rule="evenodd" d="M231.062 90C232.775 91.135 233.442 92.802 233.062 95C229.438 97.752 225.438 99.919 221.062 101.5C218.944 102.549 217.278 104.049 216.062 106C213.461 107.301 210.794 108.634 208.062 110C207.15 108.762 206.983 107.428 207.562 106C209.229 104.767 210.729 103.433 212.062 102C214.658 101.235 217.325 100.901 220.062 101C219.892 99.678 220.225 98.511 221.062 97.5C224.17 95.741 227.503 94.908 231.062 95C231.062 93.333 231.062 91.667 231.062 90Z" fill="#71971B"/>
<path fill-rule="evenodd" clip-rule="evenodd" d="M40.062 81C40.062 83.333 40.062 85.667 40.062 88C37.946 89.588 37.613 91.588 39.062 94C62.093 108.028 85.427 121.361 109.062 134C109.062 134.667 109.395 135 110.062 135C103.241 136.155 96.241 136.321 89.062 135.5C85.276 132.856 81.276 130.69 77.062 129C75.694 126.895 74.694 124.561 74.062 122C73.176 122.825 72.843 123.825 73.062 125C71.632 125.079 70.298 124.746 69.062 124C67.851 124.774 67.851 125.607 69.062 126.5C67.618 127.281 66.285 127.114 65.062 126C66.223 124.276 66.057 122.61 64.562 121C59.108 119.879 56.108 116.546 55.562 111C55.072 112.293 54.905 113.627 55.062 115C53.729 115 52.395 115 51.062 115C51.224 112.973 51.057 110.973 50.562 109C50.254 109.808 49.754 110.475 49.062 111C38.451 104.806 27.784 98.806 17.062 93C20.503 92.153 23.17 90.319 25.062 87.5C30.394 85.79 35.394 83.623 40.062 81Z" fill="#749A2B"/>
<path fill-rule="evenodd" clip-rule="evenodd" d="M40.0621 88C59.1951 100.406 78.8611 112.073 99.0621 123C100.076 124.174 101.409 124.84 103.062 125C105.618 126.655 108.285 128.321 111.062 130C111.669 129.876 112.002 129.543 112.062 129C113.435 129.157 114.769 128.99 116.062 128.5C118.298 126.216 120.964 124.716 124.062 124C124.443 126.442 123.776 127.109 122.062 126C119.597 126.632 117.931 128.132 117.062 130.5C115.769 130.99 114.435 131.157 113.062 131C113.062 132 113.062 133 113.062 134C111.729 134 110.395 134 109.062 134C85.4271 121.361 62.0931 108.028 39.0621 94C37.6131 91.588 37.9461 89.588 40.0621 88Z" fill="#C8CABC"/>
<path fill-rule="evenodd" clip-rule="evenodd" d="M0.0620117 96C5.75401 98.509 11.088 101.509 16.062 105C16.062 106.333 16.062 107.667 16.062 109C18.054 108.828 19.72 109.495 21.062 111C21.754 110.475 22.254 109.808 22.562 109C24.231 110.669 25.064 112.669 25.062 115C23.854 114.266 22.521 113.933 21.062 114C20.729 113 20.062 112.333 19.062 112C12.788 108.677 6.45501 105.343 0.0620117 102C0.0620117 100 0.0620117 98 0.0620117 96Z" fill="#5F7D19"/>
<path fill-rule="evenodd" clip-rule="evenodd" d="M155.062 73C155.395 73 155.729 73 156.062 73C155.896 80.341 156.062 87.674 156.562 95C156.684 96.937 157.517 98.27 159.062 99C159.062 100.333 159.062 101.667 159.062 103C157.603 103.067 156.27 102.734 155.062 102C155.062 92.333 155.062 82.667 155.062 73Z" fill="#BA805B"/>
<path fill-rule="evenodd" clip-rule="evenodd" d="M175.062 100C173.98 101.094 173.314 102.427 173.062 104C175.025 106.385 175.859 109.052 175.562 112C167.69 117.59 159.19 121.924 150.062 125C150.745 123.324 152.079 122.657 154.062 123C158.765 119.986 163.432 116.986 168.062 114C168.062 113.333 168.395 113 169.062 113C171.126 112.442 172.792 111.275 174.062 109.5C172.076 107.753 170.076 105.92 168.062 104C170.287 102.39 172.621 101.057 175.062 100Z" fill="#95B356"/>
<path fill-rule="evenodd" clip-rule="evenodd" d="M233.062 95C233.062 95.667 233.062 96.333 233.062 97C229.273 99.69 225.273 102.19 221.062 104.5C223.207 105.243 223.373 106.076 221.562 107C219.796 106.267 217.963 105.933 216.062 106C217.278 104.049 218.944 102.549 221.062 101.5C225.438 99.919 229.438 97.752 233.062 95Z" fill="#6F5E33"/>
<path fill-rule="evenodd" clip-rule="evenodd" d="M179.062 97C177.729 98 176.395 99 175.062 100C172.621 101.057 170.287 102.39 168.062 104C170.076 105.92 172.076 107.753 174.062 109.5C172.792 111.275 171.126 112.442 169.062 113C169.173 112.383 169.506 111.883 170.062 111.5C168.595 110.402 167.761 108.902 167.562 107C165.518 108.272 163.684 107.939 162.062 106C164.217 105.499 165.884 104.499 167.062 103C169.542 101.588 171.875 99.922 174.062 98C175.697 97.454 177.363 97.12 179.062 97Z" fill="#DEEBDA"/>
<path fill-rule="evenodd" clip-rule="evenodd" d="M212.062 102C210.729 103.433 209.229 104.767 207.562 106C206.983 107.428 207.15 108.762 208.062 110C206.663 111.39 204.996 112.39 203.062 113C201.062 113.667 199.062 114.333 197.062 115C197.219 113.627 197.052 112.293 196.562 111C194.236 112.313 192.903 114.313 192.562 117C192.145 115.744 191.312 115.077 190.062 115C190.062 112.333 190.062 109.667 190.062 107C191.062 107 192.062 107 193.062 107C192.913 105.948 193.079 104.948 193.562 104C199.179 99.2181 205.679 97.7181 213.062 99.5001C212.31 100.171 211.976 101.004 212.062 102Z" fill="#85B034"/>
<path fill-rule="evenodd" clip-rule="evenodd" d="M89.062 85C90.062 85 91.062 85 92.062 85C92.062 85.333 92.062 85.667 92.062 86C90.746 88.587 90.079 91.587 90.062 95C87.966 102.439 90.633 106.439 98.062 107C98.361 109.104 98.028 111.104 97.062 113C94.557 111.247 91.891 109.747 89.062 108.5C87.499 107.741 86.499 106.574 86.062 105C86.959 103.902 87.792 103.902 88.562 105C89.062 98.342 89.228 91.675 89.062 85Z" fill="#E3AF87"/>
<path fill-rule="evenodd" clip-rule="evenodd" d="M16.062 105C19.251 108.009 22.918 108.842 27.062 107.5C25.831 108.683 25.831 109.849 27.062 111C28.062 111.667 29.062 112.333 30.062 113C30.754 112.475 31.254 111.808 31.562 111C31.835 112.829 32.669 114.329 34.062 115.5C36.801 116.526 39.134 118.026 41.062 120C39.363 120.16 37.696 119.994 36.062 119.5C33.414 117.337 30.414 115.837 27.062 115C26.395 115 25.729 115 25.062 115C25.064 112.669 24.231 110.669 22.562 109C22.254 109.808 21.754 110.475 21.062 111C19.72 109.495 18.054 108.828 16.062 109C16.062 107.667 16.062 106.333 16.062 105Z" fill="#69931E"/>
<path fill-rule="evenodd" clip-rule="evenodd" d="M162.062 102C163.604 102.801 165.27 103.134 167.062 103C165.884 104.499 164.217 105.499 162.062 106C163.684 107.939 165.518 108.272 167.562 107C167.761 108.902 168.595 110.402 170.062 111.5C169.506 111.883 169.173 112.383 169.062 113C168.395 113 168.062 113.333 168.062 114C164.003 115.521 160.003 117.354 156.062 119.5C154.739 120.316 154.073 121.483 154.062 123C152.079 122.657 150.745 123.324 150.062 125C148.957 126.1 147.624 126.767 146.062 127C145.729 126.333 145.395 125.667 145.062 125C143.235 123.568 141.568 121.901 140.062 120C137.819 119.026 135.486 118.692 133.062 119C136.335 116.593 139.835 114.259 143.562 112C144.056 110.366 144.222 108.699 144.062 107C148.934 104.806 153.934 103.473 159.062 103C159.953 102.39 160.953 102.057 162.062 102Z" fill="#E1E8E9"/>
<path fill-rule="evenodd" clip-rule="evenodd" d="M168.062 114C163.432 116.986 158.765 119.986 154.062 123C154.073 121.483 154.739 120.316 156.062 119.5C160.003 117.354 164.003 115.521 168.062 114Z" fill="#CADCB8"/>
<path fill-rule="evenodd" clip-rule="evenodd" d="M21.062 114C22.521 113.933 23.854 114.266 25.062 115C25.729 115 26.395 115 27.062 115C31.294 118.599 35.627 121.932 40.062 125C30.036 127.818 23.703 124.151 21.062 114Z" fill="#593F27"/>
<path fill-rule="evenodd" clip-rule="evenodd" d="M233.062 97C233.062 100.667 233.062 104.333 233.062 108C233.225 110.357 233.059 112.69 232.562 115C230.75 116.477 228.917 117.81 227.062 119C215.26 125.402 203.593 132.069 192.062 139C191.905 137.627 192.072 136.293 192.562 135C196.984 131.881 196.984 128.881 192.562 126C192.068 124.366 191.902 122.699 192.062 121C192.122 120.457 192.455 120.124 193.062 120C195.971 126.505 197.304 125.838 197.062 118C198.237 118.219 199.237 117.886 200.062 117C201.388 115.858 202.388 114.524 203.062 113C204.996 112.39 206.663 111.39 208.062 110C210.794 108.634 213.461 107.301 216.062 106C217.963 105.933 219.796 106.267 221.562 107C223.373 106.076 223.207 105.243 221.062 104.5C225.273 102.19 229.273 99.69 233.062 97Z" fill="#725747"/>
<path fill-rule="evenodd" clip-rule="evenodd" d="M133.062 119C135.486 118.692 137.819 119.026 140.062 120C141.568 121.901 143.235 123.568 145.062 125C142.184 124.13 139.517 122.797 137.062 121C136.38 121.743 135.713 122.409 135.062 123C131.389 124.5 128.056 126.5 125.062 129C124.01 128.851 123.01 129.017 122.062 129.5C118.553 132.535 114.553 134.368 110.062 135C109.395 135 109.062 134.667 109.062 134C110.395 134 111.729 134 113.062 134C113.062 133 113.062 132 113.062 131C114.435 131.157 115.769 130.99 117.062 130.5C117.931 128.132 119.597 126.632 122.062 126C123.776 127.109 124.443 126.442 124.062 124C126.829 121.896 129.829 120.229 133.062 119Z" fill="#CDDAC9"/>
<path fill-rule="evenodd" clip-rule="evenodd" d="M19.062 112C20.062 112.333 20.729 113 21.062 114C23.703 124.151 30.036 127.818 40.062 125C41.741 124.785 42.741 125.452 43.062 127C36.968 128.425 30.968 127.925 25.062 125.5C21.294 121.796 19.294 117.296 19.062 112Z" fill="#725643"/>
<path fill-rule="evenodd" clip-rule="evenodd" d="M112.062 129C112.002 129.543 111.669 129.876 111.062 130C108.285 128.321 105.618 126.655 103.062 125C103.263 118.991 103.596 112.991 104.062 107C106.284 106.678 108.118 107.345 109.562 109C109.776 114.385 110.276 119.719 111.062 125C110.853 125.586 110.519 126.086 110.062 126.5C111.318 126.917 111.985 127.75 112.062 129Z" fill="#BC7C53"/>
<path fill-rule="evenodd" clip-rule="evenodd" d="M135.062 123C135.062 124 135.062 125 135.062 126C131.739 126.992 128.406 127.992 125.062 129C128.056 126.5 131.389 124.5 135.062 123Z" fill="#91B057"/>
<path fill-rule="evenodd" clip-rule="evenodd" d="M203.062 113C202.388 114.524 201.388 115.858 200.062 117C199.237 117.886 198.237 118.219 197.062 118C197.304 125.838 195.971 126.505 193.062 120C192.455 120.124 192.122 120.457 192.062 121C188.455 123.552 186.788 126.885 187.062 131C186.062 129.333 184.729 128 183.062 127C180.399 129.84 177.066 131.174 173.062 131C181.249 125.987 189.249 120.653 197.062 115C199.062 114.333 201.062 113.667 203.062 113Z" fill="#6E5C39"/>
<path fill-rule="evenodd" clip-rule="evenodd" d="M27.062 115C30.414 115.837 33.414 117.337 36.062 119.5C37.696 119.994 39.363 120.16 41.062 120C43.189 120.898 44.356 122.564 44.562 125C44.811 123.876 45.311 122.876 46.062 122C50.099 124.393 54.099 126.726 58.062 129C58.232 130.322 57.899 131.489 57.062 132.5C61.366 134.434 65.699 136.267 70.062 138C71.799 139.397 73.133 141.064 74.062 143C68.283 140.427 62.616 137.594 57.062 134.5C56.225 133.489 55.892 132.322 56.062 131C51.639 129.955 47.306 128.622 43.062 127C42.741 125.452 41.741 124.785 40.062 125C35.627 121.932 31.294 118.599 27.062 115Z" fill="#5A7E13"/>
<path fill-rule="evenodd" clip-rule="evenodd" d="M190.062 91C190.395 91 190.729 91 191.062 91C190.534 92.221 189.867 93.387 189.062 94.5C186.019 95.298 183.186 96.465 180.562 98C180.395 98.333 180.229 98.667 180.062 99C181.958 99.966 183.958 100.299 186.062 100C186.275 106.711 185.942 113.377 185.062 120C184.412 119.696 183.745 119.363 183.062 119C181.233 120.656 179.899 122.656 179.062 125C178.395 124.333 177.729 123.667 177.062 123C172.777 124.127 170.277 126.46 169.562 130C167.098 130.661 164.598 131.161 162.062 131.5C159.081 133.982 155.748 135.816 152.062 137C151.275 135.396 149.942 134.729 148.062 135C147.645 132.421 148.312 130.254 150.062 128.5C148.504 128.29 147.171 127.79 146.062 127C147.624 126.767 148.957 126.1 150.062 125C159.19 121.924 167.69 117.59 175.562 112C175.859 109.052 175.025 106.385 173.062 104C173.314 102.427 173.98 101.094 175.062 100C176.395 99 177.729 98 179.062 97C182.857 95.269 186.524 93.269 190.062 91Z" fill="#89B434"/>
<path fill-rule="evenodd" clip-rule="evenodd" d="M145.062 125C145.395 125.667 145.729 126.333 146.062 127C147.171 127.79 148.504 128.29 150.062 128.5C148.312 130.254 147.645 132.421 148.062 135C149.942 134.729 151.275 135.396 152.062 137C149.951 138.236 147.951 139.736 146.062 141.5C139.079 144.991 132.079 148.491 125.062 152C122.882 153.761 121.216 155.927 120.062 158.5C118.778 159.184 117.611 159.017 116.562 158C115.232 159.082 113.732 159.749 112.062 160C95.26 150.276 78.593 140.609 62.062 131C62.825 130.232 63.825 129.732 65.062 129.5C69.048 129.001 73.048 128.834 77.062 129C81.276 130.69 85.276 132.856 89.062 135.5C96.241 136.321 103.241 136.155 110.062 135C114.553 134.368 118.553 132.535 122.062 129.5C123.01 129.017 124.01 128.851 125.062 129C128.406 127.992 131.739 126.992 135.062 126C135.062 125 135.062 124 135.062 123C135.713 122.409 136.38 121.743 137.062 121C139.517 122.797 142.184 124.13 145.062 125Z" fill="#85B428"/>
<path fill-rule="evenodd" clip-rule="evenodd" d="M197.062 115C189.249 120.653 181.249 125.987 173.062 131C171.689 130.843 170.355 131.01 169.062 131.5C163.262 135.473 157.596 139.306 152.062 143C144.598 145.561 137.932 149.395 132.062 154.5C128.806 156.002 125.473 157.335 122.062 158.5C119.858 161.094 117.192 162.928 114.062 164C112.386 163.317 111.719 161.983 112.062 160C113.732 159.749 115.232 159.082 116.562 158C117.611 159.017 118.778 159.184 120.062 158.5C121.216 155.927 122.882 153.761 125.062 152C132.079 148.491 139.079 144.991 146.062 141.5C147.951 139.736 149.951 138.236 152.062 137C155.748 135.816 159.081 133.982 162.062 131.5C164.598 131.161 167.098 130.661 169.562 130C170.277 126.46 172.777 124.127 177.062 123C177.729 123.667 178.395 124.333 179.062 125C179.899 122.656 181.233 120.656 183.062 119C183.745 119.363 184.412 119.696 185.062 120C187.124 118.735 188.791 117.069 190.062 115C191.312 115.077 192.145 115.744 192.562 117C192.903 114.313 194.236 112.313 196.562 111C197.052 112.293 197.219 113.627 197.062 115Z" fill="#6F9919"/>
<path fill-rule="evenodd" clip-rule="evenodd" d="M173.062 131C172.328 132.208 171.995 133.541 172.062 135C170.729 135 169.395 135 168.062 135C168.062 136.333 168.062 137.667 168.062 139C165.701 139.174 163.368 139.507 161.062 140C161.062 141 161.062 142 161.062 143C159.362 143.126 157.862 143.793 156.562 145C155.262 143.793 153.762 143.126 152.062 143C157.596 139.306 163.262 135.473 169.062 131.5C170.355 131.01 171.689 130.843 173.062 131Z" fill="#6E5631"/>
<path fill-rule="evenodd" clip-rule="evenodd" d="M0.0620786 102C6.45508 105.343 12.7881 108.677 19.0621 112C19.2941 117.296 21.2941 121.796 25.0621 125.5C30.9681 127.925 36.9681 128.425 43.0621 127C47.3061 128.622 51.6391 129.955 56.0621 131C55.8921 132.322 56.2251 133.489 57.0621 134.5C62.6161 137.594 68.2831 140.427 74.0621 143C79.3941 146.614 85.0611 149.947 91.0621 153C91.0621 154 91.0621 155 91.0621 156C94.2171 156.477 97.2171 157.477 100.062 159C103.713 161.492 107.713 163.492 112.062 165C112.062 165.333 112.062 165.667 112.062 166C112.385 172.19 112.052 178.19 111.062 184C73.9791 163.043 37.1451 141.71 0.562079 120C0.0630785 114.009 -0.103921 108.009 0.0620786 102Z" fill="#553924"/>
<path fill-rule="evenodd" clip-rule="evenodd" d="M58.062 129C59.167 130.1 60.5 130.767 62.062 131C78.593 140.609 95.26 150.276 112.062 160C111.719 161.983 112.386 163.317 114.062 164C113.72 164.838 113.054 165.172 112.062 165C107.713 163.492 103.713 161.492 100.062 159C97.587 156.259 94.587 154.259 91.062 153C85.061 149.947 79.394 146.614 74.062 143C73.133 141.064 71.799 139.397 70.062 138C65.699 136.267 61.366 134.434 57.062 132.5C57.899 131.489 58.232 130.322 58.062 129Z" fill="#577F09"/>
<path fill-rule="evenodd" clip-rule="evenodd" d="M152.062 143C145.852 146.518 139.852 150.518 134.062 155C126.872 159.056 119.539 162.723 112.062 166C112.062 165.667 112.062 165.333 112.062 165C113.054 165.172 113.72 164.838 114.062 164C117.192 162.928 119.858 161.094 122.062 158.5C125.473 157.335 128.806 156.002 132.062 154.5C137.932 149.395 144.598 145.561 152.062 143Z" fill="#6A622A"/>
<path fill-rule="evenodd" clip-rule="evenodd" d="M91.062 153C94.587 154.259 97.587 156.259 100.062 159C97.217 157.477 94.217 156.477 91.062 156C91.062 155 91.062 154 91.062 153Z" fill="#4E460F"/>
<path fill-rule="evenodd" clip-rule="evenodd" d="M192.062 121C191.902 122.699 192.068 124.366 192.562 126C196.984 128.881 196.984 131.881 192.562 135C192.072 136.293 191.905 137.627 192.062 139C165.423 154.322 138.756 169.655 112.062 185C111.455 184.876 111.122 184.543 111.062 184C112.052 178.19 112.385 172.19 112.062 166C119.539 162.723 126.872 159.056 134.062 155C139.852 150.518 145.852 146.518 152.062 143C153.762 143.126 155.262 143.793 156.562 145C157.862 143.793 159.362 143.126 161.062 143C161.062 142 161.062 141 161.062 140C163.368 139.507 165.701 139.174 168.062 139C168.062 137.667 168.062 136.333 168.062 135C169.395 135 170.729 135 172.062 135C171.995 133.541 172.328 132.208 173.062 131C177.066 131.174 180.399 129.84 183.062 127C184.729 128 186.062 129.333 187.062 131C186.788 126.885 188.455 123.552 192.062 121Z" fill="#6F513E"/>
</svg>
