<svg width="234" height="217" viewBox="0 0 234 217" fill="none" xmlns="http://www.w3.org/2000/svg">
<path fill-rule="evenodd" clip-rule="evenodd" d="M161.123 12C170.369 31.82 180.702 51.153 192.123 70C193.075 71.545 193.408 73.212 193.123 75C191.606 74.989 190.439 74.323 189.623 73C189.24 73.556 188.74 73.889 188.123 74C187.79 74 187.456 74 187.123 74C184.74 75.858 182.073 77.192 179.123 78C179.234 77.383 179.567 76.883 180.123 76.5C167.348 53.775 155.015 30.942 143.123 8C147.377 5.751 151.377 3.085 155.123 0C158.712 3.178 160.712 7.178 161.123 12Z" fill="#D9AF6E"/>
<path fill-rule="evenodd" clip-rule="evenodd" d="M141.123 9C147.076 21.184 153.409 33.184 160.123 45C159.456 45.333 158.79 45.667 158.123 46C155.634 45.741 153.967 46.741 153.123 49C150.326 49.467 148.992 51.133 149.123 54C142.722 41.644 136.222 29.311 129.623 17C128.931 17.525 128.431 18.192 128.123 19C137.559 36.207 146.726 53.54 155.623 71C158.653 76.174 161.819 81.174 165.123 86C161.295 89.418 156.962 92.084 152.123 94C144.587 78.595 136.753 63.262 128.623 48C124.347 40.431 119.847 33.098 115.123 26C114.79 26.167 114.456 26.333 114.123 26.5C126.275 48.974 138.275 71.474 150.123 94C146.876 97.635 142.876 100.302 138.123 102C135.444 93.642 131.444 85.976 126.123 79C118.385 63.191 110.385 47.524 102.123 32C110.001 26.748 118.001 21.581 126.123 16.5C131.414 14.521 136.414 12.021 141.123 9Z" fill="#D9B06E"/>
<path fill-rule="evenodd" clip-rule="evenodd" d="M143.123 8C155.015 30.942 167.348 53.775 180.123 76.5C179.567 76.883 179.234 77.383 179.123 78C178.79 78 178.456 78 178.123 78C175.693 73.463 173.026 69.13 170.123 65C166.982 58.246 163.648 51.579 160.123 45C153.409 33.184 147.076 21.184 141.123 9C141.79 8.667 142.456 8.333 143.123 8Z" fill="#F0C685"/>
<path fill-rule="evenodd" clip-rule="evenodd" d="M161.123 11.9995C162.119 11.9135 162.952 12.2475 163.623 12.9995C173.634 31.6905 183.634 50.3565 193.623 68.9995C194.412 71.2115 194.245 73.2115 193.123 74.9995C193.408 73.2115 193.075 71.5445 192.123 69.9995C180.702 51.1525 170.369 31.8195 161.123 11.9995Z" fill="#EBCC95"/>
<path fill-rule="evenodd" clip-rule="evenodd" d="M158.123 45.9999C159.253 47.8149 159.919 49.8149 160.123 51.9999C157.132 52.3339 154.799 51.3339 153.123 48.9999C153.967 46.7409 155.634 45.7409 158.123 45.9999Z" fill="#CBB392"/>
<path fill-rule="evenodd" clip-rule="evenodd" d="M98.123 33.0004C98.999 32.8694 99.666 33.2024 100.123 34.0004C106.229 45.8854 112.562 57.5524 119.123 69.0004C115.15 70.9874 111.15 72.9874 107.123 75.0004C100.582 63.9174 94.582 52.5844 89.123 41.0004C88.071 40.8514 87.071 41.0174 86.123 41.5004C98.212 63.5154 109.879 85.6824 121.123 108C120.953 109.322 121.286 110.489 122.123 111.5C118.977 114.406 115.31 116.24 111.123 117C98.55 94.1914 86.217 71.1914 74.123 48.0004C81.856 42.4734 89.856 37.4734 98.123 33.0004Z" fill="#D9AF6E"/>
<path fill-rule="evenodd" clip-rule="evenodd" d="M149.123 54C152.204 59.831 155.538 65.498 159.123 71C161.736 75.324 164.069 79.824 166.123 84.5C165.567 84.883 165.234 85.383 165.123 86C161.819 81.174 158.653 76.174 155.623 71C146.726 53.54 137.559 36.207 128.123 19C128.431 18.192 128.931 17.525 129.623 17C136.222 29.311 142.722 41.644 149.123 54Z" fill="#EEC686"/>
<path fill-rule="evenodd" clip-rule="evenodd" d="M160.123 45C163.648 51.579 166.982 58.246 170.123 65C170.209 65.996 169.875 66.829 169.123 67.5C166.394 67.505 164.394 68.671 163.123 71C161.758 72.307 160.425 72.307 159.123 71C155.538 65.498 152.204 59.831 149.123 54C148.992 51.133 150.326 49.467 153.123 49C154.799 51.334 157.132 52.334 160.123 52C159.919 49.815 159.253 47.815 158.123 46C158.79 45.667 159.456 45.333 160.123 45Z" fill="#B69257"/>
<path fill-rule="evenodd" clip-rule="evenodd" d="M71.123 48.9997C71.832 48.0957 72.832 47.7627 74.123 47.9997C86.217 71.1907 98.55 94.1907 111.123 117C109.561 116.767 108.228 116.1 107.123 115C100.92 102.262 94.42 89.5947 87.623 76.9997C82.335 67.4067 76.8352 58.0727 71.123 48.9997Z" fill="#EEC383"/>
<path fill-rule="evenodd" clip-rule="evenodd" d="M98.123 113C90.86 107.291 82.86 102.791 74.123 99.4997C72.515 96.8907 70.1817 95.5577 67.123 95.4997C58.3902 90.8087 50.0568 85.6428 42.123 79.9998C40.0193 75.0877 41.686 72.4208 47.123 71.9998C47.123 70.9998 47.123 69.9998 47.123 68.9998C51.8508 67.4678 56.1841 65.1348 60.123 61.9998C61.7897 60.3328 63.4563 58.6668 65.123 56.9997C67.123 55.6668 69.123 55.6668 71.123 56.9997C73.7804 62.9838 76.9471 68.6508 80.623 73.9998C84.891 84.5347 90.225 94.5347 96.623 104C97.214 106.775 98.381 109.275 100.123 111.5C99.787 112.53 99.12 113.03 98.123 113Z" fill="#D7AE6F"/>
<path fill-rule="evenodd" clip-rule="evenodd" d="M170.123 65C173.026 69.13 175.693 73.463 178.123 78C178.258 79.463 177.258 80.63 175.123 81.5C171.845 83.309 168.512 84.809 165.123 86C165.234 85.383 165.567 84.883 166.123 84.5C164.069 79.824 161.736 75.324 159.123 71C160.425 72.307 161.758 72.307 163.123 71C164.394 68.671 166.394 67.505 169.123 67.5C169.875 66.829 170.209 65.996 170.123 65Z" fill="#D8AE6D"/>
<path fill-rule="evenodd" clip-rule="evenodd" d="M71.1231 49C76.8353 58.073 82.3351 67.407 87.6231 77C94.4201 89.595 100.92 102.262 107.123 115C105.915 115.734 104.582 116.067 103.123 116C101.189 115.39 99.5221 114.39 98.1231 113C99.1201 113.03 99.7871 112.53 100.123 111.5C98.3811 109.275 97.2141 106.775 96.6231 104C90.2251 94.535 84.8911 84.535 80.6231 74C76.9472 68.651 73.7805 62.984 71.1231 57C69.1231 55.667 67.1231 55.667 65.1231 57C63.4564 58.667 61.7898 60.333 60.1231 62C56.1842 65.135 51.8509 67.468 47.1231 69C47.1231 70 47.1231 71 47.1231 72C41.6861 72.421 40.0194 75.088 42.1231 80C41.1307 87.816 40.7974 95.816 41.1231 104C40.7898 104 40.4564 104 40.1231 104C40.1231 95.333 40.1231 86.667 40.1231 78C33.0245 79.72 32.3578 78.22 38.1231 73.5C49.1527 65.324 60.1527 57.158 71.1231 49Z" fill="#C2995A"/>
<path fill-rule="evenodd" clip-rule="evenodd" d="M152.123 94C151.456 94 150.79 94 150.123 94C138.275 71.474 126.275 48.974 114.123 26.5C114.456 26.333 114.79 26.167 115.123 26C119.847 33.098 124.347 40.431 128.623 48C136.753 63.262 144.587 78.595 152.123 94Z" fill="#F1C786"/>
<path fill-rule="evenodd" clip-rule="evenodd" d="M68.1229 71C76.4726 71.387 80.4729 75.72 80.1229 84C79.9559 86.667 79.7899 89.333 79.6229 92C75.8374 92.049 72.3374 90.715 69.1229 88C68.1275 82.372 67.7941 76.706 68.1229 71Z" fill="#BA955A"/>
<path fill-rule="evenodd" clip-rule="evenodd" d="M193.123 75C192.414 75.904 191.414 76.237 190.123 76C190.139 82.828 190.306 89.495 190.623 96C196.32 99.958 202.486 102.791 209.123 104.5C208.666 104.914 208.332 105.414 208.123 106C210.144 107.355 211.811 109.021 213.123 111C212.014 110.943 211.014 110.61 210.123 110C203.294 105.751 196.294 101.751 189.123 98C188.156 90.086 187.822 82.086 188.123 74C188.74 73.889 189.24 73.556 189.623 73C190.439 74.323 191.606 74.989 193.123 75Z" fill="#FBF5E2"/>
<path fill-rule="evenodd" clip-rule="evenodd" d="M107.123 75.0001C110.633 82.6931 114.633 90.0261 119.123 97.0001C120.888 100.12 122.222 103.453 123.123 107C125.754 108.505 125.42 109.171 122.123 109C122.123 108.333 121.79 108 121.123 108C109.879 85.6821 98.212 63.5151 86.123 41.5001C87.071 41.0171 88.071 40.8511 89.123 41.0001C94.582 52.5841 100.582 63.9171 107.123 75.0001Z" fill="#EEC585"/>
<path fill-rule="evenodd" clip-rule="evenodd" d="M119.123 69C122.79 76.333 126.456 83.667 130.123 91C125.69 91.714 122.023 93.714 119.123 97C114.633 90.026 110.633 82.693 107.123 75C111.15 72.987 115.15 70.987 119.123 69Z" fill="#B79156"/>
<path fill-rule="evenodd" clip-rule="evenodd" d="M130.123 91C132.87 94.223 134.87 97.889 136.123 102C136.209 102.996 135.875 103.829 135.123 104.5C131.42 106.351 127.753 108.185 124.123 110C123.207 109.957 122.54 109.624 122.123 109C125.42 109.171 125.754 108.505 123.123 107C122.222 103.453 120.888 100.12 119.123 97C122.023 93.714 125.69 91.714 130.123 91Z" fill="#D8AE6F"/>
<path fill-rule="evenodd" clip-rule="evenodd" d="M98.123 32.9997C99.191 32.0657 100.524 31.7317 102.123 31.9997C110.385 47.5237 118.385 63.1907 126.123 78.9997C131.444 85.9757 135.444 93.6417 138.123 102C137.456 102 136.79 102 136.123 102C134.87 97.8887 132.87 94.2227 130.123 90.9997C126.456 83.6667 122.79 76.3327 119.123 68.9997C112.562 57.5517 106.229 45.8847 100.123 33.9997C99.666 33.2017 98.999 32.8687 98.123 32.9997Z" fill="#F0C686"/>
<path fill-rule="evenodd" clip-rule="evenodd" d="M187.123 74C187.096 75.699 186.429 77.033 185.123 78C182.534 78.919 180.534 80.586 179.123 83C174.979 83.454 171.312 84.954 168.123 87.5C166.836 88.91 165.669 90.41 164.623 92C164.209 91.543 163.709 91.209 163.123 91C161.403 92.434 159.403 93.267 157.123 93.5C150.67 97.69 144.336 102.023 138.123 106.5C133.489 106.984 129.489 108.817 126.123 112C125.194 113.189 124.861 114.522 125.123 116C120.512 116.538 116.179 117.871 112.123 120C111.194 121.189 110.861 122.522 111.123 124C110.333 122.891 109.833 121.558 109.623 120C109.29 120.333 108.956 120.667 108.623 121C107.516 118.387 105.683 116.72 103.123 116C104.582 116.067 105.915 115.734 107.123 115C108.228 116.1 109.561 116.767 111.123 117C115.31 116.24 118.977 114.406 122.123 111.5C121.286 110.489 120.953 109.322 121.123 108C121.79 108 122.123 108.333 122.123 109C122.54 109.624 123.207 109.957 124.123 110C127.753 108.185 131.42 106.351 135.123 104.5C135.875 103.829 136.209 102.996 136.123 102C136.79 102 137.456 102 138.123 102C142.876 100.302 146.876 97.635 150.123 94C150.79 94 151.456 94 152.123 94C156.962 92.084 161.295 89.418 165.123 86C168.512 84.809 171.845 83.309 175.123 81.5C177.258 80.63 178.258 79.463 178.123 78C178.456 78 178.79 78 179.123 78C182.073 77.192 184.74 75.858 187.123 74Z" fill="#C28A51"/>
<path fill-rule="evenodd" clip-rule="evenodd" d="M187.123 74C187.456 74 187.79 74 188.123 74C187.822 82.086 188.156 90.086 189.123 98C188.867 104.724 189.2 111.391 190.123 118C185.79 120 181.456 122 177.123 124C178.782 120.667 181.448 119 185.123 119C185.156 105.218 185.156 91.551 185.123 78C186.429 77.033 187.096 75.699 187.123 74Z" fill="#D7A673"/>
<path fill-rule="evenodd" clip-rule="evenodd" d="M185.123 78C185.156 91.551 185.156 105.218 185.123 119C181.448 119 178.782 120.667 177.123 124C170.824 128.488 164.157 132.488 157.123 136C156.456 135.333 155.79 134.667 155.123 134C156.123 134 157.123 134 158.123 134C158.455 123.978 158.122 113.978 157.123 104C156.101 104.355 155.434 105.022 155.123 106C152.356 104.384 150.356 105.051 149.123 108C146.475 108.238 144.641 109.572 143.623 112C143.123 122.661 142.956 133.328 143.123 144C133.172 150.894 122.672 156.894 111.623 162C110.858 161.93 110.358 161.597 110.123 161C111.118 148.845 111.452 136.511 111.123 124C110.861 122.522 111.194 121.189 112.123 120C116.179 117.871 120.512 116.538 125.123 116C124.861 114.522 125.194 113.189 126.123 112C129.489 108.817 133.489 106.984 138.123 106.5C144.336 102.023 150.67 97.69 157.123 93.5C159.403 93.267 161.403 92.434 163.123 91C163.709 91.209 164.209 91.543 164.623 92C165.669 90.41 166.836 88.91 168.123 87.5C171.312 84.954 174.979 83.454 179.123 83C180.534 80.586 182.534 78.919 185.123 78Z" fill="#E4A171"/>
<path fill-rule="evenodd" clip-rule="evenodd" d="M174.123 94C174.123 100.333 174.123 106.667 174.123 113C173.456 113.333 172.79 113.667 172.123 114C170.287 111.912 167.954 110.579 165.123 110C164.958 106.318 165.124 102.652 165.623 99C168.329 97.05 171.162 95.383 174.123 94Z" fill="#966138"/>
<path fill-rule="evenodd" clip-rule="evenodd" d="M174.123 113C174.123 106.667 174.123 100.333 174.123 94C175.105 93.359 176.105 92.693 177.123 92C178.456 99.667 178.456 107.333 177.123 115C176.105 114.307 175.105 113.641 174.123 113Z" fill="#C37946"/>
<path fill-rule="evenodd" clip-rule="evenodd" d="M40.123 104C40.4563 104 40.7897 104 41.123 104C41.7261 109.119 41.0594 113.785 39.123 118C39.6073 113.673 38.9407 109.673 37.123 106C38.3325 105.568 39.3325 104.901 40.123 104Z" fill="#9B983B"/>
<path fill-rule="evenodd" clip-rule="evenodd" d="M42.123 80C50.0568 85.643 58.3902 90.809 67.123 95.5C70.1817 95.558 72.515 96.891 74.123 99.5C82.86 102.791 90.86 107.291 98.123 113C99.522 114.39 101.189 115.39 103.123 116C105.683 116.72 107.516 118.387 108.623 121C108.956 120.667 109.29 120.333 109.623 120C109.833 121.558 110.333 122.891 111.123 124C111.452 136.511 111.118 148.845 110.123 161C106.097 159.283 102.097 157.617 98.123 156C97.67 155.042 97.004 154.208 96.123 153.5C77.79 143 59.4563 132.5 41.123 122C40.4473 120.898 39.7807 119.898 39.123 119C39.123 118.667 39.123 118.333 39.123 118C41.0594 113.785 41.7261 109.119 41.123 104C40.7973 95.816 41.1306 87.816 42.123 80Z" fill="#C27E4E"/>
<path fill-rule="evenodd" clip-rule="evenodd" d="M57.123 98.0005C57.123 104.001 57.123 110.001 57.123 116.001C56.953 117.323 57.2864 118.49 58.123 119.501C60.6897 120.902 63.3564 122.069 66.123 123.001C66.2797 124.374 66.113 125.708 65.623 127.001C62.0737 125.141 58.5737 123.141 55.123 121.001C54.4246 113.642 53.7579 106.309 53.123 99.0005C54.0601 96.8585 55.3934 96.5245 57.123 98.0005Z" fill="#EAA274"/>
<path fill-rule="evenodd" clip-rule="evenodd" d="M57.123 98C58.027 98.709 58.3603 99.709 58.123 101C60.5593 100.817 62.726 101.484 64.623 103C64.9563 102.667 65.2897 102.333 65.623 102C67.1985 105.426 67.3652 108.76 66.123 112C66.1884 111.562 66.0218 111.228 65.623 111C64.6283 111.566 63.795 112.233 63.123 113C61.1889 113.61 59.5223 114.61 58.123 116C57.7897 116 57.4563 116 57.123 116C57.123 110 57.123 104 57.123 98Z" fill="#A8734E"/>
<path fill-rule="evenodd" clip-rule="evenodd" d="M155.123 106C155.123 115.333 155.123 124.667 155.123 134C154.13 125.516 153.797 116.849 154.123 108C152.456 108 150.79 108 149.123 108C150.356 105.051 152.356 104.384 155.123 106Z" fill="#B79179"/>
<path fill-rule="evenodd" clip-rule="evenodd" d="M155.123 134C155.123 124.667 155.123 115.333 155.123 106C155.434 105.022 156.101 104.355 157.123 104C158.122 113.978 158.455 123.978 158.123 134C157.123 134 156.123 134 155.123 134Z" fill="#C27140"/>
<path fill-rule="evenodd" clip-rule="evenodd" d="M149.123 108C150.79 108 152.456 108 154.123 108C153.797 116.849 154.13 125.516 155.123 134C155.79 134.667 156.456 135.333 157.123 136C152.632 135.385 148.632 136.385 145.123 139C144.957 129.994 145.123 120.994 145.623 112C146.634 111.163 147.801 110.83 149.123 111C149.123 110 149.123 109 149.123 108Z" fill="#ABABAB"/>
<path fill-rule="evenodd" clip-rule="evenodd" d="M149.123 108C149.123 109 149.123 110 149.123 111C147.801 110.83 146.634 111.163 145.623 112C145.123 120.994 144.957 129.994 145.123 139C144.456 140.667 143.79 142.333 143.123 144C142.956 133.328 143.123 122.661 143.623 112C144.641 109.572 146.475 108.238 149.123 108Z" fill="#C6A891"/>
<path fill-rule="evenodd" clip-rule="evenodd" d="M232.123 128C232.123 129 232.123 130 232.123 131C229.694 131.384 227.36 132.051 225.123 133C225.578 137.883 223.578 139.883 219.123 139C219.999 138.249 220.999 137.749 222.123 137.5C219.027 136.573 216.693 137.573 215.123 140.5C213.15 140.995 211.15 141.162 209.123 141C216.894 136.945 224.56 132.612 232.123 128Z" fill="#6D5A32"/>
<path fill-rule="evenodd" clip-rule="evenodd" d="M189.123 98C196.294 101.751 203.294 105.751 210.123 110C214.1 112.678 217.767 115.845 221.123 119.5C224.195 120.658 227.195 121.991 230.123 123.5C218.141 130.472 206.141 137.472 194.123 144.5C193.266 145.189 192.6 146.022 192.123 147C185.501 150.129 179.001 153.462 172.623 157C169.03 159.212 165.53 161.545 162.123 164C161.237 164.825 160.904 165.825 161.123 167C159.361 167.143 157.694 166.809 156.123 166C153.933 168.024 151.6 169.857 149.123 171.5C138.643 176.782 128.31 182.448 118.123 188.5C116.229 189.579 115.896 190.913 117.123 192.5C115.426 192.884 113.76 192.718 112.123 192C74.6919 170.855 37.3586 149.521 0.123047 128C10.5931 120.926 21.5931 114.592 33.123 109C34.7897 109 36.4563 109 38.123 109C38.6013 111.778 37.6013 113.778 35.123 115C30.9929 117.903 26.6596 120.57 22.123 123C20.5521 123.809 18.8854 124.143 17.123 124C17.123 125 17.123 126 17.123 127C18.4964 126.843 19.8298 127.01 21.123 127.5C26.1549 130.218 30.8215 133.385 35.123 137C42.9302 139.733 49.9302 143.733 56.123 149C67.8356 154.564 79.169 160.731 90.123 167.5C96.781 168 103.448 168.166 110.123 168C111.414 168.237 112.414 167.904 113.123 167C119.74 162.351 126.74 158.185 134.123 154.5C135.79 153.833 137.456 153.833 139.123 154.5C140.701 155.594 142.368 156.428 144.123 157C145.569 158.113 147.236 158.28 149.123 157.5C152.986 155.069 156.986 152.902 161.123 151C162.911 151.285 164.578 150.952 166.123 150C169.062 147.994 172.062 145.994 175.123 144C177.327 141.174 177.161 138.841 174.623 137C174.14 136.052 173.974 135.052 174.123 134C177.01 132.79 179.343 130.79 181.123 128C183.476 127.16 185.476 125.826 187.123 124C190.814 123.164 191.814 121.164 190.123 118C189.2 111.391 188.867 104.724 189.123 98Z" fill="#86B42A"/>
<path fill-rule="evenodd" clip-rule="evenodd" d="M39.1229 119C39.7806 119.898 40.4472 120.898 41.1229 122C59.4562 132.5 77.7899 143 96.1229 153.5C97.0039 154.208 97.6699 155.042 98.1229 156C101.891 158.725 105.891 161.225 110.123 163.5C109.591 165.505 110.591 166.671 113.123 167C112.414 167.904 111.414 168.237 110.123 168C86.6349 154.242 62.9678 140.408 39.1229 126.5C37.8086 123.895 37.8086 121.395 39.1229 119Z" fill="#C4C9BC"/>
<path fill-rule="evenodd" clip-rule="evenodd" d="M181.123 128C179.343 130.79 177.01 132.79 174.123 134C173.974 135.052 174.14 136.052 174.623 137C177.161 138.841 177.327 141.174 175.123 144C172.062 145.994 169.062 147.994 166.123 150C164.578 150.952 162.911 151.285 161.123 151C163.492 149.81 165.492 148.143 167.123 146C175.583 144.142 176.083 141.142 168.623 137C168.153 135.923 168.32 134.923 169.123 134C172.898 131.561 176.898 129.561 181.123 128Z" fill="#8DB544"/>
<path fill-rule="evenodd" clip-rule="evenodd" d="M89.1231 118C91.8861 118.296 94.3861 119.296 96.6231 121C97.4531 127.028 97.2871 133.028 96.1231 139C94.8871 138.254 93.5531 137.921 92.1231 138C91.1651 137.547 90.3311 136.881 89.6231 136C89.1241 130.009 88.9571 124.009 89.1231 118Z" fill="#ADA8A0"/>
<path fill-rule="evenodd" clip-rule="evenodd" d="M131.123 138C131.123 131.667 131.123 125.333 131.123 119C131.774 118.409 132.441 117.743 133.123 117C134.288 124.645 134.454 132.312 133.623 140C132.915 139.119 132.081 138.453 131.123 138Z" fill="#C27644"/>
<path fill-rule="evenodd" clip-rule="evenodd" d="M131.123 119C131.123 125.333 131.123 131.667 131.123 138C130.79 138 130.456 138 130.123 138C130.123 132.333 130.123 126.667 130.123 121C127.79 121.667 125.456 122.333 123.123 123C122.79 129 122.456 135 122.123 141C123.123 141 124.123 141 125.123 141C124.055 141.934 122.722 142.268 121.123 142C121.123 135.333 121.123 128.667 121.123 122C124.429 121.056 127.762 120.056 131.123 119Z" fill="#C59F87"/>
<path fill-rule="evenodd" clip-rule="evenodd" d="M187.123 124C185.476 125.826 183.476 127.16 181.123 128C182.425 125.678 184.425 124.345 187.123 124Z" fill="#B8D290"/>
<path fill-rule="evenodd" clip-rule="evenodd" d="M130.123 138C128.855 139.547 127.188 140.547 125.123 141C124.123 141 123.123 141 122.123 141C122.456 135 122.79 129 123.123 123C125.456 122.333 127.79 121.667 130.123 121C130.123 126.667 130.123 132.333 130.123 138Z" fill="#AEABA7"/>
<path fill-rule="evenodd" clip-rule="evenodd" d="M190.123 118C191.814 121.164 190.814 123.164 187.123 124C184.425 124.345 182.425 125.678 181.123 128C176.898 129.561 172.898 131.561 169.123 134C167.506 134.538 165.839 134.871 164.123 135C162.073 135.461 160.073 136.128 158.123 137C157.516 136.876 157.183 136.543 157.123 136C164.157 132.488 170.824 128.488 177.123 124C181.456 122 185.79 120 190.123 118Z" fill="#E0DED6"/>
<path fill-rule="evenodd" clip-rule="evenodd" d="M66.1231 112C66.1231 115.667 66.1231 119.333 66.1231 123C63.3565 122.068 60.6898 120.901 58.1231 119.5C57.2865 118.489 56.9531 117.322 57.1231 116C57.4564 116 57.7898 116 58.1231 116C58.971 117.593 60.3044 118.76 62.1231 119.5C63.0711 119.983 64.0711 120.149 65.1231 120C65.6333 117.112 64.9666 114.779 63.1231 113C63.7951 112.233 64.6284 111.566 65.6231 111C66.0219 111.228 66.1885 111.562 66.1231 112Z" fill="#C2A68A"/>
<path fill-rule="evenodd" clip-rule="evenodd" d="M63.123 113C64.9665 114.779 65.6332 117.112 65.123 120C64.071 120.149 63.071 119.983 62.123 119.5C60.3043 118.76 58.9709 117.593 58.123 116C59.5223 114.61 61.1889 113.61 63.123 113Z" fill="#A9ADA3"/>
<path fill-rule="evenodd" clip-rule="evenodd" d="M165.123 110C167.954 110.579 170.287 111.912 172.123 114C170.144 115.668 167.811 116.334 165.123 116C165.123 114 165.123 112 165.123 110Z" fill="#B7A590"/>
<path fill-rule="evenodd" clip-rule="evenodd" d="M89.123 118C88.957 124.009 89.124 130.009 89.623 136C90.331 136.881 91.165 137.547 92.123 138C93.613 139.78 95.613 140.446 98.123 140C98.123 141.667 98.123 143.333 98.123 145C93.741 143.641 89.741 141.474 86.123 138.5C86.623 138 87.123 137.5 87.623 137C87.745 129.273 88.245 122.94 89.123 118Z" fill="#ECAD7F"/>
<path fill-rule="evenodd" clip-rule="evenodd" d="M169.123 134C168.32 134.923 168.153 135.923 168.623 137C176.083 141.142 175.583 144.142 167.123 146C168.388 145.021 169.722 144.021 171.123 143C169.794 140.432 167.961 139.766 165.623 141C163.703 140.562 161.869 139.895 160.123 139C161.702 137.833 163.035 136.5 164.123 135C165.839 134.871 167.506 134.538 169.123 134Z" fill="#DFF1E1"/>
<path fill-rule="evenodd" clip-rule="evenodd" d="M0.123133 133C5.13633 135.839 10.1363 138.672 15.1231 141.5C16.0036 142.208 16.6703 143.042 17.1231 144C18.0843 145.938 17.4177 147.438 15.1231 148.5C16.4163 148.99 17.7497 149.157 19.1231 149C19.084 150.859 19.9173 152.192 21.6231 153C23.7181 151.45 25.8848 151.117 28.1231 152C26.7994 153.435 25.1327 154.435 23.1231 155C24.3455 157.478 26.3455 158.478 29.1231 158C29.1231 161.333 30.7898 163 34.1231 163C34.048 165.706 33.7147 168.373 33.1231 171C22.2346 165.456 11.568 159.456 1.12313 153C0.126433 146.366 -0.206867 139.7 0.123133 133Z" fill="#553825"/>
<path fill-rule="evenodd" clip-rule="evenodd" d="M167.123 146C165.492 148.143 163.492 149.81 161.123 151C156.986 152.902 152.986 155.069 149.123 157.5C147.236 158.28 145.569 158.113 144.123 157C146.953 156.806 149.619 156.139 152.123 155C151.597 151.692 152.93 149.526 156.123 148.5C157.522 147.905 158.855 148.072 160.123 149C162.133 147.247 164.466 146.247 167.123 146Z" fill="#D7E8D3"/>
<path fill-rule="evenodd" clip-rule="evenodd" d="M17.123 144C27.1582 147.852 36.4916 153.019 45.123 159.5C48.8255 161.015 52.4921 162.681 56.123 164.5C62.1319 170.163 69.1319 174.163 77.123 176.5C86.343 182.605 95.676 188.438 105.123 194C105.123 194.333 105.123 194.667 105.123 195C102.456 195.333 99.79 195.667 97.123 196C97.456 193 96.123 191.667 93.123 192C93.123 193.333 93.123 194.667 93.123 196C90.504 195.732 88.004 196.065 85.623 197C83.707 194.189 81.54 191.523 79.123 189C77.3187 187.732 75.3187 187.065 73.123 187C73.123 186 73.123 185 73.123 184C71.7897 184 70.4563 184 69.123 184C69.123 183 69.123 182 69.123 181C64.7507 180.21 60.4174 179.21 56.123 178C52.7772 180.897 50.1105 180.397 48.123 176.5C48.4563 176.167 48.7897 175.833 49.123 175.5C45.1036 175.597 41.1036 174.764 37.123 173C35.47 172.84 34.1367 172.174 33.123 171C33.7146 168.373 34.0479 165.706 34.123 163C30.7897 163 29.123 161.333 29.123 158C26.3454 158.478 24.3454 157.478 23.123 155C25.1326 154.435 26.7993 153.435 28.123 152C25.8847 151.117 23.718 151.45 21.623 153C19.9172 152.192 19.0839 150.859 19.123 149C17.7496 149.157 16.4162 148.99 15.123 148.5C17.4176 147.438 18.0842 145.938 17.123 144Z" fill="#553A21"/>
<path fill-rule="evenodd" clip-rule="evenodd" d="M145.123 139C145.431 141.424 145.097 143.757 144.123 146C140.897 147.106 138.23 148.939 136.123 151.5C137.979 152.43 139.979 152.93 142.123 153C142.985 154.266 143.652 155.599 144.123 157C142.368 156.428 140.701 155.594 139.123 154.5C137.456 153.833 135.79 153.833 134.123 154.5C126.74 158.185 119.74 162.351 113.123 167C110.591 166.671 109.591 165.505 110.123 163.5C105.891 161.225 101.891 158.725 98.123 156C102.097 157.617 106.097 159.283 110.123 161C110.358 161.597 110.858 161.93 111.623 162C122.672 156.894 133.172 150.894 143.123 144C143.79 142.333 144.456 140.667 145.123 139Z" fill="#DFDFD4"/>
<path fill-rule="evenodd" clip-rule="evenodd" d="M164.123 135C163.035 136.5 161.702 137.833 160.123 139C161.869 139.895 163.703 140.562 165.623 141C167.961 139.766 169.794 140.432 171.123 143C169.722 144.021 168.388 145.021 167.123 146C164.466 146.247 162.133 147.247 160.123 149C158.855 148.072 157.522 147.905 156.123 148.5C152.93 149.526 151.597 151.692 152.123 155C149.619 156.139 146.953 156.806 144.123 157C143.652 155.599 142.985 154.266 142.123 153C139.979 152.93 137.979 152.43 136.123 151.5C138.23 148.939 140.897 147.106 144.123 146C145.097 143.757 145.431 141.424 145.123 139C148.632 136.385 152.632 135.385 157.123 136C157.183 136.543 157.516 136.876 158.123 137C160.073 136.128 162.073 135.461 164.123 135Z" fill="#E0EBEC"/>
<path fill-rule="evenodd" clip-rule="evenodd" d="M37.123 106C38.9407 109.673 39.6073 113.673 39.123 118C39.123 118.333 39.123 118.667 39.123 119C37.8087 121.395 37.8087 123.895 39.123 126.5C62.9679 140.408 86.635 154.242 110.123 168C103.448 168.166 96.781 168 90.123 167.5C79.169 160.731 67.8356 154.564 56.123 149C49.9302 143.733 42.9302 139.733 35.123 137C30.8215 133.385 26.1549 130.218 21.123 127.5C19.8298 127.01 18.4964 126.843 17.123 127C17.123 126 17.123 125 17.123 124C18.8854 124.143 20.5521 123.809 22.123 123C26.6596 120.57 30.9929 117.903 35.123 115C37.6013 113.778 38.6013 111.778 38.123 109C36.4563 109 34.7897 109 33.123 109C34.0593 107.526 35.3927 106.526 37.123 106Z" fill="#739B23"/>
<path fill-rule="evenodd" clip-rule="evenodd" d="M210.123 110C211.014 110.61 212.014 110.943 213.123 111C219.357 115.415 226.024 119.082 233.123 122C233.123 124 233.123 126 233.123 128C232.79 128 232.456 128 232.123 128C224.56 132.612 216.894 136.945 209.123 141C205.536 142.911 202.203 145.245 199.123 148C189.157 152.972 179.49 158.305 170.123 164C169.456 164 169.123 164.333 169.123 165C163.615 166.871 158.615 169.538 154.123 173C150.927 174.429 147.927 176.095 145.123 178C145.123 178.333 145.123 178.667 145.123 179C142.699 178.692 140.366 179.026 138.123 180C135.103 182.689 132.103 185.356 129.123 188C127.079 189.008 125.079 190.008 123.123 191C120.702 192.738 118.035 194.071 115.123 195C114.123 195 113.123 195 112.123 195C112.123 194 112.123 193 112.123 192C113.76 192.718 115.426 192.884 117.123 192.5C115.896 190.913 116.229 189.579 118.123 188.5C128.31 182.448 138.643 176.782 149.123 171.5C151.6 169.857 153.933 168.024 156.123 166C157.694 166.809 159.361 167.143 161.123 167C160.904 165.825 161.237 164.825 162.123 164C165.53 161.545 169.03 159.212 172.623 157C179.001 153.462 185.501 150.129 192.123 147C192.6 146.022 193.266 145.189 194.123 144.5C206.141 137.472 218.141 130.472 230.123 123.5C227.195 121.991 224.195 120.658 221.123 119.5C217.767 115.845 214.1 112.678 210.123 110Z" fill="#729B1A"/>
<path fill-rule="evenodd" clip-rule="evenodd" d="M232.123 128C232.456 128 232.79 128 233.123 128C233.123 134.667 233.123 141.333 233.123 148C192.594 170.5 152.26 193.5 112.123 217C111.516 216.876 111.183 216.543 111.123 216C111.809 214.652 112.809 213.485 114.123 212.5C112.216 207.982 111.549 203.148 112.123 198C117.374 198.11 121.04 195.777 123.123 191C125.079 190.008 127.079 189.008 129.123 188C130.175 188.149 131.175 187.983 132.123 187.5C135.917 183.618 140.25 180.785 145.123 179C145.123 178.667 145.123 178.333 145.123 178C147.477 177.662 149.81 177.162 152.123 176.5C153.446 175.684 154.112 174.517 154.123 173C157.475 173.276 160.142 172.109 162.123 169.5C165.416 169.355 167.749 167.855 169.123 165C169.123 164.333 169.456 164 170.123 164C177.232 160.935 184.565 158.269 192.123 156C192.79 154.667 193.456 153.333 194.123 152C196.409 151.367 198.075 150.034 199.123 148C202.203 145.245 205.536 142.911 209.123 141C211.15 141.162 213.15 140.995 215.123 140.5C216.693 137.573 219.027 136.573 222.123 137.5C220.999 137.749 219.999 138.249 219.123 139C223.578 139.883 225.578 137.883 225.123 133C227.36 132.051 229.694 131.384 232.123 131C232.123 130 232.123 129 232.123 128Z" fill="#6F523F"/>
<path fill-rule="evenodd" clip-rule="evenodd" d="M199.123 148C198.075 150.034 196.409 151.367 194.123 152C193.456 153.333 192.79 154.667 192.123 156C184.565 158.269 177.232 160.935 170.123 164C179.49 158.305 189.157 152.972 199.123 148Z" fill="#6C5B2E"/>
<path fill-rule="evenodd" clip-rule="evenodd" d="M0.123047 128C37.3586 149.521 74.6919 170.855 112.123 192C112.123 193 112.123 194 112.123 195C113.123 195 114.123 195 115.123 195C111.668 196.486 108.335 196.153 105.123 194C95.676 188.438 86.343 182.605 77.123 176.5C69.1319 174.163 62.1319 170.163 56.123 164.5C52.4921 162.681 48.8255 161.015 45.123 159.5C36.4916 153.019 27.1582 147.852 17.123 144C16.6702 143.042 16.0035 142.208 15.123 141.5C10.1362 138.672 5.13625 135.839 0.123047 133C0.123047 131.333 0.123047 129.667 0.123047 128Z" fill="#588009"/>
<path fill-rule="evenodd" clip-rule="evenodd" d="M169.123 165C167.749 167.855 165.416 169.355 162.123 169.5C160.142 172.109 157.475 173.276 154.123 173C158.615 169.538 163.615 166.871 169.123 165Z" fill="#69692D"/>
<path fill-rule="evenodd" clip-rule="evenodd" d="M154.123 173C154.112 174.517 153.446 175.684 152.123 176.5C149.81 177.162 147.477 177.662 145.123 178C147.927 176.095 150.927 174.429 154.123 173Z" fill="#6A6828"/>
<path fill-rule="evenodd" clip-rule="evenodd" d="M145.123 179C140.25 180.785 135.917 183.618 132.123 187.5C131.175 187.983 130.175 188.149 129.123 188C132.103 185.356 135.103 182.689 138.123 180C140.366 179.026 142.699 178.692 145.123 179Z" fill="#708622"/>
<path fill-rule="evenodd" clip-rule="evenodd" d="M37.123 173C41.1036 174.764 45.1036 175.597 49.123 175.5C48.7897 175.833 48.4563 176.167 48.123 176.5C50.1105 180.397 52.7772 180.897 56.123 178C60.4174 179.21 64.7507 180.21 69.123 181C69.123 182 69.123 183 69.123 184C70.4563 184 71.7897 184 73.123 184C73.123 185 73.123 186 73.123 187C75.3187 187.065 77.3187 187.732 79.123 189C81.54 191.523 83.707 194.189 85.623 197C88.004 196.065 90.504 195.732 93.123 196C93.123 194.667 93.123 193.333 93.123 192C96.123 191.667 97.456 193 97.123 196C99.79 195.667 102.456 195.333 105.123 195C106.943 196.948 109.277 197.948 112.123 198C111.549 203.148 112.216 207.982 114.123 212.5C112.809 213.485 111.809 214.652 111.123 216C86.121 202.168 61.4541 187.835 37.123 173Z" fill="#563926"/>
<path fill-rule="evenodd" clip-rule="evenodd" d="M123.123 191C121.04 195.777 117.374 198.11 112.123 198C109.277 197.948 106.943 196.948 105.123 195C105.123 194.667 105.123 194.333 105.123 194C108.335 196.153 111.668 196.486 115.123 195C118.035 194.071 120.702 192.738 123.123 191Z" fill="#685627"/>
</svg>
